<?xml version="1.0" standalone="no"?>
<!DOCTYPE svg PUBLIC "-//W3C//DTD SVG 1.1//EN" "http://www.w3.org/Graphics/SVG/1.1/DTD/svg11.dtd" >
<svg xmlns="http://www.w3.org/2000/svg" xmlns:xlink="http://www.w3.org/1999/xlink" version="1.1">
<metadata>
Created by FontForge 20190801 at Mon May 26 19:54:24 2014
 By www-data
Copyright (c) 2014 by Fontfabric LLC. All rights reserved.
</metadata>
<defs>
<font id="IntroCondBold" horiz-adv-x="518" >
  <font-face 
    font-family="IntroCondBold"
    font-weight="700"
    font-stretch="normal"
    units-per-em="1000"
    panose-1="0 0 5 0 0 0 0 0 0 0"
    ascent="740"
    descent="-260"
    x-height="482"
    cap-height="700"
    bbox="-43 -277 1110 989"
    underline-thickness="50"
    underline-position="-100"
    unicode-range="U+0020-2212"
  />
<missing-glyph horiz-adv-x="198" 
 />
    <glyph glyph-name=".notdef" horiz-adv-x="198" 
 />
    <glyph glyph-name=".null" horiz-adv-x="0" 
 />
    <glyph glyph-name="nonmarkingreturn" horiz-adv-x="333" 
 />
    <glyph glyph-name="space" unicode=" " horiz-adv-x="198" 
 />
    <glyph glyph-name="exclam" unicode="!" horiz-adv-x="259" 
d="M206 701l-8 -514h-135l-11 514h154zM130 -14q-33 0 -54.5 20.5t-21.5 55.5t21.5 55.5t54.5 20.5q34 0 55.5 -20.5t21.5 -55.5q0 -34 -22 -55t-55 -21z" />
    <glyph glyph-name="quotedbl" unicode="&#x22;" horiz-adv-x="356" 
d="M145 480h-92v220h109zM296 480h-92v220h108z" />
    <glyph glyph-name="numbersign" unicode="#" horiz-adv-x="603" 
d="M125 277l15 123h-82v99h96l25 200h116l-23 -200h110l26 200h116l-24 -200h68v-99h-81l-14 -123h68v-98h-81l-21 -179h-122l22 179h-108l-20 -179h-123l23 179h-80v98h94zM357 274l15 130h-117l-15 -130h117z" />
    <glyph glyph-name="dollar" unicode="$" horiz-adv-x="548" 
d="M33 207h136q1 -39 21.5 -60.5t50.5 -25.5v177q-43 7 -74 17.5t-62 31.5t-47.5 58t-16.5 89q0 102 55.5 155t144.5 64v68h70v-70q80 -11 133 -62.5t53 -144.5h-132q-2 33 -17 52.5t-37 22.5v-167q46 -7 78.5 -18t64.5 -33t48 -61.5t16 -95.5q0 -85 -61.5 -146.5
t-145.5 -70.5v-69h-70v68q-87 9 -147.5 67t-60.5 154zM241 421v158q-26 -3 -43 -24t-17 -58q0 -35 15 -51t45 -25zM311 290v-169q28 3 47 25.5t19 57.5q0 28 -10.5 46t-22 25t-33.5 15z" />
    <glyph glyph-name="percent" unicode="%" horiz-adv-x="785" 
d="M329 536q0 -78 -41.5 -126t-108.5 -48q-68 0 -109.5 48t-41.5 126t41.5 126t109.5 48q67 0 108.5 -48t41.5 -126zM594 699l-293 -699h-117l292 699h118zM130 536q0 -35 13.5 -56.5t35.5 -21.5t35.5 21.5t13.5 56.5t-13.5 57t-35.5 22t-35.5 -22t-13.5 -57zM757 164
q0 -78 -41.5 -126t-108.5 -48q-68 0 -109.5 48t-41.5 126t41.5 126t109.5 48q67 0 108.5 -48t41.5 -126zM558 164q0 -35 13.5 -56.5t35.5 -21.5t35.5 21.5t13.5 56.5t-13.5 57t-35.5 22t-35.5 -22t-13.5 -57z" />
    <glyph glyph-name="ampersand" unicode="&#x26;" horiz-adv-x="547" 
d="M449 529h-118q0 26 -18 42.5t-44 16.5q-27 0 -46 -17.5t-19 -51.5q0 -42 22 -59t64 -17v-114h-27q-41 -2 -64 -32t-23 -77q0 -46 23.5 -76t64.5 -30q39 0 63 29.5t25 82.5v222h170v-113h-55v-108q0 -111 -53.5 -174t-149.5 -63q-112 0 -170 65.5t-56 159.5q0 129 89 182
q-53 41 -53 122q0 87 53 139t138 52q81 0 133.5 -47.5t50.5 -133.5z" />
    <glyph glyph-name="quotesingle" unicode="'" horiz-adv-x="208" 
d="M147 482h-94v218h110z" />
    <glyph glyph-name="parenleft" unicode="(" horiz-adv-x="313" 
d="M258 790l41 -84q-66 -45 -98.5 -164.5t-32.5 -259.5q0 -144 34 -263t97 -161l-41 -84q-109 55 -166.5 192t-59.5 296q-2 173 55.5 322t170.5 206z" />
    <glyph glyph-name="parenright" unicode=")" horiz-adv-x="313" 
d="M14 706l41 84q72 -37 124.5 -118.5t76 -176t25.5 -193.5q2 -171 -56 -320t-170 -208l-41 84q60 40 94 148t36 234q2 155 -31 286.5t-99 179.5z" />
    <glyph glyph-name="asterisk" unicode="*" horiz-adv-x="380" 
d="M318 455l-81 -63l-47 87l-46 -87l-80 64l60 80l-85 26l28 96l81 -37l-8 99h100l-9 -99l79 38l30 -95l-83 -27z" />
    <glyph glyph-name="plus" unicode="+" horiz-adv-x="411" 
d="M152 424v128h107v-128h110v-115h-110v-129h-107v129h-109v115h109z" />
    <glyph glyph-name="comma" unicode="," horiz-adv-x="237" 
d="M195 59q0 -19 -5 -32l-3 -13q-11 -39 -36 -114h-77l21 86q-54 19 -54 74q0 35 21.5 56t55.5 21t55.5 -20.5t21.5 -57.5z" />
    <glyph glyph-name="hyphen" unicode="-" horiz-adv-x="402" 
d="M352 393v-120h-302v120h302z" />
    <glyph glyph-name="period" unicode="." horiz-adv-x="235" 
d="M117 -15q-33 0 -55 21t-22 55q0 35 22 56.5t55 21.5t55.5 -21.5t22.5 -56.5q0 -34 -22.5 -55t-55.5 -21z" />
    <glyph glyph-name="slash" unicode="/" horiz-adv-x="457" 
d="M148 1h-126l287 699h126z" />
    <glyph glyph-name="zero" unicode="0" horiz-adv-x="543" 
d="M272 710q95 0 158.5 -64.5t63.5 -174.5v-244q0 -110 -63 -173.5t-159 -63.5t-159.5 63.5t-63.5 173.5v244q0 110 63.5 174.5t159.5 64.5zM272 121q38 0 62 23t26 67q2 34 2 56v163q0 19 -2 57q-2 46 -26 69t-62 23q-85 0 -89 -92q-1 -19 -1 -57v-163q0 -39 1 -56
q2 -45 26 -67.5t63 -22.5z" />
    <glyph glyph-name="one" unicode="1" horiz-adv-x="388" 
d="M49 700h220v-585h99v-115h-331v115h96v468h-84v117z" />
    <glyph glyph-name="two" unicode="2" horiz-adv-x="462" 
d="M223 582q-64 0 -64 -88h-119q-1 102 49 159t140 57q81 0 131.5 -58.5t50 -144t-54.5 -182.5l-119 -195h182v-130h-386v32l207 349q43 75 43 115q0 86 -60 86z" />
    <glyph glyph-name="three" unicode="3" horiz-adv-x="493" 
d="M33 205h124q2 -39 24.5 -62.5t58.5 -23.5q35 0 57 29t22 77q-1 53 -27.5 82.5t-63 32.5t-75.5 -3v21l99 223h-196v119h379v-21l-119 -245q67 -14 102 -72.5t35 -135.5q0 -106 -58 -171t-153 -65q-92 0 -149.5 59t-59.5 156z" />
    <glyph glyph-name="four" unicode="4" horiz-adv-x="515" 
d="M288 0v139h-270v65l250 496h148v-440h63v-121h-63v-139h-128zM175 255h122v133l7 145h-1z" />
    <glyph glyph-name="five" unicode="5" horiz-adv-x="491" 
d="M173 582v-126q27 6 56 6q228 -5 228 -236q0 -106 -57.5 -171t-151.5 -65q-90 0 -146 57.5t-60 152.5h123q2 -36 23.5 -57.5t56.5 -21.5t56 28.5t21 75.5q0 76 -40 103t-106 24q-39 -3 -119 -13v361h368v-118h-252z" />
    <glyph glyph-name="six" unicode="6" horiz-adv-x="513" 
d="M394 700l-134 -265q19 14 58 14q76 0 122 -61.5t46 -162.5q0 -106 -62.5 -170.5t-164.5 -64.5t-164 64.5t-62 170.5q0 77 39 150l168 325h154zM259 117q39 0 62.5 29.5t23.5 78.5q0 51 -23.5 81.5t-62.5 30.5q-40 0 -64 -30.5t-24 -81.5q0 -49 24 -78.5t64 -29.5z" />
    <glyph glyph-name="seven" unicode="7" horiz-adv-x="460" 
d="M208 0h-142l200 570h-240v130h430v-21z" />
    <glyph glyph-name="eight" unicode="8" horiz-adv-x="527" 
d="M406 396q79 -58 84 -179q2 -95 -58.5 -161t-167.5 -66q-106 0 -166.5 65t-60.5 160q0 121 84 182q-45 49 -46 124q-2 79 49 134t140 55q90 0 139.5 -53.5t49.5 -132.5q0 -78 -47 -128zM264 440q30 0 47.5 22t17.5 56q0 33 -17.5 54t-47.5 21q-31 0 -48.5 -21.5
t-17.5 -54.5q0 -34 18 -55.5t48 -21.5zM264 114q41 0 64.5 30.5t23.5 77.5q0 49 -23.5 79.5t-64.5 30.5t-64.5 -32t-23.5 -81q0 -46 23.5 -75.5t64.5 -29.5z" />
    <glyph glyph-name="nine" unicode="9" horiz-adv-x="511" 
d="M116 0l140 266q-18 -13 -48 -13q-83 0 -133 61t-50 163q0 105 62.5 169t164.5 64t164 -64t62 -169q0 -74 -41 -154l-168 -323h-153zM252 583q-39 0 -63 -29t-24 -77q0 -51 24 -81.5t63 -30.5q86 0 86 112q0 48 -23.5 77t-62.5 29z" />
    <glyph glyph-name="colon" unicode=":" horiz-adv-x="254" 
d="M127 296q-33 0 -55 21t-22 55t22 56t55 22q34 0 56 -20.5t22 -57.5q0 -34 -22.5 -55t-55.5 -21zM127 -15q-33 0 -55 21t-22 55q0 35 22 56.5t55 21.5t55.5 -21.5t22.5 -56.5q0 -34 -22.5 -55t-55.5 -21z" />
    <glyph glyph-name="semicolon" unicode=";" horiz-adv-x="257" 
d="M128 297q-32 0 -54.5 20t-22.5 55t22 56t55 21q34 0 56 -21t22 -56q0 -34 -22 -54.5t-56 -20.5zM205 59q0 -8 -1.5 -15t-3.5 -15.5t-3 -14.5l-35 -112h-77l21 84q-55 20 -55 74q0 35 22 56t55 21q34 0 55.5 -20.5t21.5 -57.5z" />
    <glyph glyph-name="less" unicode="&#x3c;" horiz-adv-x="468" 
d="M406 578v-123l-220 -111l220 -112v-123l-372 184v103z" />
    <glyph glyph-name="equal" unicode="=" horiz-adv-x="467" 
d="M412 495v-116h-357v116h357zM412 305v-116h-357v116h357z" />
    <glyph glyph-name="greater" unicode="&#x3e;" horiz-adv-x="468" 
d="M62 109v123l220 112l-220 111v123l372 -182v-103z" />
    <glyph glyph-name="question" unicode="?" horiz-adv-x="442" 
d="M284 187h-131q-4 59 23 114q5 10 32.5 50t47 82t19.5 81q-5 62 -61 62q-28 0 -48 -20t-22 -55h-116q-2 104 50.5 156.5t135.5 52.5q93 0 144.5 -53t51.5 -150q0 -54 -36 -117q-8 -12 -29.5 -44.5t-32 -50t-20 -48t-8.5 -60.5zM219 -14q-33 0 -55 21t-22 55q0 37 21.5 57
t55.5 20q33 0 54.5 -21t21.5 -56t-21.5 -55.5t-54.5 -20.5z" />
    <glyph glyph-name="at" unicode="@" horiz-adv-x="806" 
d="M481 82q-18 -44 -51.5 -68t-72.5 -24q-93 0 -136.5 73.5t-33.5 178.5q9 123 82.5 190t177.5 65q43 0 89.5 -20.5t78.5 -58.5l-20 -246q-2 -22 -2 -31q-1 -61 18 -61q62 0 74 165q16 151 -52 243.5t-203 92.5q-127 0 -213.5 -95.5t-98.5 -243.5q-12 -147 46.5 -237
t158.5 -92q67 -2 140 34l-7 -81q-95 -41 -184 -22q-117 24 -182 131.5t-51 266.5q16 190 127.5 305.5t271.5 115.5q167 0 254 -114.5t71 -303.5q-10 -119 -58 -192.5t-130 -73.5q-53 0 -73.5 31.5t-20.5 71.5zM473 246l9 115q-27 21 -61 21q-40 0 -68.5 -38t-33.5 -102
q-4 -55 14 -93.5t57 -34.5q65 0 81 117z" />
    <glyph glyph-name="A" unicode="A" horiz-adv-x="618" 
d="M614 0h-147l-43 116h-230l-42 -116h-148v20l270 687h71l269 -687v-20zM347 326l-38 131l-40 -132l-30 -83h139z" />
    <glyph glyph-name="B" unicode="B" horiz-adv-x="570" 
d="M511 492q0 -39 -17 -74t-46 -55q88 -40 88 -156q0 -93 -58 -150t-152 -57h-260v700h238q93 0 150 -57t57 -151zM207 412h96q30 0 49.5 21.5t19.5 56.5q0 37 -18.5 59.5t-50.5 22.5h-96v-160zM207 130h121q31 0 49.5 21t18.5 56q0 38 -20 60.5t-52 22.5h-117v-160z" />
    <glyph glyph-name="C" unicode="C" horiz-adv-x="645" 
d="M34 349q0 162 84 261t220 99q104 0 182 -63t95 -186h-134q-27 114 -143 114q-73 0 -117.5 -61.5t-44.5 -163.5q0 -100 44.5 -161t117.5 -61q53 0 91 32t52 94h136q-17 -133 -96 -197.5t-183 -64.5q-136 0 -220 98.5t-84 259.5z" />
    <glyph glyph-name="D" unicode="D" horiz-adv-x="620" 
d="M66 700h224q133 0 214 -95.5t81 -252.5q0 -158 -81 -255t-214 -97h-224v700zM207 135h81q70 0 113 59t43 157q0 96 -43 155t-113 59h-81v-430z" />
    <glyph glyph-name="E" unicode="E" horiz-adv-x="484" 
d="M208 569v-142h210v-131h-210v-160h233v-136h-375v700h368v-131h-226z" />
    <glyph glyph-name="F" unicode="F" horiz-adv-x="464" 
d="M207 249v-249h-141v700h368v-131h-227v-189h202v-131h-202z" />
    <glyph glyph-name="G" unicode="G" horiz-adv-x="652" 
d="M34 350q0 161 84 260t221 99q96 0 172 -57.5t99 -172.5h-140q-20 50 -51 72.5t-80 22.5q-73 0 -117.5 -61.5t-44.5 -162.5q0 -100 44.5 -161.5t117.5 -61.5q127 0 147 134h-144v126h279q7 -119 -17 -196q-32 -101 -103.5 -150.5t-161.5 -49.5q-137 0 -221 99t-84 260z
" />
    <glyph glyph-name="H" unicode="H" horiz-adv-x="621" 
d="M413 298h-206v-298h-141v700h141v-267h206v267h142v-700h-142v298z" />
    <glyph glyph-name="I" unicode="I" horiz-adv-x="374" 
d="M337 0h-301v119h80v465h-73v116h288v-116h-73v-465h79v-119z" />
    <glyph glyph-name="J" unicode="J" horiz-adv-x="533" 
d="M472 700v-468q0 -111 -62.5 -176.5t-165.5 -65.5q-101 0 -162.5 66.5t-61.5 175.5v85h132v-82q0 -51 24.5 -81.5t66.5 -30.5q40 0 63.5 29.5t23.5 82.5v336h-96v129h238z" />
    <glyph glyph-name="K" unicode="K" horiz-adv-x="602" 
d="M430 0l-140 288q-20 -7 -84 -7v-281h-141v700h141v-289q77 0 95 13q11 7 19 18t15 37.5t10 39.5t12 57q36 164 210 123v-102q-33 4 -52 -11t-27 -54q-32 -134 -74 -186q20 -36 81 -149t95 -175v-22h-160z" />
    <glyph glyph-name="L" unicode="L" horiz-adv-x="449" 
d="M439 134v-134h-373v700h142v-566h231z" />
    <glyph glyph-name="M" unicode="M" horiz-adv-x="708" 
d="M642 708v-708h-141v360l-138 -201h-17l-138 201v-360h-142v708h51l238 -339l237 339h50z" />
    <glyph glyph-name="N" unicode="N" horiz-adv-x="638" 
d="M206 0h-141v705h44l322 -395v390h142v-705h-42l-325 391v-386z" />
    <glyph glyph-name="O" unicode="O" horiz-adv-x="677" 
d="M643 350q0 -162 -84 -261t-220 -99q-137 0 -221 99t-84 261t84 261t221 99q136 0 220 -99t84 -261zM176 350q0 -102 44.5 -163.5t118.5 -61.5t118.5 61.5t44.5 163.5q0 101 -44.5 162.5t-118.5 61.5t-118.5 -61.5t-44.5 -162.5z" />
    <glyph glyph-name="P" unicode="P" horiz-adv-x="558" 
d="M66 700h239q104 0 168.5 -70t64.5 -184q0 -111 -63 -179t-164 -68h-103v-198h-142v699zM205 327h106q40 0 65.5 33.5t25.5 89.5q0 54 -25.5 87t-65.5 33h-106v-243z" />
    <glyph glyph-name="Q" unicode="Q" horiz-adv-x="678" 
d="M657 -9h-129l-23 48q-70 -49 -166 -49q-137 0 -221 99t-84 261t84 261t221 99q136 0 220 -99t84 -261q0 -123 -51 -214l65 -138v-7zM339 125q74 0 118.5 61.5t44.5 163.5q0 101 -44.5 162.5t-118.5 61.5t-118.5 -61.5t-44.5 -162.5q0 -102 44.5 -163.5t118.5 -61.5z" />
    <glyph glyph-name="R" unicode="R" horiz-adv-x="585" 
d="M563 0h-149l-113 232h-93v-232h-142v700h248q100 0 161 -65.5t61 -173.5q0 -142 -105 -200l132 -252v-9zM206 355h107q39 0 62.5 30t23.5 79q0 48 -23.5 77t-62.5 29h-107v-215z" />
    <glyph glyph-name="S" unicode="S" horiz-adv-x="548" 
d="M34 212h135q2 -45 33 -68t74 -23q102 0 102 85q0 23 -8.5 39.5t-18 25t-29.5 14.5t-30.5 7.5t-32.5 3.5q-106 9 -161.5 63t-55.5 137q0 98 62.5 156t165.5 58q96 0 162 -51t66 -160h-132q-3 40 -30 61t-65 21q-37 0 -63.5 -22t-26.5 -60q0 -42 25.5 -60t76.5 -25
q235 -27 235 -208q0 -114 -68.5 -165t-172.5 -51q-100 0 -171.5 57t-71.5 165z" />
    <glyph glyph-name="T" unicode="T" horiz-adv-x="471" 
d="M15 700h441v-130h-151v-570h-138v570h-152v130z" />
    <glyph glyph-name="U" unicode="U" horiz-adv-x="600" 
d="M301 -9q-109 0 -174.5 66.5t-65.5 175.5v467h142v-464q0 -51 27 -82t72 -31q44 0 70.5 31t26.5 82v464h140v-467q0 -109 -65.5 -175.5t-172.5 -66.5z" />
    <glyph glyph-name="V" unicode="V" horiz-adv-x="606" 
d="M302 241l36 133l117 326h147v-20l-264 -687h-71l-262 687v20h148l111 -325z" />
    <glyph glyph-name="W" unicode="W" horiz-adv-x="859" 
d="M594 254h1q12 105 36 205l67 241h147v-22l-203 -685h-95l-116 394h-2l-113 -394h-99l-203 685v22h147l70 -241q28 -123 38 -205h1l114 429h91z" />
    <glyph glyph-name="X" unicode="X" horiz-adv-x="577" 
d="M289 470h1q22 62 38 94l70 136h151v-22l-175 -308l196 -349v-21h-152l-87 161q-29 57 -42 97h-1q-16 -47 -42 -95l-86 -163h-153v21l197 349l-177 308v22h153l70 -137q22 -47 39 -93z" />
    <glyph glyph-name="Y" unicode="Y" horiz-adv-x="563" 
d="M281 414h3q20 71 53 142l67 144h150v-22l-201 -398v-280h-142v280l-202 398v22h152l68 -149q29 -65 52 -137z" />
    <glyph glyph-name="Z" unicode="Z" horiz-adv-x="516" 
d="M486 134v-134h-468v21l264 548h-241v131h442v-22l-258 -544h261z" />
    <glyph glyph-name="bracketleft" unicode="[" horiz-adv-x="294" 
d="M186 657v-723h75v-125h-198v961h198v-113h-75z" />
    <glyph glyph-name="backslash" unicode="\" horiz-adv-x="457" 
d="M309 1l-287 699h126l287 -699h-126z" />
    <glyph glyph-name="bracketright" unicode="]" horiz-adv-x="294" 
d="M231 770v-961h-198v125h76v723h-76v113h198z" />
    <glyph glyph-name="asciicircum" unicode="^" horiz-adv-x="489" 
d="M451 402h-115l-92 186l-90 -186h-115l158 305h95z" />
    <glyph glyph-name="underscore" unicode="_" horiz-adv-x="523" 
d="M474 -12v-120h-425v120h425z" />
    <glyph glyph-name="grave" unicode="`" horiz-adv-x="298" 
d="M137 553l-81 110v12l121 47l67 -156v-13h-107z" />
    <glyph glyph-name="a" unicode="a" horiz-adv-x="469" 
d="M309 74q-17 -42 -56 -63t-81 -21q-67 0 -108 42.5t-41 113.5t43.5 114t115.5 43q55 0 100 -25v38q0 35 -27.5 53t-67.5 18q-66 2 -111 -27l-24 91q73 41 158 41q200 0 200 -180v-172q0 -35 8.5 -49.5t35.5 -12.5l1 -78q-33 -6 -64.5 -7t-55.5 20t-26 61zM281 191
q-36 22 -75 22q-23 0 -38.5 -16.5t-15.5 -42.5q0 -25 14 -40t40 -15q32 0 52.5 23t22.5 69z" />
    <glyph glyph-name="b" unicode="b" horiz-adv-x="497" 
d="M182 730v-260q42 22 89 22q89 0 142.5 -67t53.5 -178q0 -116 -66 -186.5t-174 -70.5q-87 1 -176 38v702h131zM179 357v-242q29 -14 63 -12q43 1 68 38t25 103q0 61 -26 98t-70 37q-31 0 -60 -22z" />
    <glyph glyph-name="c" unicode="c" horiz-adv-x="480" 
d="M454 308h-125q-8 31 -30.5 46t-49.5 15q-39 0 -63 -34.5t-24 -91.5q0 -60 24.5 -96.5t65.5 -36.5q26 0 47.5 19t30.5 56h125q-11 -97 -67.5 -146t-135.5 -49q-100 0 -161 69.5t-61 183.5q0 112 60.5 180.5t159.5 68.5q76 0 134.5 -47.5t69.5 -136.5z" />
    <glyph glyph-name="d" unicode="d" 
d="M346 81q-17 -43 -51.5 -67t-74.5 -24q-87 0 -138 68.5t-51 182.5q0 116 56.5 183.5t138.5 67.5q54 0 92 -23v262h132v-571q0 -40 8.5 -58t35.5 -12l-1 -91q-141 -37 -147 82zM322 222v129q-30 22 -64 22q-42 0 -67.5 -33t-25.5 -97q0 -57 23.5 -93t59.5 -36q34 0 54 30.5
t20 77.5z" />
    <glyph glyph-name="e" unicode="e" horiz-adv-x="467" 
d="M246 492q112 0 160.5 -77.5t21.5 -202.5h-266q6 -108 119 -108q70 0 132 31l14 -102q-78 -43 -161 -43q-105 0 -170.5 69t-65.5 188q0 118 63.5 181.5t152.5 63.5zM163 302h156q2 43 -19.5 63t-53.5 20q-31 0 -54 -21.5t-29 -61.5z" />
    <glyph glyph-name="f" unicode="f" horiz-adv-x="352" 
d="M15 382v99h74l1 61q0 100 46 148.5t118 48.5q55 0 109 -24l-13 -103q-32 17 -65 15q-67 0 -67 -88v-58h124v-99h-124v-382h-130v382h-73z" />
    <glyph glyph-name="g" unicode="g" horiz-adv-x="496" 
d="M317 -29v50q-40 -30 -101 -30q-83 0 -134.5 71t-51.5 183q0 114 65.5 181.5t172.5 65.5q86 0 177 -44v-472q0 -57 -14.5 -100.5t-36 -68.5t-51 -41t-55.5 -21t-54 -5q-104 0 -188 63l32 99q71 -51 147 -51q92 0 92 120zM316 136v231q-29 10 -62 10q-41 0 -66.5 -36
t-25.5 -96q0 -65 22.5 -99.5t62.5 -34.5q39 0 69 25z" />
    <glyph glyph-name="h" unicode="h" horiz-adv-x="511" 
d="M329 0v279q2 45 -16.5 73.5t-49.5 28.5q-32 1 -55 -27.5t-23 -77.5v-276h-133v730h133v-300q45 62 117 62q161 0 161 -213v-279h-134z" />
    <glyph glyph-name="i" unicode="i" horiz-adv-x="238" 
d="M42 630q0 39 23 59.5t55 20.5q31 0 53.5 -21.5t22.5 -58.5q0 -38 -22 -59t-53 -22q-32 0 -55.5 21t-23.5 60zM53 0v482h132v-482h-132z" />
    <glyph glyph-name="j" unicode="j" horiz-adv-x="236" 
d="M40 630q0 38 23 59t54 21t54 -21t23 -59q0 -36 -21.5 -58t-56.5 -22t-55.5 22t-20.5 58zM183 482l-1 -539q0 -203 -156 -203q-24 0 -61 8l4 104q14 -3 25 -3q32 0 45.5 23t13.5 73v537h130z" />
    <glyph glyph-name="k" unicode="k" horiz-adv-x="482" 
d="M460 1h-136l-88 196q-21 -4 -53 -2v-194h-131v730h131v-426h23q116 0 107 177h125q7 -172 -90 -244l112 -223v-14z" />
    <glyph glyph-name="l" unicode="l" horiz-adv-x="259" 
d="M179 732v-551q0 -44 12 -63t39 -19q12 0 27 4l3 -105q-29 -8 -69 -8q-142 0 -142 191v551h130z" />
    <glyph glyph-name="m" unicode="m" horiz-adv-x="773" 
d="M591 0v289q0 91 -60 91q-28 0 -47 -23.5t-19 -68.5v-288h-130v288q0 92 -64 92q-29 0 -50 -24.5t-21 -70.5v-285h-131v334q0 39 -7.5 50.5t-39.5 9.5v85q22 8 49 11t55.5 -0.5t47.5 -22.5t19 -52q17 37 51.5 57t73.5 20q97 0 128 -88q18 43 55 65.5t81 22.5
q82 0 112 -52.5t30 -150.5v-289h-133z" />
    <glyph glyph-name="n" unicode="n" horiz-adv-x="527" 
d="M346 0v289q0 47 -19 70t-49 23q-33 0 -55.5 -24t-22.5 -72v-286h-132v333q0 37 -8.5 50t-36.5 13v87q25 6 50.5 7.5t54 -2t47 -21.5t19.5 -49q20 36 55.5 55t73.5 19q156 0 156 -203v-289h-133z" />
    <glyph glyph-name="o" unicode="o" horiz-adv-x="499" 
d="M470 243q0 -114 -60.5 -183.5t-158.5 -69.5q-100 0 -161 69.5t-61 183.5q0 112 61 180.5t161 68.5q98 0 158.5 -68.5t60.5 -180.5zM161 243q0 -60 24.5 -95.5t65.5 -35.5q40 0 64 35.5t24 95.5q0 57 -24 91.5t-64 34.5q-41 0 -65.5 -34.5t-24.5 -91.5z" />
    <glyph glyph-name="p" unicode="p" 
d="M177 408q41 84 128 84q85 0 133.5 -65t48.5 -182q0 -114 -52.5 -184.5t-136.5 -70.5q-49 0 -96 25v-262h-131v566q0 21 -1 32.5t-5.5 22.5t-14.5 15t-26 3v93q23 6 46 7t48 -4.5t41 -25.5t18 -54zM199 256v-125q28 -23 67 -23q42 0 65 37t23 100q0 58 -22 90.5t-60 32.5
q-32 0 -52.5 -34t-20.5 -78z" />
    <glyph glyph-name="q" unicode="q" horiz-adv-x="500" 
d="M317 -252v266q-39 -24 -88 -24q-89 0 -144 68.5t-55 181.5q0 114 66.5 183t175.5 69q90 0 177 -42v-702h-132zM320 131v235q-27 11 -53 11q-49 0 -77 -35.5t-28 -101.5q0 -60 26.5 -95.5t68.5 -35.5q31 0 63 22z" />
    <glyph glyph-name="r" unicode="r" horiz-adv-x="403" 
d="M194 415q32 77 113 77q52 2 93 -36l-38 -108q-29 22 -71 22q-41 0 -67 -29.5t-26 -86.5v-254h-129v338q0 32 -10.5 48t-36.5 11v86q32 6 69 8.5t68 -17.5t35 -59z" />
    <glyph glyph-name="s" unicode="s" horiz-adv-x="434" 
d="M28 150h130q1 -26 16.5 -42.5t40.5 -16.5q27 0 43 13t16 37q0 44 -51 52q-37 6 -64 14t-58 23.5t-48 43.5t-17 67q0 69 49 110t130 41q77 0 129.5 -40t48.5 -112h-117q-2 21 -18 34t-40 13t-38.5 -11.5t-14.5 -32.5q0 -40 53 -47q45 -6 70 -12.5t57 -22t47 -45t15 -73.5
q0 -69 -51 -111t-135 -42q-92 0 -141.5 43t-51.5 117z" />
    <glyph glyph-name="t" unicode="t" horiz-adv-x="373" 
d="M344 482v-104h-129v-187q0 -89 73 -91q33 -2 62 11l12 -102q-62 -19 -109 -19q-76 0 -121.5 47.5t-45.5 150.5v190l-75 8v96h79l14 149h111v-149h129z" />
    <glyph glyph-name="u" unicode="u" 
d="M450 482v-337q0 -35 9 -47.5t35 -10.5v-87q-24 -7 -49.5 -9t-51.5 2.5t-43 24t-17 52.5q-41 -80 -129 -80q-156 0 -156 206v286h133v-286q0 -96 62 -96q33 0 54 27t21 79v276h132z" />
    <glyph glyph-name="v" unicode="v" horiz-adv-x="481" 
d="M7 466v16h140l67 -171q17 -53 29 -113q8 40 27 113l63 171h139v-16l-201 -474h-60z" />
    <glyph glyph-name="w" unicode="w" horiz-adv-x="669" 
d="M12 466v16h142l44 -141q15 -54 23 -110h2l84 240h57l83 -240h3q17 90 23 110l43 141h142v-16l-170 -473h-54l-99 245l-96 -245h-58z" />
    <glyph glyph-name="x" unicode="x" horiz-adv-x="467" 
d="M457 0h-144l-54 90q-9 16 -27 58q-18 -42 -27 -58l-54 -90h-145v7l153 247l-134 221v7h144l41 -67q11 -20 29 -60q13 34 28 60l41 67h140v-7l-137 -227l146 -241v-7z" />
    <glyph glyph-name="y" unicode="y" horiz-adv-x="486" 
d="M470 466l-160 -533q-28 -94 -71.5 -142t-110.5 -48q-43 0 -97 23l20 106q21 -12 57 -12q25 0 37.5 19.5t29.5 69.5l11 36l-176 487v10h142l61 -196q19 -64 33 -149q16 98 32 148l60 197h132v-16z" />
    <glyph glyph-name="z" unicode="z" horiz-adv-x="406" 
d="M210 121h167v-121h-359v11l170 355h-150v116h338v-8z" />
    <glyph glyph-name="braceleft" unicode="{" horiz-adv-x="290" 
d="M253 781v-100q-26 0 -40 -11t-14 -43v-176q0 -50 -18.5 -88t-53.5 -55q35 -14 53.5 -48.5t18.5 -79.5v-190q0 -38 7 -53.5t30 -15.5q10 0 17 1v-112q-29 0 -43 0.5t-37 3t-34 8.5t-25.5 17t-21 27.5t-11.5 41t-5 57.5q0 34 -0.5 101.5t-0.5 101.5q0 33 -11 61t-36 28v103
q47 4 47 84q0 23 -1 70t-0.5 68.5t2.5 57.5t9 54t19 39t31.5 31.5t46.5 13.5q23 3 71 3z" />
    <glyph glyph-name="bar" unicode="|" horiz-adv-x="246" 
d="M183 -87h-120v796h120v-796z" />
    <glyph glyph-name="braceright" unicode="}" horiz-adv-x="290" 
d="M37 681v100q36 0 55 -1t46.5 -9t41.5 -22.5t24.5 -44t10.5 -72.5q0 -18 -1 -63.5t-1 -75t2 -61t8 -44.5q12 -27 39 -28v-103q-47 0 -47 -89q0 -25 0.5 -66.5t1 -64.5t-1 -57t-5 -53t-11 -42t-19 -36t-29 -23t-40.5 -13t-74 -3v112q7 -1 17 -1q38 0 38 50v209
q0 101 70 128q-33 14 -51.5 48t-18.5 76v175q0 43 -13 58.5t-42 15.5z" />
    <glyph glyph-name="asciitilde" unicode="~" horiz-adv-x="555" 
d="M127 264l-79 45q15 63 56.5 98.5t97.5 33.5q33 -1 82 -28l30 -16q29 -15 38 -19q52 -21 73 48q20 -8 47 -23t40 -21q-45 -140 -146 -131q-37 3 -115 41q-44 21 -49 22q-50 11 -75 -50z" />
    <glyph glyph-name="exclamdown" unicode="&#xa1;" horiz-adv-x="250" 
d="M125 489q32 0 54.5 -21.5t22.5 -54.5t-22 -54.5t-55 -21.5q-34 0 -55.5 20.5t-21.5 55.5q0 34 22 55t55 21zM49 -226l9 506h134l11 -506h-154z" />
    <glyph glyph-name="cent" unicode="&#xa2;" horiz-adv-x="499" 
d="M338 305q-9 31 -25 47l-62 -240q29 -6 53 13t35 62q21 0 62 -0.5t63 -0.5q-14 -103 -88.5 -158.5t-162.5 -33.5l-21 -74h-58l26 91q-122 66 -122 231q0 131 80 200t184 49l22 74h55l-27 -91q94 -51 109 -168q-21 0 -62 -0.5t-61 -0.5zM202 136l61 236q-39 3 -66.5 -33
t-27.5 -97q0 -65 33 -106z" />
    <glyph glyph-name="sterling" unicode="&#xa3;" horiz-adv-x="568" 
d="M507 663l-42 -107q-53 35 -123 35q-60 0 -91 -48.5t-22 -144.5h179v-94h-168q4 -21 4 -46q0 -78 -32 -138q17 14 45 14q21 0 62.5 -10.5t57.5 -10.5q25 0 36.5 19t8.5 72h110q7 -49 4 -74q-4 -63 -36.5 -100.5t-95.5 -37.5q-23 0 -84 14.5t-90 14.5q-35 0 -54 -22h-135
v13q39 41 55 85t17 102q1 33 -9 105h-68v94h57q-8 85 9 147.5t54 97.5t84 51t106 16q76 0 161 -47z" />
    <glyph glyph-name="currency" unicode="&#xa4;" horiz-adv-x="474" 
d="M396 337q0 -49 -18 -93l46 -48l-69 -68l-47 47q-35 -23 -73 -23t-73 23l-46 -47l-69 68l46 49q-14 32 -14 92q0 54 16 92l-45 48l69 69l47 -47q35 23 73 23q37 0 72 -23l47 47l69 -69l-47 -48q16 -41 16 -92zM176 337q0 -36 17.5 -59t43.5 -23t44 21t18 61q0 38 -18 60.5
t-44 22.5t-43.5 -21.5t-17.5 -61.5z" />
    <glyph glyph-name="yen" unicode="&#xa5;" horiz-adv-x="538" 
d="M199 119h-111v82h111v50h-111v82h85l-147 359v8h151l70 -195l24 -89l24 88l67 196h150v-7l-148 -360h86v-82h-111v-50h111v-82h-111v-119h-140v119z" />
    <glyph glyph-name="brokenbar" unicode="&#xa6;" horiz-adv-x="244" 
d="M182 387h-120v322h120v-322zM182 -21h-120v326h120v-326z" />
    <glyph glyph-name="section" unicode="&#xa7;" horiz-adv-x="549" 
d="M110 408q-61 42 -61 123q0 89 63.5 138t154.5 49q85 0 152 -47.5t67 -136.5h-127q-2 37 -27 54t-62 17q-34 0 -60.5 -16.5t-26.5 -55.5q0 -31 23 -45.5t60 -18t76.5 -7.5t79.5 -23t63 -56q22 -35 22 -96q0 -74 -53 -125q53 -41 53 -128q0 -47 -21.5 -83.5t-56.5 -57.5
t-74 -32t-79 -12q-97 0 -166.5 47.5t-67.5 140.5q22 0 64.5 0.5t64.5 0.5q2 -38 34.5 -59.5t68.5 -17.5q38 0 68 18.5t30 54.5q0 40 -22.5 55.5t-59.5 20.5l-32 3q-86 0 -146.5 42.5t-62.5 125.5q0 82 61 127zM343 204q40 28 40 78q0 42 -33.5 59t-116.5 27l-17 3
q-42 -25 -42 -76q1 -37 25.5 -55.5t75.5 -25.5l39 -5q19 -2 29 -5z" />
    <glyph glyph-name="dieresis" unicode="&#xa8;" horiz-adv-x="520" 
d="M136 568q-31 0 -52.5 19.5t-21.5 52.5q0 32 21 52t53 20q31 0 52.5 -19t21.5 -53q0 -33 -21.5 -52.5t-52.5 -19.5zM364 568q-31 0 -52 19.5t-21 52.5q0 32 21 52t52 20t52.5 -19.5t21.5 -52.5q0 -32 -21.5 -52t-52.5 -20z" />
    <glyph glyph-name="copyright" unicode="&#xa9;" horiz-adv-x="669" 
d="M630 350q0 -156 -81 -251t-213 -95q-133 0 -215 95t-82 251q0 155 82 250t215 95q132 0 213 -95t81 -250zM132 350q0 -117 57 -189t147 -72t145.5 72t55.5 189t-55.5 189t-145.5 72t-147 -72t-57 -189zM474 394l-77 -1q-11 46 -57 46q-28 0 -46 -25t-18 -65
q0 -42 18.5 -69.5t47.5 -27.5q18 0 34 15t22 41l77 -1q-8 -65 -44.5 -97.5t-88.5 -32.5q-66 0 -107 48t-41 124q0 75 40.5 121t106.5 46q50 0 87.5 -31.5t45.5 -90.5z" />
    <glyph glyph-name="ordfeminine" unicode="&#xaa;" horiz-adv-x="379" 
d="M239 401q-11 -28 -41 -42t-60 -14q-51 0 -81.5 29.5t-30.5 80.5q0 54 33 85t88 31q38 0 71 -23v29q0 29 -22 42t-46 13q-48 0 -81 -20l-15 71q52 27 112 27q66 0 109 -32.5t43 -107.5v-95v-16.5v-15.5t0.5 -12.5t2 -11t4.5 -7.5t7.5 -5.5t11.5 -0.5v-57q-105 -28 -105 52
zM217 483q-23 20 -54 20q-19 -2 -30.5 -13.5t-11.5 -28.5t10.5 -28t27.5 -11q24 0 41 17.5t17 43.5zM341 283v-92h-298v92h298z" />
    <glyph glyph-name="guillemotleft" unicode="&#xab;" horiz-adv-x="442" 
d="M230 137l-66 -33l-131 242l131 244l66 -32l-82 -212zM400 137l-66 -33l-131 242l131 244l66 -32l-82 -212z" />
    <glyph glyph-name="logicalnot" unicode="&#xac;" horiz-adv-x="491" 
d="M432 396v-273h-106v153h-275v120h381z" />
    <glyph glyph-name="registered" unicode="&#xae;" horiz-adv-x="669" 
d="M630 350q0 -156 -81 -251t-213 -95q-133 0 -215 95t-82 251q0 155 82 250t215 95q132 0 213 -95t81 -250zM132 350q0 -117 57 -189t147 -72t145.5 72t55.5 189t-55.5 189t-145.5 72t-147 -72t-57 -189zM466 189h-79l-51 106h-28v-106h-77v325h124q47 0 76 -29t29 -84
q0 -76 -49 -94l55 -103v-15zM308 362h36q38 0 38 40t-35 40h-39v-80z" />
    <glyph glyph-name="overscore" unicode="&#xaf;" horiz-adv-x="436" 
d="M355 698v-107h-277v107h277z" />
    <glyph glyph-name="degree" unicode="&#xb0;" horiz-adv-x="376" 
d="M344 544q0 -72 -45 -118t-106 -50q-64 -4 -112.5 41t-48.5 127q0 73 44 118.5t107 49.5q64 4 112.5 -41t48.5 -127zM128 544q0 -34 16.5 -54.5t39.5 -22.5q25 -2 43.5 18.5t18.5 58.5q0 34 -16.5 54.5t-39.5 22.5q-25 2 -43.5 -18.5t-18.5 -58.5z" />
    <glyph glyph-name="plusminus" unicode="&#xb1;" horiz-adv-x="436" 
d="M165 422v130h104v-130h112v-114h-112v-128h-104v128h-110v114h110zM381 129v-113h-328v113h328z" />
    <glyph glyph-name="twosuperior" unicode="&#xb2;" horiz-adv-x="347" 
d="M300 320h-256v23l138 217q23 32 20.5 67.5t-33.5 35.5q-38 0 -38 -46h-83q-2 65 30.5 101.5t90.5 36.5q48 0 79 -23.5t39.5 -57.5t2.5 -72.5t-25 -68.5l-76 -123h111v-90z" />
    <glyph glyph-name="threesuperior" unicode="&#xb3;" horiz-adv-x="343" 
d="M35 450h88q-1 -21 11.5 -33.5t32.5 -12.5t32 15t12 40q0 67 -66 61q-7 0 -25 -2v14l55 130h-125v86h247v-15l-73 -155q84 -17 84 -118q0 -67 -38.5 -107.5t-101.5 -40.5q-59 0 -95 37.5t-38 100.5z" />
    <glyph glyph-name="acute" unicode="&#xb4;" horiz-adv-x="269" 
d="M38 566l67 156l121 -47v-12l-81 -110h-107v13z" />
    <glyph glyph-name="mu" unicode="&#xb5;" horiz-adv-x="523" 
d="M351 0l-13 58q-7 -33 -28 -50.5t-49 -17.5q-51 0 -72 48v-288h-126v733h126v-284q0 -44 19 -71.5t49 -27.5q78 0 78 122v261h126v-483h-110z" />
    <glyph glyph-name="paragraph" unicode="&#xb6;" horiz-adv-x="677" 
d="M471 572h-113v-788h-130v394q-89 2 -141.5 65t-58.5 156q-4 73 16 139.5t71 113.5t125 47h363v-915h-132v788z" />
    <glyph glyph-name="middot" unicode="&#xb7;" horiz-adv-x="241" 
d="M120 282q-34 0 -55.5 20t-21.5 57q0 35 22 56t55 21q34 0 56 -20t22 -57q0 -34 -22.5 -55.5t-55.5 -21.5z" />
    <glyph glyph-name="cedilla" unicode="&#xb8;" horiz-adv-x="346" 
d="M233 14l-13 -61q57 -9 62 -72q3 -48 -23 -79.5t-68 -37.5q-64 -11 -120 29l8 77q10 -10 43 -18q17 -5 28 -2q16 3 21 21q5 26 -16 38.5t-41 12.5l22 92h97z" />
    <glyph glyph-name="onesuperior" unicode="&#xb9;" horiz-adv-x="300" 
d="M106 405v259h-52v84h151v-343h61v-85h-220v85h60z" />
    <glyph glyph-name="ordmasculine" unicode="&#xba;" horiz-adv-x="383" 
d="M365 528q0 -84 -46.5 -134t-122.5 -50q-78 0 -124.5 50t-46.5 134q0 83 46.5 133t124.5 50q76 0 122.5 -50.5t46.5 -132.5zM129 528q0 -41 18.5 -65.5t48.5 -24.5t48 24.5t18 65.5t-18 66t-48 25t-48.5 -25t-18.5 -66zM344 283v-92h-308v92h308z" />
    <glyph glyph-name="guillemotright" unicode="&#xbb;" horiz-adv-x="443" 
d="M107 590l132 -244l-132 -242l-65 33l82 209l-82 212zM277 590l132 -244l-132 -242l-65 33l82 209l-82 212z" />
    <glyph glyph-name="onequarter" unicode="&#xbc;" horiz-adv-x="790" 
d="M595 700l-327 -699h-96l327 699h96zM95 368v251h-50v80h145v-331h58v-77h-211v77h58zM620 0v80h-170v47l144 301h119v-264h48v-84h-48v-80h-93zM632 322h-1l-69 -158h65v70z" />
    <glyph glyph-name="onehalf" unicode="&#xbd;" horiz-adv-x="791" 
d="M594 700l-327 -699h-96l327 699h96zM94 361v257h-50v81h145v-338h59v-77h-212v77h58zM760 0h-256v23l138 217q23 32 20.5 67.5t-33.5 35.5q-38 0 -38 -46h-83q-2 65 30.5 101.5t90.5 36.5q48 0 79 -23.5t39.5 -57.5t2.5 -72.5t-25 -68.5l-76 -123h111v-90z" />
    <glyph glyph-name="threequarters" unicode="&#xbe;" horiz-adv-x="828" 
d="M31 405h88q-1 -21 11.5 -33.5t32.5 -12.5t32 15t12 40q0 67 -66 61q-7 0 -25 -2v14l55 130h-125v86h247v-15l-73 -155q84 -17 84 -118q0 -67 -38.5 -107.5t-101.5 -40.5q-59 0 -95 37.5t-38 100.5zM633 700l-327 -699h-96l327 699h96zM658 0v80h-170v47l144 301h119v-264
h48v-84h-48v-80h-93zM670 322h-1l-69 -158h65v70z" />
    <glyph glyph-name="questiondown" unicode="&#xbf;" horiz-adv-x="436" 
d="M219 497q33 0 55.5 -21t22.5 -55t-22.5 -55.5t-55.5 -21.5t-54.5 21t-21.5 56t21 55.5t55 20.5zM154 296h132q1 -19 -0.5 -36t-7.5 -34.5t-9 -27.5t-14.5 -28.5t-14 -23t-17.5 -26t-16 -22.5q-32 -40 -40 -75q-8 -32 -1 -65q12 -54 49 -54q10 0 25 5q53 21 54 73h117
q0 -99 -51.5 -154.5t-135.5 -57.5q-86 -4 -141 48.5t-55 157.5q0 30 10 60t20 47.5t33 50.5t30 45q34 54 33 117z" />
    <glyph glyph-name="Agrave" unicode="&#xc0;" horiz-adv-x="618" 
d="M187 872v12l122 47l66 -165v-13h-107zM614 0h-147l-43 116h-230l-42 -116h-148v20l270 687h71l269 -687v-20zM347 326l-38 131l-40 -132l-30 -83h139z" />
    <glyph glyph-name="Aacute" unicode="&#xc1;" horiz-adv-x="618" 
d="M248 766l66 167l122 -47v-12l-81 -121h-107v13zM614 0h-147l-43 116h-230l-42 -116h-148v20l270 687h71l269 -687v-20zM347 326l-38 131l-40 -132l-30 -83h139z" />
    <glyph glyph-name="Acircumflex" unicode="&#xc2;" horiz-adv-x="618" 
d="M310 821l-60 -74h-128v14l122 144h132l122 -145v-13h-126zM614 0h-147l-43 116h-230l-42 -116h-148v20l270 687h71l269 -687v-20zM347 326l-38 131l-40 -132l-30 -83h139z" />
    <glyph glyph-name="Atilde" unicode="&#xc3;" horiz-adv-x="618" 
d="M214 758l-71 36q45 146 174 80q32 -19 57 -15.5t32 31.5l70 -31q-11 -52 -40.5 -77.5t-61.5 -25.5q-21 0 -41 5.5t-28.5 9t-34.5 16.5q-39 19 -56 -29zM614 0h-147l-43 116h-230l-42 -116h-148v20l270 687h71l269 -687v-20zM347 326l-38 131l-40 -132l-30 -83h139z" />
    <glyph glyph-name="Adieresis" unicode="&#xc4;" horiz-adv-x="618" 
d="M194 761q-30 0 -51.5 19.5t-21.5 52.5q0 32 21 52t52 20q32 0 53 -19t21 -53q0 -33 -21.5 -52.5t-52.5 -19.5zM423 761q-31 0 -52.5 19.5t-21.5 52.5q0 32 21 52t53 20q30 0 51.5 -19.5t21.5 -52.5q0 -32 -21 -52t-52 -20zM614 0h-147l-43 116h-230l-42 -116h-148v20
l270 687h71l269 -687v-20zM347 326l-38 131l-40 -132l-30 -83h139z" />
    <glyph glyph-name="Aring" unicode="&#xc5;" horiz-adv-x="618" 
d="M152 0h-148v20l266 669q-37 10 -59 42.5t-22 76.5q0 53 33 85.5t84 32.5q52 0 85 -32.5t33 -85.5q0 -41 -20.5 -73t-54.5 -44l265 -671v-20h-147l-41 116h-234zM265 808q0 -22 11 -35.5t29 -13.5q20 0 31.5 13.5t11.5 35.5q0 20 -11.5 32t-29.5 12q-17 0 -29.5 -12.5
t-12.5 -31.5zM381 242l-72 209l-71 -209h143z" />
    <glyph glyph-name="AE" unicode="&#xc6;" horiz-adv-x="717" 
d="M4 0v22l278 676h385v-119h-200v-157h185v-117h-185v-182h209v-123h-329v169h-141l-59 -169h-143zM347 291l5 279h-1l-102 -279h98z" />
    <glyph glyph-name="Ccedilla" unicode="&#xc7;" horiz-adv-x="645" 
d="M481 253h136q-15 -115 -75 -178.5t-148 -78.5l-10 -51q60 -7 63 -69q2 -48 -25 -80.5t-69 -36.5q-68 -7 -118 31l8 77q6 -7 40 -16q16 -6 31 -0.5t19 21.5q5 27 -14 37t-40 10l16 75q-119 16 -190 111.5t-71 243.5q0 162 84 261t220 99q104 0 182 -63t95 -186h-134
q-27 114 -143 114q-73 0 -117.5 -61.5t-44.5 -163.5q0 -100 44.5 -161t117.5 -61q53 0 91 32t52 94z" />
    <glyph glyph-name="Egrave" unicode="&#xc8;" horiz-adv-x="484" 
d="M134 872v12l122 47l66 -156v-13h-107zM208 569v-142h210v-131h-210v-160h233v-136h-375v700h368v-131h-226z" />
    <glyph glyph-name="Eacute" unicode="&#xc9;" horiz-adv-x="484" 
d="M192 781l67 156l121 -47v-12l-81 -110h-107v13zM208 569v-142h210v-131h-210v-160h233v-136h-375v700h368v-131h-226z" />
    <glyph glyph-name="Ecircumflex" unicode="&#xca;" horiz-adv-x="484" 
d="M255 839l-57 -76h-123v13l117 146h127l116 -147v-12h-121zM208 569v-142h210v-131h-210v-160h233v-136h-375v700h368v-131h-226z" />
    <glyph glyph-name="Edieresis" unicode="&#xcb;" horiz-adv-x="484" 
d="M137 761q-31 0 -52.5 19.5t-21.5 52.5q0 32 21 52t53 20q31 0 52.5 -19t21.5 -53q0 -33 -21.5 -52.5t-52.5 -19.5zM365 761q-31 0 -52 19.5t-21 52.5q0 32 21 52t52 20t52.5 -19.5t21.5 -52.5q0 -32 -21.5 -52t-52.5 -20zM208 569v-142h210v-131h-210v-160h233v-136h-375
v700h368v-131h-226z" />
    <glyph glyph-name="Igrave" unicode="&#xcc;" horiz-adv-x="374" 
d="M59 867v12l121 47l67 -158v-13h-108zM337 0h-301v119h80v465h-73v116h288v-116h-73v-465h79v-119z" />
    <glyph glyph-name="Iacute" unicode="&#xcd;" horiz-adv-x="374" 
d="M121 764l67 162l121 -47v-12l-81 -116h-107v13zM337 0h-301v119h80v465h-73v116h288v-116h-73v-465h79v-119z" />
    <glyph glyph-name="Icircumflex" unicode="&#xce;" horiz-adv-x="373" 
d="M189 844l-58 -76h-122v14l117 144h127l116 -145v-13h-121zM337 0h-301v119h80v465h-73v116h287v-116h-73v-465h80v-119z" />
    <glyph glyph-name="Idieresis" unicode="&#xcf;" horiz-adv-x="374" 
d="M84 754q-31 0 -52.5 19.5t-21.5 52.5q0 32 21 52t53 20q31 0 52.5 -19t21.5 -53q0 -33 -21.5 -52.5t-52.5 -19.5zM292 754q-31 0 -52 19.5t-21 52.5q0 32 21 52t52 20t52.5 -19.5t21.5 -52.5q0 -32 -21.5 -52t-52.5 -20zM338 0h-302v119h80v465h-73v116h288v-116h-73
v-465h80v-119z" />
    <glyph glyph-name="Eth" unicode="&#xd0;" horiz-adv-x="627" 
d="M73 700h224q133 0 214 -95.5t81 -252.5q0 -158 -81 -255t-214 -97h-224v286h-60v117h60v297zM214 135h81q70 0 113 59t43 157q0 96 -43 155t-113 59h-81v-162h96v-117h-96v-151z" />
    <glyph glyph-name="Ntilde" unicode="&#xd1;" horiz-adv-x="638" 
d="M199 774l-66 33q16 48 39.5 71t59.5 25q18 0 39 -7t35.5 -14.5t28 -11.5t23 2t15.5 26l66 -30q-9 -41 -33 -68.5t-59 -29.5q-24 -2 -62.5 15.5t-42.5 18.5q-30 7 -43 -30zM206 0h-141v705h44l322 -395v390h142v-705h-42l-325 391v-386z" />
    <glyph glyph-name="Ograve" unicode="&#xd2;" horiz-adv-x="677" 
d="M207 884v12l127 46l73 -166v-11h-112zM643 350q0 -162 -84 -261t-220 -99q-137 0 -221 99t-84 261t84 261t221 99q136 0 220 -99t84 -261zM176 350q0 -102 44.5 -163.5t118.5 -61.5t118.5 61.5t44.5 163.5q0 101 -44.5 162.5t-118.5 61.5t-118.5 -61.5t-44.5 -162.5z" />
    <glyph glyph-name="Oacute" unicode="&#xd3;" horiz-adv-x="677" 
d="M269 776l72 174l126 -46v-12l-86 -129h-112v13zM643 350q0 -162 -84 -261t-220 -99q-137 0 -221 99t-84 261t84 261t221 99q136 0 220 -99t84 -261zM176 350q0 -102 44.5 -163.5t118.5 -61.5t118.5 61.5t44.5 163.5q0 101 -44.5 162.5t-118.5 61.5t-118.5 -61.5
t-44.5 -162.5z" />
    <glyph glyph-name="Ocircumflex" unicode="&#xd4;" horiz-adv-x="677" 
d="M336 841l-60 -78h-129v14l123 148h132l122 -149v-13h-127zM643 350q0 -162 -84 -261t-220 -99q-137 0 -221 99t-84 261t84 261t221 99q136 0 220 -99t84 -261zM176 350q0 -102 44.5 -163.5t118.5 -61.5t118.5 61.5t44.5 163.5q0 101 -44.5 162.5t-118.5 61.5
t-118.5 -61.5t-44.5 -162.5z" />
    <glyph glyph-name="Otilde" unicode="&#xd5;" horiz-adv-x="677" 
d="M228 783l-66 33q16 48 39.5 71t59.5 25q18 0 39 -7t35.5 -14.5t28 -11.5t23 2t15.5 26l66 -30q-9 -41 -33 -68.5t-59 -29.5q-24 -2 -62.5 15.5t-42.5 18.5q-30 7 -43 -30zM643 350q0 -162 -84 -261t-220 -99q-137 0 -221 99t-84 261t84 261t221 99q136 0 220 -99t84 -261
zM176 350q0 -102 44.5 -163.5t118.5 -61.5t118.5 61.5t44.5 163.5q0 101 -44.5 162.5t-118.5 61.5t-118.5 -61.5t-44.5 -162.5z" />
    <glyph glyph-name="Odieresis" unicode="&#xd6;" horiz-adv-x="677" 
d="M227 773q-31 0 -52.5 19.5t-21.5 52.5q0 32 21 52t53 20q31 0 52.5 -19t21.5 -53q0 -33 -21.5 -52.5t-52.5 -19.5zM455 773q-31 0 -52 19.5t-21 52.5q0 32 21 52t52 20t52.5 -19.5t21.5 -52.5q0 -32 -21.5 -52t-52.5 -20zM643 350q0 -162 -84 -261t-220 -99
q-137 0 -221 99t-84 261t84 261t221 99q136 0 220 -99t84 -261zM176 350q0 -102 44.5 -163.5t118.5 -61.5t118.5 61.5t44.5 163.5q0 101 -44.5 162.5t-118.5 61.5t-118.5 -61.5t-44.5 -162.5z" />
    <glyph glyph-name="multiply" unicode="&#xd7;" horiz-adv-x="405" 
d="M203 432l81 96l79 -83l-81 -98l81 -98l-80 -84l-80 97l-80 -96l-80 84l80 97l-81 98l79 85z" />
    <glyph glyph-name="Oslash" unicode="&#xd8;" horiz-adv-x="675" 
d="M613 742l-64 -120q92 -99 92 -272q0 -160 -90.5 -261t-212.5 -101q-55 0 -99 22l-35 -70h-66h-66v15l62 117q-99 102 -99 278q0 160 87.5 260.5t216.5 100.5q55 0 108 -24l33 69h133v-14zM214 200l167 358q-20 11 -42 11q-65 0 -112.5 -60t-49.5 -159v-28q5 -77 37 -122z
M468 492l-163 -352q17 -10 35 -10q64 0 112 61.5t48 158.5q0 83 -32 142z" />
    <glyph glyph-name="Ugrave" unicode="&#xd9;" horiz-adv-x="600" 
d="M174 875v12l122 47l62 -137q2 -5 4 -19v-13h-107zM301 -9q-99 0 -169.5 63t-70.5 179v467h142v-425q0 -61 24 -106.5t75 -45.5q44 0 70.5 37.5t26.5 114.5v425h140v-467q0 -107 -71 -174.5t-167 -67.5z" />
    <glyph glyph-name="Uacute" unicode="&#xda;" horiz-adv-x="600" 
d="M239 777l67 156l121 -47v-12l-81 -110h-107v13zM301 -9q-99 0 -169.5 63t-70.5 179v467h142v-425q0 -61 24 -106.5t75 -45.5q44 0 70.5 37.5t26.5 114.5v425h140v-467q0 -107 -71 -174.5t-167 -67.5z" />
    <glyph glyph-name="Ucircumflex" unicode="&#xdb;" horiz-adv-x="600" 
d="M298 851l-60 -78h-128v14l122 148h133l121 -149v-13h-126zM301 -9q-99 0 -169.5 63t-70.5 179v467h142v-425q0 -61 24 -106.5t75 -45.5q44 0 70.5 37.5t26.5 114.5v425h140v-467q0 -107 -71 -174.5t-167 -67.5z" />
    <glyph glyph-name="Udieresis" unicode="&#xdc;" horiz-adv-x="600" 
d="M188 759q-30 0 -51.5 19.5t-21.5 52.5q0 32 21 52t52 20t52.5 -19t21.5 -53q0 -33 -21.5 -52.5t-52.5 -19.5zM417 759q-31 0 -52.5 19.5t-21.5 52.5q0 32 21 52t53 20q30 0 51.5 -19.5t21.5 -52.5q0 -32 -21 -52t-52 -20zM301 -9q-99 0 -169.5 63t-70.5 179v467h142v-425
q0 -61 24 -106.5t75 -45.5q44 0 70.5 37.5t26.5 114.5v425h140v-467q0 -107 -71 -174.5t-167 -67.5z" />
    <glyph glyph-name="Yacute" unicode="&#xdd;" horiz-adv-x="563" 
d="M215 773l66 168l122 -47v-12l-81 -122h-107v13zM281 414h3q20 71 53 142l67 144h150v-22l-201 -398v-280h-142v280l-202 398v22h152l68 -149q29 -65 52 -137z" />
    <glyph glyph-name="Thorn" unicode="&#xde;" horiz-adv-x="559" 
d="M208 700v-91h103q102 0 164 -70t62 -186q0 -111 -63 -180.5t-163 -69.5h-103v-103h-142v700h142zM206 231h105q42 0 66.5 34.5t24.5 91.5q0 56 -24.5 90t-66.5 34h-105v-250z" />
    <glyph glyph-name="germandbls" unicode="&#xdf;" horiz-adv-x="529" 
d="M52 0v494q0 53 13.5 93.5t34 63t49 36.5t53 18.5t50.5 4.5q115 0 222 -46v-10l-92 -242q54 -13 85.5 -63t31.5 -125q0 -104 -48 -167.5t-126 -63.5q-41 0 -82 16v110q19 -6 37 -6q36 0 58 30t22 81q0 59 -34 85t-86 17v26l78 225q-21 15 -52 15q-36 0 -59 -26.5
t-23 -80.5v-11.5v-36.5t-0.5 -74t-0.5 -141.5v-221.5h-131z" />
    <glyph glyph-name="agrave" unicode="&#xe0;" horiz-adv-x="469" 
d="M120 671v11l111 43l63 -149v-12h-99zM309 74q-17 -42 -56 -63t-81 -21q-67 0 -108 42.5t-41 113.5t43.5 114t115.5 43q55 0 100 -25v38q0 35 -27.5 53t-67.5 18q-66 2 -111 -27l-24 91q73 41 158 41q200 0 200 -180v-172q0 -35 8.5 -49.5t35.5 -12.5l1 -78
q-33 -6 -64.5 -7t-55.5 20t-26 61zM281 191q-36 22 -75 22q-23 0 -38.5 -16.5t-15.5 -42.5q0 -25 14 -40t40 -15q32 0 52.5 23t22.5 69z" />
    <glyph glyph-name="aacute" unicode="&#xe1;" horiz-adv-x="469" 
d="M335 679l-76 -114h-94v13l63 146l107 -37v-8zM309 74q-17 -42 -56 -63t-81 -21q-67 0 -108 42.5t-41 113.5t43.5 114t115.5 43q55 0 100 -25v38q0 35 -27.5 53t-67.5 18q-66 2 -111 -27l-24 91q73 41 158 41q200 0 200 -180v-172q0 -35 8.5 -49.5t35.5 -12.5l1 -78
q-33 -6 -64.5 -7t-55.5 20t-26 61zM281 191q-36 22 -75 22q-23 0 -38.5 -16.5t-15.5 -42.5q0 -25 14 -40t40 -15q32 0 52.5 23t22.5 69z" />
    <glyph glyph-name="acircumflex" unicode="&#xe2;" horiz-adv-x="469" 
d="M226 625l-52 -60h-112v10l106 130h116l105 -131v-9h-110zM309 74q-17 -42 -56 -63t-81 -21q-67 0 -108 42.5t-41 113.5t43.5 114t115.5 43q55 0 100 -25v38q0 35 -27.5 53t-67.5 18q-66 2 -111 -27l-24 91q73 41 158 41q200 0 200 -180v-172q0 -35 8.5 -49.5t35.5 -12.5
l1 -78q-33 -6 -64.5 -7t-55.5 20t-26 61zM281 191q-36 22 -75 22q-23 0 -38.5 -16.5t-15.5 -42.5q0 -25 14 -40t40 -15q32 0 52.5 23t22.5 69z" />
    <glyph glyph-name="atilde" unicode="&#xe3;" horiz-adv-x="469" 
d="M136 573l-66 33q16 48 39.5 71t59.5 25q18 0 39 -7t35.5 -14.5t28 -11.5t23 2t15.5 26l66 -30q-9 -41 -33 -68.5t-59 -29.5q-24 -2 -62.5 15.5t-42.5 18.5q-30 7 -43 -30zM309 74q-17 -42 -56 -63t-81 -21q-67 0 -108 42.5t-41 113.5t43.5 114t115.5 43q55 0 100 -25v38
q0 35 -27.5 53t-67.5 18q-66 2 -111 -27l-24 91q73 41 158 41q200 0 200 -180v-172q0 -35 8.5 -49.5t35.5 -12.5l1 -78q-33 -6 -64.5 -7t-55.5 20t-26 61zM281 191q-36 22 -75 22q-23 0 -38.5 -16.5t-15.5 -42.5q0 -25 14 -40t40 -15q32 0 52.5 23t22.5 69z" />
    <glyph glyph-name="adieresis" unicode="&#xe4;" horiz-adv-x="469" 
d="M139 569q-28 0 -48.5 18.5t-20.5 49.5q0 30 19.5 49t49.5 19t50.5 -18.5t20.5 -49.5t-20.5 -49.5t-50.5 -18.5zM329 569q-30 0 -50 18.5t-20 49.5q0 30 20 49t50 19q29 0 49 -18.5t20 -49.5q0 -30 -19.5 -49t-49.5 -19zM309 74q-17 -42 -56 -63t-81 -21q-67 0 -108 42.5
t-41 113.5t43.5 114t115.5 43q55 0 100 -25v38q0 35 -27.5 53t-67.5 18q-66 2 -111 -27l-24 91q73 41 158 41q200 0 200 -180v-172q0 -35 8.5 -49.5t35.5 -12.5l1 -78q-33 -6 -64.5 -7t-55.5 20t-26 61zM281 191q-36 22 -75 22q-23 0 -38.5 -16.5t-15.5 -42.5q0 -25 14 -40
t40 -15q32 0 52.5 23t22.5 69z" />
    <glyph glyph-name="aring" unicode="&#xe5;" horiz-adv-x="469" 
d="M335 639q0 -48 -29 -76.5t-77 -28.5q-49 0 -79 28.5t-30 76.5q0 47 29.5 75.5t77.5 28.5q51 0 79.5 -28t28.5 -76zM190 639q0 -18 10.5 -29t27.5 -11t27.5 11t10.5 29t-10.5 29t-27.5 11t-27.5 -11t-10.5 -29zM309 74q-17 -42 -56 -63t-81 -21q-67 0 -108 42.5t-41 113.5
t43.5 114t115.5 43q55 0 100 -25v38q0 35 -27.5 53t-67.5 18q-66 2 -111 -27l-24 91q73 41 158 41q200 0 200 -180v-172q0 -35 8.5 -49.5t35.5 -12.5l1 -78q-33 -6 -64.5 -7t-55.5 20t-26 61zM281 191q-36 22 -75 22q-23 0 -38.5 -16.5t-15.5 -42.5q0 -25 14 -40t40 -15
q32 0 52.5 23t22.5 69z" />
    <glyph glyph-name="ae" unicode="&#xe6;" horiz-adv-x="675" 
d="M176 -10q-64 0 -107.5 41.5t-45.5 108.5q-2 75 43.5 121t121.5 46q52 0 93 -25v27q0 40 -33 59t-65 19q-63 0 -111 -31l-21 94q71 42 157 42q107 0 136 -88q22 41 58.5 64.5t78.5 23.5q58 0 95.5 -25.5t50.5 -66t16.5 -90.5t-6.5 -99h-247q6 -117 106 -119q56 -2 125 36
l16 -96q-74 -42 -157 -42q-102 0 -146 90q-57 -90 -158 -90zM392 303h137q4 81 -64 81q-27 0 -47 -21t-26 -60zM281 196q-32 22 -74 22q-26 0 -42 -18.5t-16 -45.5t15 -42t42 -15q71 0 75 99z" />
    <glyph glyph-name="ccedilla" unicode="&#xe7;" horiz-adv-x="480" 
d="M330 185h125q-9 -84 -53.5 -131.5t-109.5 -60.5l-8 -37q29 -2 45.5 -24.5t17.5 -53.5q2 -45 -25.5 -73.5t-66.5 -32.5q-63 -8 -114 29l8 75q13 -13 45 -19q38 -8 44 20q3 13 -1 22.5t-11.5 14.5t-17 8t-15 3.5t-7.5 0.5l15 69q-79 18 -125 83.5t-46 164.5
q0 112 60.5 180.5t159.5 68.5q76 0 134.5 -47.5t69.5 -136.5h-125q-8 31 -30.5 46t-49.5 15q-39 0 -63 -34.5t-24 -91.5q0 -60 24.5 -96.5t65.5 -36.5q26 0 47.5 19t30.5 56z" />
    <glyph glyph-name="egrave" unicode="&#xe8;" horiz-adv-x="467" 
d="M126 670v11l113 44l63 -146v-13h-101zM246 492q112 0 160.5 -77.5t21.5 -202.5h-266q6 -108 119 -108q70 0 132 31l14 -102q-78 -43 -161 -43q-105 0 -170.5 69t-65.5 188q0 118 63.5 181.5t152.5 63.5zM163 302h156q2 43 -19.5 63t-53.5 20q-31 0 -54 -21.5t-29 -61.5z
" />
    <glyph glyph-name="eacute" unicode="&#xe9;" horiz-adv-x="467" 
d="M175 564l70 160l113 -44v-11l-84 -117h-99v12zM246 492q112 0 160.5 -77.5t21.5 -202.5h-266q6 -108 119 -108q70 0 132 31l14 -102q-78 -43 -161 -43q-105 0 -170.5 69t-65.5 188q0 118 63.5 181.5t152.5 63.5zM163 302h156q2 43 -19.5 63t-53.5 20q-31 0 -54 -21.5
t-29 -61.5z" />
    <glyph glyph-name="ecircumflex" unicode="&#xea;" horiz-adv-x="467" 
d="M245 636l-55 -71h-118v13l112 134h122l111 -135v-12h-116zM246 492q112 0 160.5 -77.5t21.5 -202.5h-266q6 -108 119 -108q70 0 132 31l14 -102q-78 -43 -161 -43q-105 0 -170.5 69t-65.5 188q0 118 63.5 181.5t152.5 63.5zM163 302h156q2 43 -19.5 63t-53.5 20
q-31 0 -54 -21.5t-29 -61.5z" />
    <glyph glyph-name="edieresis" unicode="&#xeb;" horiz-adv-x="467" 
d="M157 564q-29 0 -48.5 17.5t-19.5 48.5q0 30 19 48.5t49 18.5q28 0 48 -18.5t20 -48.5q0 -31 -19.5 -48.5t-48.5 -17.5zM348 564q-29 0 -48.5 17.5t-19.5 48.5q0 30 19 48.5t49 18.5t49 -18.5t19 -48.5t-19.5 -48t-48.5 -18zM246 492q112 0 160.5 -77.5t21.5 -202.5h-266
q6 -108 119 -108q70 0 132 31l14 -102q-78 -43 -161 -43q-105 0 -170.5 69t-65.5 188q0 118 63.5 181.5t152.5 63.5zM163 302h156q2 43 -19.5 63t-53.5 20q-31 0 -54 -21.5t-29 -61.5z" />
    <glyph glyph-name="igrave" unicode="&#xec;" horiz-adv-x="238" 
d="M-3 665v12l118 45l64 -150v-13h-104zM53 0v482h132v-482h-132z" />
    <glyph glyph-name="iacute" unicode="&#xed;" horiz-adv-x="238" 
d="M52 575l64 150l116 -45v-12l-77 -105h-103v12zM53 0v482h132v-482h-132z" />
    <glyph glyph-name="icircumflex" unicode="&#xee;" horiz-adv-x="238" 
d="M121 623l-51 -71h-108v14l103 144h112l102 -145v-13h-107zM53 0v482h132v-482h-132z" />
    <glyph glyph-name="idieresis" unicode="&#xef;" horiz-adv-x="238" 
d="M27 571q-28 0 -48.5 19t-20.5 50t20 50t49 19t49.5 -18.5t20.5 -50.5q0 -31 -20.5 -50t-49.5 -19zM206 571q-29 0 -48.5 19t-19.5 50q0 32 19 50.5t49 18.5t50 -19t20 -50t-20 -50t-50 -19zM53 0v482h132v-482h-132z" />
    <glyph glyph-name="eth" unicode="&#xf0;" horiz-adv-x="504" 
d="M379 633l-48 -32q142 -179 142 -361q0 -112 -61 -180.5t-161 -68.5t-161 68.5t-61 179.5q0 105 53.5 169.5t141.5 64.5q43 0 64 -21q-23 49 -49 89l-47 -31l-32 52l46 30q-32 45 -84 101v7h116q33 -31 54 -53l55 35zM251 110q41 0 65.5 35.5t24.5 93.5q0 51 -27.5 86
t-62.5 35q-42 0 -66.5 -33t-24.5 -88q0 -58 24.5 -93.5t66.5 -35.5z" />
    <glyph glyph-name="ntilde" unicode="&#xf1;" horiz-adv-x="527" 
d="M177 581l-66 33q16 48 39.5 71t59.5 25q18 0 39 -7t35.5 -14.5t28 -11.5t23 2t15.5 26l66 -30q-9 -41 -33 -68.5t-59 -29.5q-24 -2 -62.5 15.5t-42.5 18.5q-30 7 -43 -30zM346 0v289q0 47 -19 70t-49 23q-33 0 -55.5 -24t-22.5 -72v-286h-132v333q0 37 -8.5 50t-36.5 13
v87q25 6 50.5 7.5t54 -2t47 -21.5t19.5 -49q20 36 55.5 55t73.5 19q156 0 156 -203v-289h-133z" />
    <glyph glyph-name="ograve" unicode="&#xf2;" horiz-adv-x="499" 
d="M130 669v11l116 44l65 -146v-12h-103zM470 243q0 -114 -60.5 -183.5t-158.5 -69.5q-100 0 -161 69.5t-61 183.5q0 112 61 180.5t161 68.5q98 0 158.5 -68.5t60.5 -180.5zM161 243q0 -60 24.5 -95.5t65.5 -35.5q40 0 64 35.5t24 95.5q0 57 -24 91.5t-64 34.5
q-41 0 -65.5 -34.5t-24.5 -91.5z" />
    <glyph glyph-name="oacute" unicode="&#xf3;" horiz-adv-x="499" 
d="M363 661l-78 -102h-103v12l64 145l117 -44v-11zM470 243q0 -114 -60.5 -183.5t-158.5 -69.5q-100 0 -161 69.5t-61 183.5q0 112 61 180.5t161 68.5q98 0 158.5 -68.5t60.5 -180.5zM161 243q0 -60 24.5 -95.5t65.5 -35.5q40 0 64 35.5t24 95.5q0 57 -24 91.5t-64 34.5
q-41 0 -65.5 -34.5t-24.5 -91.5z" />
    <glyph glyph-name="ocircumflex" unicode="&#xf4;" horiz-adv-x="499" 
d="M248 618l-55 -65h-118v13l113 132h121l111 -133v-12h-116zM470 243q0 -114 -60.5 -183.5t-158.5 -69.5q-100 0 -161 69.5t-61 183.5q0 112 61 180.5t161 68.5q98 0 158.5 -68.5t60.5 -180.5zM161 243q0 -60 24.5 -95.5t65.5 -35.5q40 0 64 35.5t24 95.5q0 57 -24 91.5
t-64 34.5q-41 0 -65.5 -34.5t-24.5 -91.5z" />
    <glyph glyph-name="otilde" unicode="&#xf5;" horiz-adv-x="499" 
d="M164 575l-66 33q16 48 39.5 71t59.5 25q18 0 39 -7t35.5 -14.5t28 -11.5t23 2t15.5 26l66 -30q-9 -41 -33 -68.5t-59 -29.5q-24 -2 -62.5 15.5t-42.5 18.5q-30 7 -43 -30zM470 243q0 -114 -60.5 -183.5t-158.5 -69.5q-100 0 -161 69.5t-61 183.5q0 112 61 180.5t161 68.5
q98 0 158.5 -68.5t60.5 -180.5zM161 243q0 -60 24.5 -95.5t65.5 -35.5q40 0 64 35.5t24 95.5q0 57 -24 91.5t-64 34.5q-41 0 -65.5 -34.5t-24.5 -91.5z" />
    <glyph glyph-name="odieresis" unicode="&#xf6;" horiz-adv-x="499" 
d="M159 563q-28 0 -47.5 17.5t-19.5 47.5q0 29 19.5 47.5t47.5 18.5q27 0 47 -18.5t20 -47.5q0 -30 -19.5 -47.5t-47.5 -17.5zM356 563q-28 0 -47.5 17.5t-19.5 47.5t18.5 48t48.5 18q28 0 47.5 -18.5t19.5 -47.5t-19.5 -47t-47.5 -18zM470 243q0 -114 -60.5 -183.5
t-158.5 -69.5q-100 0 -161 69.5t-61 183.5q0 112 61 180.5t161 68.5q98 0 158.5 -68.5t60.5 -180.5zM161 243q0 -60 24.5 -95.5t65.5 -35.5q40 0 64 35.5t24 95.5q0 57 -24 91.5t-64 34.5q-41 0 -65.5 -34.5t-24.5 -91.5z" />
    <glyph glyph-name="divide" unicode="&#xf7;" horiz-adv-x="462" 
d="M232 476q-33 0 -55 20t-22 56q0 35 22 56t55 21q34 0 56 -20t22 -57q0 -34 -22.5 -55t-55.5 -21zM422 418v-120h-381v120h381zM232 91q-33 0 -55 20t-22 56q0 35 22 56t55 21q34 0 56 -20t22 -57q0 -34 -22.5 -55t-55.5 -21z" />
    <glyph glyph-name="oslash" unicode="&#xf8;" horiz-adv-x="499" 
d="M433 541l-45 -96q82 -69 82 -202q0 -114 -60.5 -183.5t-158.5 -69.5q-36 0 -72 11l-28 -60h-79l44 94q-87 68 -87 208q0 112 61 180.5t161 68.5q36 0 72 -11l28 60h82zM161 243q0 -47 15 -78l94 202q-14 2 -19 2q-41 0 -65.5 -34.5t-24.5 -91.5zM251 112q40 0 64 35.5
t24 95.5q0 39 -13 71l-94 -200q14 -2 19 -2z" />
    <glyph glyph-name="ugrave" unicode="&#xf9;" 
d="M127 657v12l115 44l64 -148v-12h-102zM450 482v-337q0 -35 9 -47.5t35 -10.5v-87q-24 -7 -49.5 -9t-51.5 2.5t-43 24t-17 52.5q-41 -80 -129 -80q-156 0 -156 206v286h133v-286q0 -96 62 -96q33 0 54 27t21 79v276h132z" />
    <glyph glyph-name="uacute" unicode="&#xfa;" 
d="M187 571l63 146l114 -44v-11l-76 -104h-101v13zM450 482v-337q0 -35 9 -47.5t35 -10.5v-87q-24 -7 -49.5 -9t-51.5 2.5t-43 24t-17 52.5q-41 -80 -129 -80q-156 0 -156 206v286h133v-286q0 -96 62 -96q33 0 54 27t21 79v276h132z" />
    <glyph glyph-name="ucircumflex" unicode="&#xfb;" 
d="M248 624l-58 -64h-122v13l117 131h126l116 -132v-12h-120zM450 482v-337q0 -35 9 -47.5t35 -10.5v-87q-24 -7 -49.5 -9t-51.5 2.5t-43 24t-17 52.5q-41 -80 -129 -80q-156 0 -156 206v286h133v-286q0 -96 62 -96q33 0 54 27t21 79v276h132z" />
    <glyph glyph-name="udieresis" unicode="&#xfc;" 
d="M143 565q-29 0 -49.5 18.5t-20.5 50.5q0 30 20 49.5t50 19.5q31 0 51 -18t20 -51q0 -31 -20.5 -50t-50.5 -19zM362 565q-29 0 -50 18.5t-21 50.5q0 30 20.5 49.5t50.5 19.5q29 0 49.5 -18.5t20.5 -50.5q0 -31 -20 -50t-50 -19zM450 482v-337q0 -35 9 -47.5t35 -10.5v-87
q-24 -7 -49.5 -9t-51.5 2.5t-43 24t-17 52.5q-41 -80 -129 -80q-156 0 -156 206v286h133v-286q0 -96 62 -96q33 0 54 27t21 79v276h132z" />
    <glyph glyph-name="yacute" unicode="&#xfd;" horiz-adv-x="486" 
d="M176 571l67 156l121 -47v-12l-81 -110h-107v13zM470 466l-160 -533q-28 -94 -71.5 -142t-110.5 -48q-43 0 -97 23l20 106q21 -12 57 -12q25 0 37.5 19.5t29.5 69.5l11 36l-176 487v10h142l61 -196q19 -64 33 -149q16 98 32 148l60 197h132v-16z" />
    <glyph glyph-name="thorn" unicode="&#xfe;" horiz-adv-x="496" 
d="M466 245q0 -114 -53.5 -184.5t-141.5 -70.5q-49 0 -87 23v-260h-132v966h132v-253q43 26 93 26q85 0 137 -68t52 -179zM333 245q0 125 -92 125q-28 0 -60 -23v-214q32 -23 65 -23q87 0 87 135z" />
    <glyph glyph-name="ydieresis" unicode="&#xff;" horiz-adv-x="486" 
d="M131 568q-31 0 -52.5 19.5t-21.5 52.5q0 32 21 52t53 20q31 0 52.5 -19t21.5 -53q0 -33 -21.5 -52.5t-52.5 -19.5zM359 568q-31 0 -52 19.5t-21 52.5q0 32 21 52t52 20t52.5 -19.5t21.5 -52.5q0 -32 -21.5 -52t-52.5 -20zM470 466l-160 -533q-28 -94 -71.5 -142
t-110.5 -48q-43 0 -97 23l20 106q21 -12 57 -12q25 0 37.5 19.5t29.5 69.5l11 36l-176 487v10h142l61 -196q19 -64 33 -149q16 98 32 148l60 197h132v-16z" />
    <glyph glyph-name="Amacron" unicode="&#x100;" horiz-adv-x="618" 
d="M446 873v-104h-277v104h277zM614 0h-147l-43 116h-230l-42 -116h-148v20l270 687h71l269 -687v-20zM347 326l-38 131l-40 -132l-30 -83h139z" />
    <glyph glyph-name="amacron" unicode="&#x101;" horiz-adv-x="469" 
d="M357 676v-99h-259v99h259zM309 74q-17 -42 -56 -63t-81 -21q-67 0 -108 42.5t-41 113.5t43.5 114t115.5 43q55 0 100 -25v38q0 35 -27.5 53t-67.5 18q-66 2 -111 -27l-24 91q73 41 158 41q200 0 200 -180v-172q0 -35 8.5 -49.5t35.5 -12.5l1 -78q-33 -6 -64.5 -7
t-55.5 20t-26 61zM281 191q-36 22 -75 22q-23 0 -38.5 -16.5t-15.5 -42.5q0 -25 14 -40t40 -15q32 0 52.5 23t22.5 69z" />
    <glyph glyph-name="Abreve" unicode="&#x102;" horiz-adv-x="618" 
d="M133 916h113q0 -32 21 -48t46 -12q58 6 59 60h112q0 -78 -52.5 -123t-123.5 -45q-70 0 -122.5 43t-52.5 125zM614 0h-147l-43 116h-230l-42 -116h-148v20l270 687h71l269 -687v-20zM347 326l-38 131l-40 -132l-30 -83h139z" />
    <glyph glyph-name="abreve" unicode="&#x103;" horiz-adv-x="469" 
d="M75 707h99q0 -26 15.5 -41.5t41.5 -15.5q24 0 39 15.5t16 41.5h98q0 -70 -42 -112.5t-111 -42.5q-70 0 -113 42.5t-43 112.5zM309 74q-17 -42 -56 -63t-81 -21q-67 0 -108 42.5t-41 113.5t43.5 114t115.5 43q55 0 100 -25v38q0 35 -27.5 53t-67.5 18q-66 2 -111 -27
l-24 91q73 41 158 41q200 0 200 -180v-172q0 -35 8.5 -49.5t35.5 -12.5l1 -78q-33 -6 -64.5 -7t-55.5 20t-26 61zM281 191q-36 22 -75 22q-23 0 -38.5 -16.5t-15.5 -42.5q0 -25 14 -40t40 -15q32 0 52.5 23t22.5 69z" />
    <glyph glyph-name="Aogonek" unicode="&#x104;" horiz-adv-x="618" 
d="M630 -105l18 -86q-57 -44 -128 -36q-55 6 -83 43t-20 87.5t50 96.5l-43 116h-230l-42 -116h-148v20l270 687h71l269 -687v-20h-44q-44 -38 -46 -86q-2 -41 33 -44q9 -1 19 1q34 7 54 24zM347 326l-38 131l-40 -132l-30 -83h139z" />
    <glyph glyph-name="aogonek" unicode="&#x105;" horiz-adv-x="470" 
d="M460 -94l19 -72q-54 -37 -113 -31q-31 3 -54.5 21.5t-31.5 51.5q-9 39 10.5 76.5t52.5 54.5q-30 19 -34 67q-17 -42 -56 -63t-81 -21q-67 0 -108 42.5t-41 113.5t43.5 114t115.5 43q55 0 100 -25v38q0 35 -27.5 53t-67.5 18q-66 2 -111 -27l-24 91q73 41 158 41
q200 0 200 -180v-172q0 -35 8.5 -49.5t35.5 -12.5l1 -78q-26 -6 -39 -7q-28 -10 -41.5 -34t-2.5 -50q14 -25 41 -23t47 20zM206 99q32 0 52.5 23t22.5 69q-36 22 -75 22q-23 0 -38.5 -16.5t-15.5 -42.5q0 -25 14 -40t40 -15z" />
    <glyph glyph-name="Cacute" unicode="&#x106;" horiz-adv-x="645" 
d="M263 776l75 169l126 -48v-12l-89 -122h-112v13zM34 349q0 162 84 261t220 99q104 0 182 -63t95 -186h-134q-27 114 -143 114q-73 0 -117.5 -61.5t-44.5 -163.5q0 -100 44.5 -161t117.5 -61q53 0 91 32t52 94h136q-17 -133 -96 -197.5t-183 -64.5q-136 0 -220 98.5
t-84 259.5z" />
    <glyph glyph-name="cacute" unicode="&#x107;" horiz-adv-x="480" 
d="M170 574l76 157l122 -43v-11l-90 -115h-108v12zM454 308h-125q-8 31 -30.5 46t-49.5 15q-39 0 -63 -34.5t-24 -91.5q0 -60 24.5 -96.5t65.5 -36.5q26 0 47.5 19t30.5 56h125q-11 -97 -67.5 -146t-135.5 -49q-100 0 -161 69.5t-61 183.5q0 112 60.5 180.5t159.5 68.5
q76 0 134.5 -47.5t69.5 -136.5z" />
    <glyph glyph-name="Ccircumflex" unicode="&#x108;" horiz-adv-x="645" 
d="M336 835l-60 -78h-128v14l122 148h133l121 -149v-13h-126zM34 349q0 162 84 261t220 99q104 0 182 -63t95 -186h-134q-27 114 -143 114q-73 0 -117.5 -61.5t-44.5 -163.5q0 -100 44.5 -161t117.5 -61q53 0 91 32t52 94h136q-17 -133 -96 -197.5t-183 -64.5
q-136 0 -220 98.5t-84 259.5z" />
    <glyph glyph-name="ccircumflex" unicode="&#x109;" horiz-adv-x="480" 
d="M250 620l-55 -62h-118v13l112 131h121l112 -132v-12h-116zM454 308h-125q-8 31 -30.5 46t-49.5 15q-39 0 -63 -34.5t-24 -91.5q0 -60 24.5 -96.5t65.5 -36.5q26 0 47.5 19t30.5 56h125q-11 -97 -67.5 -146t-135.5 -49q-100 0 -161 69.5t-61 183.5q0 112 60.5 180.5
t159.5 68.5q76 0 134.5 -47.5t69.5 -136.5z" />
    <glyph glyph-name="Cdotaccent" unicode="&#x10a;" horiz-adv-x="645" 
d="M332 763q-33 0 -55.5 21.5t-22.5 56.5t22 57.5t56 22.5t56.5 -21.5t22.5 -58.5q0 -36 -23 -57t-56 -21zM34 349q0 162 84 261t220 99q104 0 182 -63t95 -186h-134q-27 114 -143 114q-73 0 -117.5 -61.5t-44.5 -163.5q0 -100 44.5 -161t117.5 -61q53 0 91 32t52 94h136
q-17 -133 -96 -197.5t-183 -64.5q-136 0 -220 98.5t-84 259.5z" />
    <glyph glyph-name="cdotaccent" unicode="&#x10b;" horiz-adv-x="480" 
d="M249 572q-30 0 -50.5 19t-20.5 49t20.5 49t50.5 19t50.5 -18.5t20.5 -49.5t-20.5 -49.5t-50.5 -18.5zM454 308h-125q-8 31 -30.5 46t-49.5 15q-39 0 -63 -34.5t-24 -91.5q0 -60 24.5 -96.5t65.5 -36.5q26 0 47.5 19t30.5 56h125q-11 -97 -67.5 -146t-135.5 -49
q-100 0 -161 69.5t-61 183.5q0 112 60.5 180.5t159.5 68.5q76 0 134.5 -47.5t69.5 -136.5z" />
    <glyph glyph-name="Ccaron" unicode="&#x10c;" horiz-adv-x="645" 
d="M340 849l59 72h127v-13l-120 -145h-131l-120 145v13h126zM34 349q0 162 84 261t220 99q104 0 182 -63t95 -186h-134q-27 114 -143 114q-73 0 -117.5 -61.5t-44.5 -163.5q0 -100 44.5 -161t117.5 -61q53 0 91 32t52 94h136q-17 -133 -96 -197.5t-183 -64.5
q-136 0 -220 98.5t-84 259.5z" />
    <glyph glyph-name="ccaron" unicode="&#x10d;" horiz-adv-x="480" 
d="M246 633l57 66h125v-13l-118 -133h-128l-118 133v13h124zM454 308h-125q-8 31 -30.5 46t-49.5 15q-39 0 -63 -34.5t-24 -91.5q0 -60 24.5 -96.5t65.5 -36.5q26 0 47.5 19t30.5 56h125q-11 -97 -67.5 -146t-135.5 -49q-100 0 -161 69.5t-61 183.5q0 112 60.5 180.5
t159.5 68.5q76 0 134.5 -47.5t69.5 -136.5z" />
    <glyph glyph-name="Dcaron" unicode="&#x10e;" horiz-adv-x="620" 
d="M289 832l57 74h123v-12l-117 -141h-127l-116 141v12h122zM66 700h224q133 0 214 -95.5t81 -252.5q0 -158 -81 -255t-214 -97h-224v700zM207 135h81q70 0 113 59t43 157q0 96 -43 155t-113 59h-81v-430z" />
    <glyph glyph-name="dcaron" unicode="&#x10f;" 
d="M346 81q-17 -43 -51.5 -67t-74.5 -24q-87 0 -138 68.5t-51 182.5q0 116 56.5 183.5t138.5 67.5q54 0 92 -23v262h132v-571q0 -40 8.5 -58t35.5 -12l-1 -91q-141 -37 -147 82zM632 682q2 -14 2 -24l-3 -20l-5 -22q-5 -21 -18 -58.5t-16 -47.5h-72l20 80q-22 5 -37 24
t-15 45q0 32 21 52t52 20q28 0 47.5 -13t23.5 -36zM322 222v129q-30 22 -64 22q-42 0 -67.5 -33t-25.5 -97q0 -57 23.5 -93t59.5 -36q34 0 54 30.5t20 77.5z" />
    <glyph glyph-name="Dcroat" unicode="&#x110;" horiz-adv-x="627" 
d="M73 700h224q133 0 214 -95.5t81 -252.5q0 -158 -81 -255t-214 -97h-224v286h-60v117h60v297zM214 135h81q70 0 113 59t43 157q0 96 -43 155t-113 59h-81v-162h96v-117h-96v-151z" />
    <glyph glyph-name="dslash" unicode="&#x111;" 
d="M450 578v-418q0 -40 8.5 -58t35.5 -12l-1 -91q-141 -37 -147 82q-17 -43 -51.5 -67t-74.5 -24q-87 0 -138 68.5t-51 182.5q0 116 56.5 183.5t138.5 67.5q54 0 92 -23v109h-81v76h81v77h132v-77h61v-76h-61zM322 222v129q-30 22 -64 22q-42 0 -67.5 -33t-25.5 -97
q0 -57 23.5 -93t59.5 -36q34 0 54 30.5t20 77.5z" />
    <glyph glyph-name="Emacron" unicode="&#x112;" horiz-adv-x="484" 
d="M395 874v-107h-277v107h277zM208 569v-142h210v-131h-210v-160h233v-136h-375v700h368v-131h-226z" />
    <glyph glyph-name="emacron" unicode="&#x113;" horiz-adv-x="467" 
d="M375 675v-99h-259v99h259zM246 492q112 0 160.5 -77.5t21.5 -202.5h-266q6 -108 119 -108q70 0 132 31l14 -102q-78 -43 -161 -43q-105 0 -170.5 69t-65.5 188q0 118 63.5 181.5t152.5 63.5zM163 302h156q2 43 -19.5 63t-53.5 20q-31 0 -54 -21.5t-29 -61.5z" />
    <glyph glyph-name="Ebreve" unicode="&#x114;" horiz-adv-x="484" 
d="M79 926h110q0 -31 19 -46.5t45 -13.5q23 2 40 18.5t18 41.5h108q0 -75 -50.5 -120t-119.5 -45q-70 0 -120 42t-50 123zM208 569v-142h210v-131h-210v-160h233v-136h-375v700h368v-131h-226z" />
    <glyph glyph-name="ebreve" unicode="&#x115;" horiz-adv-x="467" 
d="M92 701h102q0 -26 17.5 -41t39.5 -15q21 0 38 14.5t18 41.5h100q0 -70 -49 -111.5t-108 -41.5q-64 0 -111 38.5t-47 114.5zM246 492q112 0 160.5 -77.5t21.5 -202.5h-266q6 -108 119 -108q70 0 132 31l14 -102q-78 -43 -161 -43q-105 0 -170.5 69t-65.5 188
q0 118 63.5 181.5t152.5 63.5zM163 302h156q2 43 -19.5 63t-53.5 20q-31 0 -54 -21.5t-29 -61.5z" />
    <glyph glyph-name="Edotaccent" unicode="&#x116;" horiz-adv-x="484" 
d="M254 762q-33 0 -55 20t-22 56q0 35 22 56t55 21q34 0 56 -20t22 -57q0 -34 -22.5 -55t-55.5 -21zM208 569v-142h210v-131h-210v-160h233v-136h-375v700h368v-131h-226z" />
    <glyph glyph-name="edotaccent" unicode="&#x117;" horiz-adv-x="467" 
d="M251 563q-30 0 -51 18.5t-21 49.5t20.5 49.5t51.5 18.5q32 0 52.5 -18.5t20.5 -49.5t-20.5 -49.5t-52.5 -18.5zM246 492q112 0 160.5 -77.5t21.5 -202.5h-266q6 -108 119 -108q70 0 132 31l14 -102q-78 -43 -161 -43q-105 0 -170.5 69t-65.5 188q0 118 63.5 181.5
t152.5 63.5zM163 302h156q2 43 -19.5 63t-53.5 20q-31 0 -54 -21.5t-29 -61.5z" />
    <glyph glyph-name="Eogonek" unicode="&#x118;" horiz-adv-x="481" 
d="M207 569v-142h208v-131h-208v-160h232v-136h-82q-34 -21 -38 -50q-2 -7 0 -29q9 -62 56 -52q27 5 58 28l18 -88q-59 -45 -129 -40q-82 5 -100 84q-10 31 2 66q14 49 45 81h-204v700h366v-131h-224z" />
    <glyph glyph-name="eogonek" unicode="&#x119;" horiz-adv-x="466" 
d="M245 492q83 0 131.5 -41t57.5 -117q6 -51 -7 -122h-266q4 -53 33.5 -82t78.5 -29q77 0 139 32l14 -102q-8 -5 -29.5 -13.5t-34 -15t-24.5 -22t-13 -37.5q-3 -20 5.5 -36.5t22.5 -20.5q30 -9 79 26l17 -82q-51 -40 -117 -32q-72 8 -93 80q-7 23 0 51q9 33 30 60
q-104 -6 -172 66.5t-68 191.5q2 114 63.5 179.5t152.5 65.5zM162 297h155q3 42 -19.5 65t-52.5 23q-31 0 -54.5 -23t-28.5 -65z" />
    <glyph glyph-name="Ecaron" unicode="&#x11a;" horiz-adv-x="484" 
d="M253 839l57 76h125v-13l-118 -143h-128l-118 143v13h124zM208 569v-142h210v-131h-210v-160h233v-136h-375v700h368v-131h-226z" />
    <glyph glyph-name="ecaron" unicode="&#x11b;" horiz-adv-x="467" 
d="M243 639l54 63h121v-12l-114 -129h-124l-113 129v12h119zM246 492q112 0 160.5 -77.5t21.5 -202.5h-266q6 -108 119 -108q70 0 132 31l14 -102q-78 -43 -161 -43q-105 0 -170.5 69t-65.5 188q0 118 63.5 181.5t152.5 63.5zM163 302h156q2 43 -19.5 63t-53.5 20
q-31 0 -54 -21.5t-29 -61.5z" />
    <glyph glyph-name="Gcircumflex" unicode="&#x11c;" horiz-adv-x="652" 
d="M330 840l-60 -78h-129v14l123 148h132l122 -149v-13h-127zM34 350q0 161 84 260t221 99q96 0 172 -57.5t99 -172.5h-140q-20 50 -51 72.5t-80 22.5q-73 0 -117.5 -61.5t-44.5 -162.5q0 -100 44.5 -161.5t117.5 -61.5q127 0 147 134h-144v126h279q7 -119 -17 -196
q-32 -101 -103.5 -150.5t-161.5 -49.5q-137 0 -221 99t-84 260z" />
    <glyph glyph-name="gcircumflex" unicode="&#x11d;" horiz-adv-x="496" 
d="M265 619l-56 -68h-120v14l114 138h124l114 -139v-13h-118zM317 -29v50q-40 -30 -101 -30q-83 0 -134.5 71t-51.5 183q0 114 65.5 181.5t172.5 65.5q86 0 177 -44v-472q0 -57 -14.5 -100.5t-36 -68.5t-51 -41t-55.5 -21t-54 -5q-104 0 -188 63l32 99q71 -51 147 -51
q92 0 92 120zM316 136v231q-29 10 -62 10q-41 0 -66.5 -36t-25.5 -96q0 -65 22.5 -99.5t62.5 -34.5q39 0 69 25z" />
    <glyph glyph-name="Gbreve" unicode="&#x11e;" horiz-adv-x="652" 
d="M151 937h116q0 -33 21.5 -50.5t47.5 -13.5q24 2 41.5 19t18.5 45h115q0 -80 -54 -127.5t-126 -47.5q-74 0 -127 45.5t-53 129.5zM34 350q0 161 84 260t221 99q96 0 172 -57.5t99 -172.5h-140q-20 50 -51 72.5t-80 22.5q-73 0 -117.5 -61.5t-44.5 -162.5
q0 -100 44.5 -161.5t117.5 -61.5q127 0 147 134h-144v126h279q7 -119 -17 -196q-32 -101 -103.5 -150.5t-161.5 -49.5q-137 0 -221 99t-84 260z" />
    <glyph glyph-name="gbreve" unicode="&#x11f;" horiz-adv-x="496" 
d="M100 703h105q0 -29 20 -45t43 -13q22 2 37.5 17.5t17.5 40.5h103q0 -72 -48.5 -115t-114.5 -43q-67 0 -115 41t-48 117zM317 -29v50q-40 -30 -101 -30q-83 0 -134.5 71t-51.5 183q0 114 65.5 181.5t172.5 65.5q86 0 177 -44v-472q0 -57 -14.5 -100.5t-36 -68.5t-51 -41
t-55.5 -21t-54 -5q-104 0 -188 63l32 99q71 -51 147 -51q92 0 92 120zM316 136v231q-29 10 -62 10q-41 0 -66.5 -36t-25.5 -96q0 -65 22.5 -99.5t62.5 -34.5q39 0 69 25z" />
    <glyph glyph-name="Gdotaccent" unicode="&#x120;" horiz-adv-x="652" 
d="M329 771q-34 0 -56.5 19t-22.5 54q0 34 22.5 54.5t56.5 20.5q33 0 56.5 -21t23.5 -54q0 -34 -23 -53.5t-57 -19.5zM34 350q0 161 84 260t221 99q96 0 172 -57.5t99 -172.5h-140q-20 50 -51 72.5t-80 22.5q-73 0 -117.5 -61.5t-44.5 -162.5q0 -100 44.5 -161.5
t117.5 -61.5q127 0 147 134h-144v126h279q7 -119 -17 -196q-32 -101 -103.5 -150.5t-161.5 -49.5q-137 0 -221 99t-84 260z" />
    <glyph glyph-name="gdotaccent" unicode="&#x121;" horiz-adv-x="496" 
d="M265 564q-31 0 -51.5 19t-20.5 53q0 32 21 52.5t51 20.5q31 0 52 -19.5t21 -53.5q0 -32 -21 -52t-52 -20zM317 -29v50q-40 -30 -101 -30q-83 0 -134.5 71t-51.5 183q0 114 65.5 181.5t172.5 65.5q86 0 177 -44v-472q0 -57 -14.5 -100.5t-36 -68.5t-51 -41t-55.5 -21
t-54 -5q-104 0 -188 63l32 99q71 -51 147 -51q92 0 92 120zM316 136v231q-29 10 -62 10q-41 0 -66.5 -36t-25.5 -96q0 -65 22.5 -99.5t62.5 -34.5q39 0 69 25z" />
    <glyph glyph-name="Gcommaaccent" unicode="&#x122;" horiz-adv-x="652" 
d="M34 350q0 161 84 260t221 99q96 0 172 -57.5t99 -172.5h-140q-20 50 -51 72.5t-80 22.5q-73 0 -117.5 -61.5t-44.5 -162.5q0 -100 44.5 -161.5t117.5 -61.5q127 0 147 134h-144v126h279q7 -119 -17 -196q-32 -101 -103.5 -150.5t-161.5 -49.5q-137 0 -221 99t-84 260z
M423 -109q1 -7 1 -25q0 -21 -4 -32l-34 -111h-73l19 71q-51 19 -51 73q0 34 20 54.5t51 20.5q27 0 47 -14t24 -37z" />
    <glyph glyph-name="gcommaaccent" unicode="&#x123;" horiz-adv-x="496" 
d="M189 600q-2 14 -2 23q1 15 8 38q22 62 34 93h75l-21 -71q23 -5 37.5 -22t14.5 -40q0 -31 -21.5 -51t-51.5 -20q-28 0 -48.5 13.5t-24.5 36.5zM317 -29v50q-40 -30 -101 -30q-83 0 -134.5 71t-51.5 183q0 114 65.5 181.5t172.5 65.5q86 0 177 -44v-472q0 -57 -14.5 -100.5
t-36 -68.5t-51 -41t-55.5 -21t-54 -5q-104 0 -188 63l32 99q71 -51 147 -51q92 0 92 120zM316 136v231q-29 10 -62 10q-41 0 -66.5 -36t-25.5 -96q0 -65 22.5 -99.5t62.5 -34.5q39 0 69 25z" />
    <glyph glyph-name="Hcircumflex" unicode="&#x124;" horiz-adv-x="621" 
d="M307 847l-60 -78h-128v14l122 148h132l122 -149v-13h-126zM413 296h-206v-296h-141v700h141v-267h206v267h142v-700h-142v296z" />
    <glyph glyph-name="hcircumflex" unicode="&#x125;" horiz-adv-x="511" 
d="M247 842l-58 -77h-123v14l117 146h128l117 -147v-13h-121zM329 0v279q2 45 -16.5 73.5t-49.5 28.5q-32 1 -55 -27.5t-23 -77.5v-276h-133v730h133v-300q45 62 117 62q161 0 161 -213v-279h-134z" />
    <glyph glyph-name="Hbar" unicode="&#x126;" horiz-adv-x="629" 
d="M70 613v87h142v-87h205v87h142v-87h51v-95h-51v-518h-142v280h-205v-280h-142v518h-49v95h49zM417 518h-205v-101h205v101z" />
    <glyph glyph-name="hbar" unicode="&#x127;" horiz-adv-x="512" 
d="M303 492q161 0 161 -213v-279h-134v279q2 45 -16.5 73.5t-49.5 28.5q-32 1 -55 -27.5t-23 -77.5v-276h-133v578h-50v78h50v74h133v-74h96v-78h-96v-148q45 62 117 62z" />
    <glyph glyph-name="Itilde" unicode="&#x128;" horiz-adv-x="374" 
d="M69 772l-66 33q16 48 39.5 71t59.5 25q18 0 39 -7t35.5 -14.5t28 -11.5t23 2t15.5 26l66 -30q-9 -41 -33 -68.5t-59 -29.5q-24 -2 -62.5 15.5t-42.5 18.5q-30 7 -43 -30zM338 0h-301v119h79v465h-73v116h288v-116h-73v-465h80v-119z" />
    <glyph glyph-name="itilde" unicode="&#x129;" horiz-adv-x="237" 
d="M31 583l-66 33q16 48 39.5 71t59.5 25q18 0 39 -7t35.5 -14.5t28 -11.5t23 2t15.5 26l66 -30q-9 -41 -33 -68.5t-59 -29.5q-24 -2 -62.5 15.5t-42.5 18.5q-30 7 -43 -30zM53 0v482h131v-482h-131z" />
    <glyph glyph-name="Imacron" unicode="&#x12a;" horiz-adv-x="374" 
d="M326 875v-107h-278v107h278zM337 0h-301v119h80v465h-73v116h288v-116h-73v-465h79v-119z" />
    <glyph glyph-name="imacron" unicode="&#x12b;" horiz-adv-x="238" 
d="M232 674v-104h-226v104h226zM53 0v482h132v-482h-132z" />
    <glyph glyph-name="Ibreve" unicode="&#x12c;" horiz-adv-x="374" 
d="M15 927h109q0 -31 20.5 -48.5t45.5 -13.5q23 3 39.5 19t17.5 43h108q0 -74 -50 -122.5t-116 -50.5q-68 -4 -121 43t-53 130zM338 0h-301v119h79v465h-73v116h288v-116h-73v-465h80v-119z" />
    <glyph glyph-name="ibreve" unicode="&#x12d;" horiz-adv-x="237" 
d="M-31 709h95q0 -27 15 -43.5t39 -16.5q23 0 37.5 16.5t15.5 43.5h94q0 -73 -39.5 -112.5t-106.5 -39.5q-68 0 -109 39t-41 113zM53 0v482h131v-482h-131z" />
    <glyph glyph-name="Iogonek" unicode="&#x12e;" horiz-adv-x="375" 
d="M338 0h-91q-25 -18 -36.5 -50t-3 -57t36.5 -25q39 0 72 25l19 -88q-57 -39 -131 -34q-56 2 -84.5 43t-20.5 94.5t50 91.5h-112v122h80v457h-73v121h288v-121h-73v-457h79v-122z" />
    <glyph glyph-name="iogonek" unicode="&#x12f;" horiz-adv-x="238" 
d="M42 621q0 37 22 58t54 21q31 0 54 -20.5t23 -58.5q0 -36 -23 -58t-54 -22t-53.5 21.5t-22.5 58.5zM184 0h-47q-26 -23 -36.5 -53.5t-1 -52.5t35.5 -22q45 0 83 29l18 -89q-53 -38 -123 -38q-55 0 -85.5 37.5t-24.5 91.5t49 99v474h132v-476z" />
    <glyph glyph-name="Idot" unicode="&#x130;" horiz-adv-x="374" 
d="M183 749q-35 0 -59.5 21.5t-24.5 55.5q0 36 24.5 57t59.5 21q36 0 60 -21.5t24 -56.5t-24 -56t-60 -21zM337 0h-301v119h80v465h-73v116h288v-116h-73v-465h79v-119z" />
    <glyph glyph-name="dotlessi" unicode="&#x131;" horiz-adv-x="238" 
d="M53 0v482h132v-482h-132z" />
    <glyph glyph-name="IJ" unicode="&#x132;" horiz-adv-x="907" 
d="M337 0h-301v119h80v465h-73v116h288v-116h-73v-465h79v-119zM846 700v-468q0 -111 -62.5 -176.5t-165.5 -65.5q-101 0 -162.5 66.5t-61.5 175.5v85h132v-82q0 -51 24.5 -81.5t66.5 -30.5q40 0 63.5 29.5t23.5 82.5v336h-96v129h238z" />
    <glyph glyph-name="ij" unicode="&#x133;" horiz-adv-x="474" 
d="M42 630q0 39 23 59.5t55 20.5q31 0 53.5 -21.5t22.5 -58.5q0 -38 -22 -59t-53 -22q-32 0 -55.5 21t-23.5 60zM53 0v482h132v-482h-132zM278 630q0 38 23 59t54 21t54 -21t23 -59q0 -36 -21.5 -58t-56.5 -22t-55.5 22t-20.5 58zM421 482l-1 -539q0 -203 -156 -203
q-24 0 -61 8l4 104q13 -3 25 -3q32 0 45.5 23t13.5 73v537h130z" />
    <glyph glyph-name="Jcircumflex" unicode="&#x134;" horiz-adv-x="532" 
d="M353 829l-58 -79h-120v14l115 150h125l114 -151v-13h-119zM471 700v-468q0 -106 -68 -174t-160 -68q-95 0 -159.5 66.5t-64.5 175.5v85h132v-82q0 -55 25 -83.5t66 -28.5q40 0 63.5 28.5t23.5 83.5v336h-96v129h238z" />
    <glyph glyph-name="jcircumflex" unicode="&#x135;" horiz-adv-x="237" 
d="M117 616l-51 -73h-109v14l104 148h112l103 -149v-13h-107zM184 480l-1 -537q0 -174 -118 -198q-41 -10 -99 3l3 104q21 -4 41 -2q26 4 34.5 34t8.5 99v497h131z" />
    <glyph glyph-name="Kcommaaccent" unicode="&#x136;" horiz-adv-x="603" 
d="M430 0l-140 288q-23 -7 -84 -7v-281h-141v700h141v-289h17h17t15.5 0.5t16 2t14 3.5t14 6t12 9.5t11 13t8.5 17.5q6 16 13 49.5t14.5 62.5t21 59t39.5 49t64 23q38 3 84 -7v-102q-34 3 -52.5 -11t-27.5 -54q-32 -136 -73 -186l83 -147l93 -177v-22h-160zM393 -94
q1 -7 1 -25q0 -14 -5 -32l-35 -111h-73l21 71q-51 18 -51 73q0 34 20.5 54.5t51.5 20.5q27 0 46.5 -14t23.5 -37z" />
    <glyph glyph-name="kcommaaccent" unicode="&#x137;" horiz-adv-x="482" 
d="M460 1h-136l-88 196q-21 -4 -53 -2v-194h-131v730h131v-426h23q116 0 107 177h125q7 -172 -90 -244l112 -223v-14zM316 -95q1 -7 1 -23q0 -11 -5 -29l-32 -101h-68l20 64q-48 19 -48 67q0 32 18.5 50t48.5 18q26 0 44 -12t21 -34z" />
    <glyph glyph-name="kgreenlandic" unicode="&#x138;" horiz-adv-x="478" 
d="M456 1h-136l-88 196q-21 -4 -53 -2v-194h-131v481h131v-177h23q116 0 107 177h125q7 -172 -90 -244l112 -223v-14z" />
    <glyph glyph-name="Lacute" unicode="&#x139;" horiz-adv-x="449" 
d="M72 775l67 156l122 -47v-12l-81 -110h-108v13zM439 134v-134h-373v700h142v-566h231z" />
    <glyph glyph-name="lacute" unicode="&#x13a;" horiz-adv-x="259" 
d="M56 781l70 155l112 -43v-11l-82 -113h-100v12zM179 732v-542q0 -44 12 -63t39 -19q11 0 26 4l4 -105q-29 -8 -69 -8q-142 0 -142 191v542h130z" />
    <glyph glyph-name="Lcommaaccent" unicode="&#x13b;" horiz-adv-x="449" 
d="M439 134v-134h-373v700h142v-566h231zM327 -106q1 -7 1 -25q0 -14 -5 -32l-35 -111h-72l20 71q-51 19 -51 73q0 34 20.5 54.5t51.5 20.5q27 0 46.5 -14t23.5 -37z" />
    <glyph glyph-name="lcommaaccent" unicode="&#x13c;" horiz-adv-x="259" 
d="M179 732v-542q0 -44 12 -63t39 -19q11 0 26 4l4 -105q-29 -8 -69 -8q-142 0 -142 191v542h130zM228 -95q1 -7 1 -23q0 -20 -5 -30l-32 -104h-68l20 66q-47 18 -47 69q0 32 18 51t48 19q25 0 43 -12.5t22 -35.5z" />
    <glyph glyph-name="Lcaron" unicode="&#x13d;" horiz-adv-x="454" 
d="M426 651q0 -4 0.5 -12t0.5 -13q-1 -3 -1 -10t-1 -10l-5 -21l-34 -109h-74l20 81q-52 15 -52 70q0 33 21 53.5t53 20.5q28 0 48 -13.5t24 -36.5zM438 134v-134h-373v700h142v-566h231z" />
    <glyph glyph-name="lcaron" unicode="&#x13e;" horiz-adv-x="259" 
d="M179 732v-542q0 -44 12 -63t39 -19q11 0 26 4l4 -105q-29 -8 -69 -8q-142 0 -142 191v542h130zM351 677q2 -16 2 -23q0 -5 -2 -19l-4 -21l-32 -99h-68l18 75q-21 6 -34.5 23t-13.5 41q0 30 19.5 49.5t48.5 19.5q26 0 44.5 -12.5t21.5 -33.5z" />
    <glyph glyph-name="Ldot" unicode="&#x13f;" horiz-adv-x="466" 
d="M439 134v-134h-373v700h142v-566h231zM344 302q-31 0 -51.5 21t-20.5 56t20.5 56t51.5 21t51.5 -21t20.5 -56t-20.5 -56t-51.5 -21z" />
    <glyph glyph-name="ldot" unicode="&#x140;" horiz-adv-x="361" 
d="M179 732v-542q0 -44 12 -63t39 -19q11 0 26 4l4 -105q-29 -8 -69 -8q-142 0 -142 191v542h130zM297 301q-31 0 -50.5 20.5t-19.5 55.5q0 34 19.5 55t50.5 21q29 0 49 -21t20 -55q0 -35 -19.5 -55.5t-49.5 -20.5z" />
    <glyph glyph-name="Lslash" unicode="&#x141;" horiz-adv-x="459" 
d="M301 446v-110l-83 -28v-174h225v-134h-366v267l-66 -22v110l66 22v323h141v-282z" />
    <glyph glyph-name="lslash" unicode="&#x142;" horiz-adv-x="283" 
d="M276 112l4 -105q-29 -8 -69 -8q-142 0 -142 191v95l-57 -18v90l57 18v357h130v-316l69 22v-90l-69 -22v-136q0 -44 12 -63t39 -19q11 0 26 4z" />
    <glyph glyph-name="Nacute" unicode="&#x143;" horiz-adv-x="638" 
d="M230 759l69 163l121 -48v-12l-82 -116h-108v13zM206 0h-141v705h44l322 -395v390h142v-705h-42l-325 391v-386z" />
    <glyph glyph-name="nacute" unicode="&#x144;" horiz-adv-x="527" 
d="M205 579l63 148l113 -42v-11l-75 -107h-101v12zM346 0v289q0 47 -19 70t-49 23q-33 0 -55.5 -24t-22.5 -72v-286h-132v333q0 37 -8.5 50t-36.5 13v87q25 6 50.5 7.5t54 -2t47 -21.5t19.5 -49q20 36 55.5 55t73.5 19q156 0 156 -203v-289h-133z" />
    <glyph glyph-name="Ncommaaccent" unicode="&#x145;" horiz-adv-x="638" 
d="M206 0h-141v705h44l322 -395v390h142v-705h-42l-325 391v-386zM421 -92q1 -7 1 -25q0 -14 -5 -32l-35 -111h-73l21 71q-51 19 -51 73q0 34 20.5 54.5t51.5 20.5q27 0 46.5 -14t23.5 -37z" />
    <glyph glyph-name="ncommaaccent" unicode="&#x146;" horiz-adv-x="527" 
d="M346 0v289q0 47 -19 70t-49 23q-33 0 -55.5 -24t-22.5 -72v-286h-132v333q0 37 -8.5 50t-36.5 13v87q25 6 50.5 7.5t54 -2t47 -21.5t19.5 -49q20 36 55.5 55t73.5 19q156 0 156 -203v-289h-133zM340 -94q2 -14 2 -23q0 -12 -5 -29l-34 -103h-69l21 66q-49 19 -49 67
q0 32 19.5 51t48.5 19q58 0 66 -48z" />
    <glyph glyph-name="Ncaron" unicode="&#x147;" horiz-adv-x="638" 
d="M313 837l59 72h130v-13l-129 -148h-122l-126 148v13h127zM206 0h-141v705h44l322 -395v390h142v-705h-42l-325 391v-386z" />
    <glyph glyph-name="ncaron" unicode="&#x148;" horiz-adv-x="527" 
d="M261 644l57 66h126v-13l-119 -134h-129l-117 134v13h123zM346 0v289q0 47 -19 70t-49 23q-33 0 -55.5 -24t-22.5 -72v-286h-132v333q0 37 -8.5 50t-36.5 13v87q25 6 50.5 7.5t54 -2t47 -21.5t19.5 -49q20 36 55.5 55t73.5 19q156 0 156 -203v-289h-133z" />
    <glyph glyph-name="napostrophe" unicode="&#x149;" horiz-adv-x="527" 
d="M346 0v289q0 47 -19 70t-49 23q-33 0 -55.5 -24t-22.5 -72v-286h-132v333q0 37 -8.5 50t-36.5 13v87q25 6 50.5 7.5t54 -2t47 -21.5t19.5 -49q20 36 55.5 55t73.5 19q156 0 156 -203v-289h-133z" />
    <glyph glyph-name="Eng" unicode="&#x14a;" horiz-adv-x="638" 
d="M573 700v-705q-4 -192 -127 -192q-41 0 -79 7l4 101q44 -8 60 12.5t16 79.5v93l-241 290v-386h-141v705h44l322 -395v390h142z" />
    <glyph glyph-name="eng" unicode="&#x14b;" horiz-adv-x="527" 
d="M323 492q156 0 156 -203v-299q0 -92 -34.5 -142t-96.5 -55q-39 -3 -82 6q0 10 0.5 29t1 35t1.5 30q44 -9 60.5 14t16.5 85v297q0 47 -19 70t-49 23q-33 0 -55.5 -24t-22.5 -72v-286h-132v333q0 37 -8.5 50t-36.5 13v87q25 6 50.5 7.5t54 -2t47 -21.5t19.5 -49
q20 36 55.5 55t73.5 19z" />
    <glyph glyph-name="Omacron" unicode="&#x14c;" horiz-adv-x="677" 
d="M475 885v-107h-277v107h277zM643 350q0 -162 -84 -261t-220 -99q-137 0 -221 99t-84 261t84 261t221 99q136 0 220 -99t84 -261zM176 350q0 -102 44.5 -163.5t118.5 -61.5t118.5 61.5t44.5 163.5q0 101 -44.5 162.5t-118.5 61.5t-118.5 -61.5t-44.5 -162.5z" />
    <glyph glyph-name="omacron" unicode="&#x14d;" horiz-adv-x="499" 
d="M383 675v-101h-263v101h263zM470 243q0 -114 -60.5 -183.5t-158.5 -69.5q-100 0 -161 69.5t-61 183.5q0 112 61 180.5t161 68.5q98 0 158.5 -68.5t60.5 -180.5zM161 243q0 -60 24.5 -95.5t65.5 -35.5q40 0 64 35.5t24 95.5q0 57 -24 91.5t-64 34.5q-41 0 -65.5 -34.5
t-24.5 -91.5z" />
    <glyph glyph-name="Obreve" unicode="&#x14e;" horiz-adv-x="677" 
d="M163 928h113q0 -29 18 -47t47 -18q27 0 43.5 18t17.5 47h111q0 -76 -48 -122.5t-127 -46.5t-127 46.5t-48 122.5zM643 350q0 -162 -84 -261t-220 -99q-137 0 -221 99t-84 261t84 261t221 99q136 0 220 -99t84 -261zM176 350q0 -102 44.5 -163.5t118.5 -61.5t118.5 61.5
t44.5 163.5q0 101 -44.5 162.5t-118.5 61.5t-118.5 -61.5t-44.5 -162.5z" />
    <glyph glyph-name="obreve" unicode="&#x14f;" horiz-adv-x="499" 
d="M88 703h104q0 -29 17 -43t41 -14q22 0 39.5 15.5t19.5 41.5h102q0 -72 -49 -114.5t-114 -42.5q-64 0 -112 41.5t-48 115.5zM470 243q0 -114 -60.5 -183.5t-158.5 -69.5q-100 0 -161 69.5t-61 183.5q0 112 61 180.5t161 68.5q98 0 158.5 -68.5t60.5 -180.5zM161 243
q0 -60 24.5 -95.5t65.5 -35.5q40 0 64 35.5t24 95.5q0 57 -24 91.5t-64 34.5q-41 0 -65.5 -34.5t-24.5 -91.5z" />
    <glyph glyph-name="Ohungarumlaut" unicode="&#x150;" horiz-adv-x="677" 
d="M182 772l59 163l118 -28v-11l-73 -136h-104v12zM372 772l59 152l117 -34v-12l-73 -118h-103v12zM643 350q0 -162 -84 -261t-220 -99q-137 0 -221 99t-84 261t84 261t221 99q136 0 220 -99t84 -261zM176 350q0 -102 44.5 -163.5t118.5 -61.5t118.5 61.5t44.5 163.5
q0 101 -44.5 162.5t-118.5 61.5t-118.5 -61.5t-44.5 -162.5z" />
    <glyph glyph-name="ohungarumlaut" unicode="&#x151;" horiz-adv-x="499" 
d="M105 567l57 144l110 -27v-11l-71 -118h-96v12zM272 567l58 133l109 -32v-12l-71 -101h-96v12zM470 243q0 -114 -60.5 -183.5t-158.5 -69.5q-100 0 -161 69.5t-61 183.5q0 112 61 180.5t161 68.5q98 0 158.5 -68.5t60.5 -180.5zM161 243q0 -60 24.5 -95.5t65.5 -35.5
q40 0 64 35.5t24 95.5q0 57 -24 91.5t-64 34.5q-41 0 -65.5 -34.5t-24.5 -91.5z" />
    <glyph glyph-name="OE" unicode="&#x152;" horiz-adv-x="783" 
d="M741 0h-325q-45 -12 -86 -12q-126 0 -210.5 96t-84.5 264q0 170 86.5 266.5t216.5 94.5q37 0 81 -11h314v-116h-215v-160h199v-108h-199v-200h223v-114zM172 348q0 -107 46.5 -173.5t123.5 -66.5q30 0 57 11v454q-34 12 -58 12q-75 0 -122 -60.5t-47 -176.5z" />
    <glyph glyph-name="oe" unicode="&#x153;" horiz-adv-x="721" 
d="M30 241q0 114 54 183t144 69q107 0 155 -99q44 98 140 98q78 0 120.5 -48t46.5 -130q2 -51 -9 -104h-240q5 -53 33.5 -81t74.5 -28q63 0 115 32l18 -103q-83 -43 -153 -39q-51 0 -91.5 26t-59.5 83q-43 -110 -153 -110q-88 0 -141.5 69t-53.5 182zM444 302h133
q3 42 -16 63t-46 21q-26 0 -45.5 -22.5t-25.5 -61.5zM161 241q0 -59 22.5 -94.5t60.5 -35.5q37 0 59 35.5t22 94.5t-22 94.5t-59 35.5q-38 0 -60.5 -35.5t-22.5 -94.5z" />
    <glyph glyph-name="Racute" unicode="&#x154;" horiz-adv-x="585" 
d="M203 765l70 165l124 -47v-12l-85 -119h-109v13zM563 0h-149l-113 232h-93v-232h-142v700h248q100 0 161 -65.5t61 -173.5q0 -142 -105 -200l132 -252v-9zM206 355h107q39 0 62.5 30t23.5 79q0 48 -23.5 77t-62.5 29h-107v-215z" />
    <glyph glyph-name="racute" unicode="&#x155;" horiz-adv-x="403" 
d="M137 561l64 155l115 -45v-7l-79 -110h-100v7zM194 415q32 77 113 77q52 2 93 -36l-38 -108q-29 22 -71 22q-41 0 -67 -29.5t-26 -86.5v-254h-129v338q0 32 -10.5 48t-36.5 11v86q32 6 69 8.5t68 -17.5t35 -59z" />
    <glyph glyph-name="Rcommaaccent" unicode="&#x156;" horiz-adv-x="585" 
d="M563 0h-149l-113 232h-93v-232h-142v700h248q100 0 161 -65.5t61 -173.5q0 -142 -105 -200l132 -252v-9zM206 355h107q39 0 62.5 30t23.5 79q0 48 -23.5 77t-62.5 29h-107v-215zM349 -260h-74l19 63q-51 19 -51 73q0 34 20.5 54.5t51.5 20.5q59 0 70 -53q7 -40 -36 -158z
" />
    <glyph glyph-name="rcommaaccent" unicode="&#x157;" horiz-adv-x="403" 
d="M194 415q32 77 113 77q52 2 93 -36l-38 -108q-29 22 -71 22q-41 0 -67 -29.5t-26 -86.5v-254h-129v338q0 32 -10.5 48t-36.5 11v86q32 6 69 8.5t68 -17.5t35 -59zM201 -121q0 -21 -6 -34l-32 -97h-66l19 65q-48 19 -48 67q0 31 19 50t47 19t47.5 -20t19.5 -50z" />
    <glyph glyph-name="Rcaron" unicode="&#x158;" horiz-adv-x="585" 
d="M280 838l58 76h126v-12l-119 -145h-131l-119 145v12h125zM563 0h-149l-113 232h-93v-232h-142v700h248q100 0 161 -65.5t61 -173.5q0 -142 -105 -200l132 -252v-9zM206 355h107q39 0 62.5 30t23.5 79q0 48 -23.5 77t-62.5 29h-107v-215z" />
    <glyph glyph-name="rcaron" unicode="&#x159;" horiz-adv-x="403" 
d="M206 635l56 64h121v-12l-115 -130h-124l-114 130v12h120zM194 415q32 77 113 77q52 2 93 -36l-38 -108q-29 22 -71 22q-41 0 -67 -29.5t-26 -86.5v-254h-129v338q0 32 -10.5 48t-36.5 11v86q32 6 69 8.5t68 -17.5t35 -59z" />
    <glyph glyph-name="Sacute" unicode="&#x15a;" horiz-adv-x="548" 
d="M195 777l69 165l126 -47v-12l-84 -119h-111v13zM34 212h135q2 -45 33 -68t74 -23q102 0 102 85q0 23 -8.5 39.5t-18 25t-29.5 14.5t-30.5 7.5t-32.5 3.5q-106 9 -161.5 63t-55.5 137q0 98 62.5 156t165.5 58q96 0 162 -51t66 -160h-132q-3 40 -30 61t-65 21
q-37 0 -63.5 -22t-26.5 -60q0 -42 25.5 -60t76.5 -25q235 -27 235 -208q0 -114 -68.5 -165t-172.5 -51q-100 0 -171.5 57t-71.5 165z" />
    <glyph glyph-name="sacute" unicode="&#x15b;" horiz-adv-x="434" 
d="M151 566l63 150l114 -43v-7l-76 -108h-101v8zM28 150h130q1 -26 16.5 -42.5t40.5 -16.5q27 0 43 13t16 37q0 44 -51 52q-37 6 -64 14t-58 23.5t-48 43.5t-17 67q0 69 49 110t130 41q77 0 129.5 -40t48.5 -112h-117q-2 21 -18 34t-40 13t-38.5 -11.5t-14.5 -32.5
q0 -40 53 -47q45 -6 70 -12.5t57 -22t47 -45t15 -73.5q0 -69 -51 -111t-135 -42q-92 0 -141.5 43t-51.5 117z" />
    <glyph glyph-name="Scircumflex" unicode="&#x15c;" horiz-adv-x="548" 
d="M271 833l-60 -78h-128v14l122 148h132l122 -149v-13h-126zM34 212h135q2 -45 33 -68t74 -23q102 0 102 85q0 23 -8.5 39.5t-18 25t-29.5 14.5t-30.5 7.5t-32.5 3.5q-106 9 -161.5 63t-55.5 137q0 98 62.5 156t165.5 58q96 0 162 -51t66 -160h-132q-3 40 -30 61t-65 21
q-37 0 -63.5 -22t-26.5 -60q0 -42 25.5 -60t76.5 -25q235 -27 235 -208q0 -114 -68.5 -165t-172.5 -51q-100 0 -171.5 57t-71.5 165z" />
    <glyph glyph-name="scircumflex" unicode="&#x15d;" horiz-adv-x="434" 
d="M220 620l-54 -63h-115v14l110 128h118l110 -129v-13h-114zM28 150h130q1 -26 16.5 -42.5t40.5 -16.5q27 0 43 13t16 37q0 44 -51 52q-37 6 -64 14t-58 23.5t-48 43.5t-17 67q0 69 49 110t130 41q77 0 129.5 -40t48.5 -112h-117q-2 21 -18 34t-40 13t-38.5 -11.5
t-14.5 -32.5q0 -40 53 -47q45 -6 70 -12.5t57 -22t47 -45t15 -73.5q0 -69 -51 -111t-135 -42q-92 0 -141.5 43t-51.5 117z" />
    <glyph glyph-name="Scedilla" unicode="&#x15e;" horiz-adv-x="548" 
d="M518 206q0 -181 -181 -211l-12 -57q32 -5 51 -28t19 -56q0 -46 -30 -76.5t-77 -30.5q-75 0 -121 36l17 72q12 -12 33.5 -19t41.5 -2.5t24 23.5q5 25 -19 37.5t-44 12.5l18 85q-88 11 -146 67.5t-58 152.5h135q2 -45 33 -68t74 -23q102 0 102 85q0 23 -8.5 39.5t-18 25
t-29.5 14.5t-30.5 7.5t-32.5 3.5q-106 9 -161.5 63t-55.5 137q0 98 62.5 156t165.5 58q96 0 162 -51t66 -160h-132q-3 40 -30 61t-65 21q-37 0 -63.5 -22t-26.5 -60q0 -42 25.5 -60t76.5 -25q235 -27 235 -208z" />
    <glyph glyph-name="scedilla" unicode="&#x15f;" horiz-adv-x="434" 
d="M407 143q0 -60 -38 -99.5t-104 -50.5l-8 -38q41 -8 54 -42t-4 -70q-19 -45 -81.5 -48t-104.5 34l18 61q17 -14 45.5 -16.5t37.5 17.5q5 24 -23 37q-12 4 -29 6l12 58q-73 10 -112.5 51.5t-41.5 106.5h130q1 -26 16.5 -42.5t40.5 -16.5q27 0 43 13t16 37q0 44 -51 52
q-37 6 -64 14t-58 23.5t-48 43.5t-17 67q0 69 49 110t130 41q77 0 129.5 -40t48.5 -112h-117q-2 21 -18 34t-40 13t-38.5 -11.5t-14.5 -32.5q0 -40 53 -47q45 -6 70 -12.5t57 -22t47 -45t15 -73.5z" />
    <glyph glyph-name="Scaron" unicode="&#x160;" horiz-adv-x="548" 
d="M276 839l58 76h127v-12l-120 -145h-130l-119 145v12h125zM34 212h135q2 -45 33 -68t74 -23q102 0 102 85q0 23 -8.5 39.5t-18 25t-29.5 14.5t-30.5 7.5t-32.5 3.5q-106 9 -161.5 63t-55.5 137q0 98 62.5 156t165.5 58q96 0 162 -51t66 -160h-132q-3 40 -30 61t-65 21
q-37 0 -63.5 -22t-26.5 -60q0 -42 25.5 -60t76.5 -25q235 -27 235 -208q0 -114 -68.5 -165t-172.5 -51q-100 0 -171.5 57t-71.5 165z" />
    <glyph glyph-name="scaron" unicode="&#x161;" horiz-adv-x="434" 
d="M218 639l54 61h117v-12l-111 -123h-120l-110 123v12h115zM28 150h130q1 -26 16.5 -42.5t40.5 -16.5q27 0 43 13t16 37q0 44 -51 52q-37 6 -64 14t-58 23.5t-48 43.5t-17 67q0 69 49 110t130 41q77 0 129.5 -40t48.5 -112h-117q-2 21 -18 34t-40 13t-38.5 -11.5
t-14.5 -32.5q0 -40 53 -47q45 -6 70 -12.5t57 -22t47 -45t15 -73.5q0 -69 -51 -111t-135 -42q-92 0 -141.5 43t-51.5 117z" />
    <glyph glyph-name="uni021A" unicode="&#x162;" horiz-adv-x="467" 
d="M14 700h438v-132h-150v-568h-137v568h-151v132zM270 -260h-74l19 63q-51 19 -51 73q0 34 20.5 54.5t51.5 20.5q59 0 70 -53q7 -40 -36 -158z" />
    <glyph glyph-name="uni021A" unicode="&#x21a;" horiz-adv-x="467" 
d="M14 700h438v-132h-150v-568h-137v568h-151v132zM270 -260h-74l19 63q-51 19 -51 73q0 34 20.5 54.5t51.5 20.5q59 0 70 -53q7 -40 -36 -158z" />
    <glyph glyph-name="uni021B" unicode="&#x163;" horiz-adv-x="373" 
d="M260 -260h-74l19 63q-51 19 -51 73q0 34 20.5 54.5t51.5 20.5q59 0 70 -53q7 -40 -36 -158zM344 482v-104h-129v-187q0 -89 73 -91q33 -2 62 11l12 -102q-62 -19 -109 -19q-76 0 -121.5 47.5t-45.5 150.5v190l-75 8v96h79l14 149h111v-149h129z" />
    <glyph glyph-name="uni021B" unicode="&#x21b;" horiz-adv-x="373" 
d="M260 -260h-74l19 63q-51 19 -51 73q0 34 20.5 54.5t51.5 20.5q59 0 70 -53q7 -40 -36 -158zM344 482v-104h-129v-187q0 -89 73 -91q33 -2 62 11l12 -102q-62 -19 -109 -19q-76 0 -121.5 47.5t-45.5 150.5v190l-75 8v96h79l14 149h111v-149h129z" />
    <glyph glyph-name="Tcaron" unicode="&#x164;" horiz-adv-x="471" 
d="M236 833l59 78h129v-13l-122 -148h-133l-122 148v13h128zM15 700h441v-130h-151v-570h-138v570h-152v130z" />
    <glyph glyph-name="tcaron" unicode="&#x165;" horiz-adv-x="408" 
d="M444 596q1 -8 1 -23q0 -5 -2 -19l-4 -20q-9 -33 -31 -99h-68l18 75q-21 6 -34 22.5t-13 40.5q0 31 19 50t48 19q27 0 45 -12.5t21 -33.5zM306 481v-105h-91v-185q0 -51 25 -73.5t64 -16.5q20 3 46 14l12 -106q-59 -19 -106 -19q-77 0 -123.5 47t-46.5 151v188l-75 9v96
h79l14 150h111v-150h91z" />
    <glyph glyph-name="Tbar" unicode="&#x166;" horiz-adv-x="470" 
d="M167 370v198h-151v132h438v-132h-150v-198h72v-111h-72v-259h-137v259h-76v111h76z" />
    <glyph glyph-name="tbar" unicode="&#x167;" horiz-adv-x="374" 
d="M345 481v-99h-129v-89h81v-75h-81v-27q0 -48 18.5 -70t44.5 -22q38 0 74 17l11 -106q-58 -20 -109 -20q-168 0 -168 192v36h-58v75h58v89l-75 9v90h75l14 150h115v-150h129z" />
    <glyph glyph-name="Utilde" unicode="&#x168;" horiz-adv-x="600" 
d="M206 770l-36 18l-35 18q23 61 62 88q46 32 103 8l15 -10q18 -12 33 -17q15 -7 26 -1q14 7 20 31l30 -15t40 -19q-13 -50 -43 -79.5t-68 -28.5q-34 0 -65 17q-27 17 -31 19q-17 8 -29 3q-15 -7 -22 -32zM301 -9q-99 0 -169.5 63t-70.5 179v467h142v-425q0 -61 24 -106.5
t75 -45.5q44 0 70.5 37.5t26.5 114.5v425h140v-467q0 -107 -71 -174.5t-167 -67.5z" />
    <glyph glyph-name="utilde" unicode="&#x169;" 
d="M162 583l-66 33q16 48 39.5 71t59.5 25q18 0 39 -7t35.5 -14.5t28 -11.5t23 2t15.5 26l66 -30q-9 -41 -33 -68.5t-59 -29.5q-24 -2 -62.5 15.5t-42.5 18.5q-30 7 -43 -30zM450 482v-337q0 -35 9 -47.5t35 -10.5v-87q-24 -7 -49.5 -9t-51.5 2.5t-43 24t-17 52.5
q-41 -80 -129 -80q-156 0 -156 206v286h133v-286q0 -96 62 -96q33 0 54 27t21 79v276h132z" />
    <glyph glyph-name="Umacron" unicode="&#x16a;" horiz-adv-x="600" 
d="M437 876v-107h-277v107h277zM301 -9q-99 0 -169.5 63t-70.5 179v467h142v-425q0 -61 24 -106.5t75 -45.5q44 0 70.5 37.5t26.5 114.5v425h140v-467q0 -107 -71 -174.5t-167 -67.5z" />
    <glyph glyph-name="umacron" unicode="&#x16b;" 
d="M389 679v-107h-278v107h278zM450 482v-337q0 -35 9 -47.5t35 -10.5v-87q-24 -7 -49.5 -9t-51.5 2.5t-43 24t-17 52.5q-41 -80 -129 -80q-156 0 -156 206v286h133v-286q0 -96 62 -96q33 0 54 27t21 79v276h132z" />
    <glyph glyph-name="Ubreve" unicode="&#x16c;" horiz-adv-x="600" 
d="M121 940h116q0 -33 21.5 -50.5t47.5 -13.5q23 2 41 19t20 45h114q0 -80 -54 -127.5t-126 -47.5q-74 0 -127 45.5t-53 129.5zM301 -9q-99 0 -169.5 63t-70.5 179v467h142v-425q0 -61 24 -106.5t75 -45.5q44 0 70.5 37.5t26.5 114.5v425h140v-467q0 -107 -71 -174.5
t-167 -67.5z" />
    <glyph glyph-name="ubreve" unicode="&#x16d;" 
d="M86 701h105q0 -26 16 -42.5t42 -16.5q25 0 41 16.5t18 42.5h103q0 -71 -44.5 -115t-117.5 -44q-74 0 -118.5 43.5t-44.5 115.5zM450 482v-337q0 -35 9 -47.5t35 -10.5v-87q-24 -7 -49.5 -9t-51.5 2.5t-43 24t-17 52.5q-41 -80 -129 -80q-156 0 -156 206v286h133v-286
q0 -96 62 -96q33 0 54 27t21 79v276h132z" />
    <glyph glyph-name="Uring" unicode="&#x16e;" horiz-adv-x="600" 
d="M410 854q0 -49 -32.5 -82.5t-74.5 -35.5q-47 -2 -81 28.5t-34 89.5q0 49 32 82.5t76 35.5q45 2 79.5 -28.5t34.5 -89.5zM260 854q0 -39 38 -45q16 -2 28.5 10.5t12.5 34.5q0 40 -37 46q-16 2 -29 -10.5t-13 -35.5zM301 -9q-99 0 -169.5 63t-70.5 179v467h142v-425
q0 -61 24 -106.5t75 -45.5q44 0 70.5 37.5t26.5 114.5v425h140v-467q0 -107 -71 -174.5t-167 -67.5z" />
    <glyph glyph-name="uring" unicode="&#x16f;" 
d="M356 631q0 -49 -30 -78.5t-79 -29.5q-48 0 -77.5 29.5t-29.5 78.5q0 48 29.5 77t77.5 29q49 0 79 -29t30 -77zM209 631q0 -19 10.5 -30t27.5 -11q18 0 29 11t11 30q0 17 -11 28t-29 11q-17 0 -27.5 -11t-10.5 -28zM450 482v-337q0 -35 9 -47.5t35 -10.5v-87
q-24 -7 -49.5 -9t-51.5 2.5t-43 24t-17 52.5q-41 -80 -129 -80q-156 0 -156 206v286h133v-286q0 -96 62 -96q33 0 54 27t21 79v276h132z" />
    <glyph glyph-name="Uhungarumlaut" unicode="&#x170;" horiz-adv-x="600" 
d="M147 789l52 150l118 -28v-11l-66 -123h-104v12zM337 789l52 139l117 -34v-12l-66 -105h-103v12zM301 -9q-99 0 -169.5 63t-70.5 179v467h142v-425q0 -61 24 -106.5t75 -45.5q44 0 70.5 37.5t26.5 114.5v425h140v-467q0 -107 -71 -174.5t-167 -67.5z" />
    <glyph glyph-name="uhungarumlaut" unicode="&#x171;" 
d="M113 568l62 148l111 -26v-10l-76 -124h-97v12zM292 568l62 138l110 -32v-11l-75 -107h-97v12zM450 482v-337q0 -35 9 -47.5t35 -10.5v-87q-24 -7 -49.5 -9t-51.5 2.5t-43 24t-17 52.5q-41 -80 -129 -80q-156 0 -156 206v286h133v-286q0 -96 62 -96q33 0 54 27t21 79v276
h132z" />
    <glyph glyph-name="Uogonek" unicode="&#x172;" horiz-adv-x="600" 
d="M301 -9q-99 0 -169.5 64t-70.5 178v467h142v-464q0 -52 29 -82.5t70 -30.5q38 0 67.5 30t29.5 83v464h140v-467q0 -146 -115 -214q-22 -20 -29 -47q-10 -32 0.5 -55t32.5 -23q10 0 21 3t17.5 6t21.5 10.5l19 9.5l19 -88q-59 -45 -129 -40q-48 2 -80.5 41.5t-21.5 101.5
q7 32 20 55q-10 -2 -14 -2z" />
    <glyph glyph-name="uogonek" unicode="&#x173;" 
d="M506 -103l16 -82q-53 -41 -118 -33q-58 6 -78.5 49t-3.5 91.5t57 75.5q-46 19 -46 72q-41 -80 -129 -80q-156 0 -156 206v286h133v-286q0 -96 62 -96q33 0 54 27t21 79v276h132v-337q0 -35 9 -47.5t35 -10.5v-87q-26 -6 -39 -8q-51 -36 -48 -81q2 -33 31 -39h18
q21 3 50 25z" />
    <glyph glyph-name="Wcircumflex" unicode="&#x174;" horiz-adv-x="859" 
d="M431 831l-61 -78h-128v14l123 148h132l122 -149v-13h-127zM594 254h1q12 105 36 205l67 241h147v-22l-203 -685h-95l-116 394h-2l-113 -394h-99l-203 685v22h147l70 -241q28 -123 38 -205h1l114 429h91z" />
    <glyph glyph-name="wcircumflex" unicode="&#x175;" horiz-adv-x="669" 
d="M334 636l-57 -74h-122v13l116 140h126l115 -141v-12h-120zM12 466v16h142l44 -141q15 -54 23 -110h2l84 240h57l83 -240h3q17 90 23 110l43 141h142v-16l-170 -473h-54l-99 245l-96 -245h-58z" />
    <glyph glyph-name="Ycircumflex" unicode="&#x176;" horiz-adv-x="563" 
d="M280 832l-61 -78h-128v14l123 148h132l122 -149v-13h-127zM281 414h3q20 71 53 142l67 144h150v-22l-201 -398v-280h-142v280l-202 398v22h152l68 -149q29 -65 52 -137z" />
    <glyph glyph-name="ycircumflex" unicode="&#x177;" horiz-adv-x="486" 
d="M247 638l-60 -78h-129v14l123 148h132l122 -149v-13h-127zM470 466l-160 -533q-28 -94 -71.5 -142t-110.5 -48q-43 0 -97 23l20 106q21 -12 57 -12q25 0 37.5 19.5t29.5 69.5l11 36l-176 487v10h142l61 -196q19 -64 33 -149q16 98 32 148l60 197h132v-16z" />
    <glyph glyph-name="Ydieresis" unicode="&#x178;" horiz-adv-x="563" 
d="M168 763q-31 0 -52.5 19.5t-21.5 52.5q0 32 21.5 52t52.5 20t52.5 -19t21.5 -53q0 -33 -21.5 -52.5t-52.5 -19.5zM397 763q-31 0 -52.5 19.5t-21.5 52.5q0 32 21 52t53 20q30 0 51.5 -19.5t21.5 -52.5q0 -32 -21 -52t-52 -20zM281 414h3q20 71 53 142l67 144h150v-22
l-201 -398v-280h-142v280l-202 398v22h152l68 -149q29 -65 52 -137z" />
    <glyph glyph-name="Zacute" unicode="&#x179;" horiz-adv-x="516" 
d="M198 768l67 166l117 -47v-12l-81 -120h-103v13zM486 134v-134h-468v21l264 548h-241v131h442v-22l-258 -544h261z" />
    <glyph glyph-name="zacute" unicode="&#x17a;" horiz-adv-x="406" 
d="M154 566l63 146l114 -44v-11l-76 -104h-101v13zM210 121h167v-121h-359v11l170 355h-150v116h338v-8z" />
    <glyph glyph-name="Zdotaccent" unicode="&#x17b;" horiz-adv-x="516" 
d="M262 754q-34 0 -56 20t-22 56q0 35 22 56t56 21t55.5 -20t21.5 -57q0 -34 -22 -55t-55 -21zM486 134v-134h-468v21l264 548h-241v131h442v-22l-258 -544h261z" />
    <glyph glyph-name="zdotaccent" unicode="&#x17c;" horiz-adv-x="406" 
d="M203 555q-31 0 -52 19.5t-21 52.5t21 53.5t52 20.5q32 0 53 -20t21 -54t-21 -53t-53 -19zM210 121h167v-121h-359v11l170 355h-150v116h338v-8z" />
    <glyph glyph-name="Zcaron" unicode="&#x17d;" horiz-adv-x="516" 
d="M263 834l58 76h126v-12l-119 -145h-131l-119 145v12h125zM486 134v-134h-468v21l264 548h-241v131h442v-22l-258 -544h261z" />
    <glyph glyph-name="zcaron" unicode="&#x17e;" horiz-adv-x="406" 
d="M210 631l51 67h110v-11l-104 -126h-113l-104 126v11h109zM210 121h167v-121h-359v11l170 355h-150v116h338v-8z" />
    <glyph glyph-name="longs" unicode="&#x17f;" horiz-adv-x="293" 
d="M15 383v99h75v57q0 102 45.5 150t122.5 46q51 -2 100 -20l-13 -101q-29 13 -65 13q-60 -2 -60 -127v-500h-132v383h-73z" />
    <glyph glyph-name="florin" unicode="&#x192;" horiz-adv-x="438" 
d="M278 -32q0 -95 -45.5 -144t-120.5 -51q-52 -1 -107 21l12 104q41 -19 81 -15q50 13 50 88v320h-120v100h120v25q0 43 0.5 64.5t2.5 56t7 54.5t14 43.5t23.5 39.5t34.5 28q36 19 82 20q50 1 110 -20l-12 -104q-24 12 -48 15q-36 4 -59.5 -17.5t-23.5 -73.5v-131h123v-100
h-123q0 -54 -0.5 -161.5t-0.5 -161.5z" />
    <glyph glyph-name="Aringacute" unicode="&#x1fa;" horiz-adv-x="618" 
d="M252 869l69 120l117 -26v-9l-82 -95h-104v10zM152 0h-148v20l248 624q-55 27 -55 91q0 46 30 73.5t80 27.5q51 0 82 -27.5t31 -73.5q0 -63 -53 -90l247 -625v-20h-147l-41 116h-234zM270 734q0 -19 11.5 -29t27.5 -10t28 10t12 29q0 18 -11 29t-29 11q-17 0 -28 -11
t-11 -29zM238 242h143l-70 216h-4z" />
    <glyph glyph-name="aringacute" unicode="&#x1fb;" horiz-adv-x="469" 
d="M171 770l73 120l121 -36v-9l-87 -85h-107v10zM344 629q0 -48 -30.5 -77t-81.5 -29t-82 29t-31 77t30.5 77t81.5 29t82 -29t31 -77zM191 629q0 -19 11 -30t30 -11q18 0 29 11t11 30t-11 30.5t-28 11.5q-19 0 -30.5 -11.5t-11.5 -30.5zM309 74q-17 -42 -56 -63t-81 -21
q-67 0 -108 42.5t-41 113.5t43.5 114t115.5 43q55 0 100 -25v38q0 35 -27.5 53t-67.5 18q-66 2 -111 -27l-24 91q73 41 158 41q200 0 200 -180v-172q0 -35 8.5 -49.5t35.5 -12.5l1 -78q-33 -6 -64.5 -7t-55.5 20t-26 61zM281 191q-36 22 -75 22q-23 0 -38.5 -16.5
t-15.5 -42.5q0 -25 14 -40t40 -15q32 0 52.5 23t22.5 69z" />
    <glyph glyph-name="AEacute" unicode="&#x1fc;" horiz-adv-x="717" 
d="M360 768l67 156l112 -35v-12l-81 -122h-98v13zM4 0v22l278 676h385v-119h-200v-157h185v-117h-185v-182h209v-123h-329v169h-141l-59 -169h-143zM347 291l5 279h-1l-102 -279h98z" />
    <glyph glyph-name="aeacute" unicode="&#x1fd;" horiz-adv-x="675" 
d="M283 563l64 160l115 -44v-12l-76 -113h-103v9zM176 -10q-64 0 -107.5 41.5t-45.5 108.5q-2 75 43.5 121t121.5 46q52 0 93 -25v27q0 40 -33 59t-65 19q-63 0 -111 -31l-21 94q71 42 157 42q107 0 136 -88q22 41 58.5 64.5t78.5 23.5q58 0 95.5 -25.5t50.5 -66t16.5 -90.5
t-6.5 -99h-247q6 -117 106 -119q56 -2 125 36l16 -96q-74 -42 -157 -42q-102 0 -146 90q-57 -90 -158 -90zM392 303h137q4 81 -64 81q-27 0 -47 -21t-26 -60zM281 196q-32 22 -74 22q-26 0 -42 -18.5t-16 -45.5t15 -42t42 -15q71 0 75 99z" />
    <glyph glyph-name="Oslashacute" unicode="&#x1fe;" horiz-adv-x="675" 
d="M278 802l66 156l122 -47v-12l-81 -110h-107v13zM613 742l-64 -120q92 -99 92 -272q0 -169 -90.5 -265.5t-212.5 -96.5q-56 0 -99 22l-35 -70h-132v15l62 117q-99 102 -99 278q0 168 89.5 264.5t214.5 96.5q55 0 108 -24l33 69h133v-14zM214 200l167 358q-24 11 -42 11
q-69 0 -115.5 -63t-46.5 -156q0 -98 37 -150zM468 492l-163 -352q17 -10 35 -10q63 0 111.5 62.5t48.5 157.5q0 81 -32 142z" />
    <glyph glyph-name="oslashacute" unicode="&#x1ff;" horiz-adv-x="499" 
d="M189 568l63 148l114 -45v-11l-77 -104h-100v12zM433 541l-45 -96q82 -69 82 -202q0 -114 -60.5 -183.5t-158.5 -69.5q-36 0 -72 11l-28 -60h-79l44 94q-87 68 -87 208q0 112 61 180.5t161 68.5q36 0 72 -11l28 60h82zM161 243q0 -47 15 -78l94 202q-14 2 -19 2
q-41 0 -65.5 -34.5t-24.5 -91.5zM251 112q40 0 64 35.5t24 95.5q0 39 -13 71l-94 -200q14 -2 19 -2z" />
    <glyph glyph-name="Scommaaccent" unicode="&#x218;" horiz-adv-x="548" 
d="M34 212h135q2 -45 33 -68t74 -23q102 0 102 85q0 23 -8.5 39.5t-18 25t-29.5 14.5t-30.5 7.5t-32.5 3.5q-106 9 -161.5 63t-55.5 137q0 98 62.5 156t165.5 58q96 0 162 -51t66 -160h-132q-3 40 -30 61t-65 21q-37 0 -63.5 -22t-26.5 -60q0 -42 25.5 -60t76.5 -25
q235 -27 235 -208q0 -114 -68.5 -165t-172.5 -51q-100 0 -171.5 57t-71.5 165zM348 -101q1 -7 1 -24q0 -13 -5 -30l-34 -106h-69l20 68q-49 15 -49 69q0 34 20 53t48 19q25 0 44.5 -13t23.5 -36z" />
    <glyph glyph-name="scommaaccent" unicode="&#x219;" horiz-adv-x="434" 
d="M28 150h130q1 -26 16.5 -42.5t40.5 -16.5q27 0 43 13t16 37q0 44 -51 52q-37 6 -64 14t-58 23.5t-48 43.5t-17 67q0 69 49 110t130 41q77 0 129.5 -40t48.5 -112h-117q-2 21 -18 34t-40 13t-38.5 -11.5t-14.5 -32.5q0 -40 53 -47q45 -6 70 -12.5t57 -22t47 -45t15 -73.5
q0 -69 -51 -111t-135 -42q-92 0 -141.5 43t-51.5 117zM295 -114q0 -15 -5 -28l-2 -11q-6 -22 -31 -98h-67l19 74q-47 16 -47 64q0 30 18 48t48 18q29 0 48 -18t19 -49z" />
    <glyph glyph-name="circumflex" unicode="&#x2c6;" horiz-adv-x="432" 
d="M228 618l-60 -78h-128v14l122 148h133l121 -149v-13h-126z" />
    <glyph glyph-name="caron" unicode="&#x2c7;" horiz-adv-x="464" 
d="M230 623l59 78h130v-13l-123 -148h-132l-122 148v13h128z" />
    <glyph glyph-name="breve" unicode="&#x2d8;" horiz-adv-x="461" 
d="M48 701h116q0 -33 22 -50.5t47 -13.5q24 2 41.5 19t19.5 45h114q0 -80 -54 -127.5t-126 -47.5q-74 0 -127 45.5t-53 129.5z" />
    <glyph glyph-name="dotaccent" unicode="&#x2d9;" horiz-adv-x="285" 
d="M130 558q-33 0 -55 20t-22 56q0 35 22 56t55 21q34 0 56 -20t22 -57q0 -34 -22.5 -55t-55.5 -21z" />
    <glyph glyph-name="ring" unicode="&#x2da;" horiz-adv-x="334" 
d="M276 611q0 -49 -33 -82.5t-75 -35.5q-46 -2 -80 28.5t-34 89.5q0 49 32 82.5t76 35.5q45 2 79.5 -28.5t34.5 -89.5zM126 611q0 -39 37 -45q16 -2 29 10.5t13 34.5q0 20 -11 32t-27 14t-28.5 -10.5t-12.5 -35.5z" />
    <glyph glyph-name="ogonek" unicode="&#x2db;" horiz-adv-x="321" 
d="M109 9h94q-22 -12 -37.5 -34.5t-17.5 -45.5q-4 -33 15 -48.5t47 -9.5q31 8 54 27l18 -89q-57 -44 -128 -36q-79 9 -99 88q-19 82 54 148z" />
    <glyph glyph-name="tilde" unicode="&#x2dc;" horiz-adv-x="356" 
d="M91 583l-66 33q16 48 39.5 71t59.5 25q18 0 39 -7t35.5 -14.5t28 -11.5t23 2t15.5 26l66 -30q-9 -41 -33 -68.5t-59 -29.5q-24 -2 -62.5 15.5t-42.5 18.5q-30 7 -43 -30z" />
    <glyph glyph-name="hungarumlaut" unicode="&#x2dd;" horiz-adv-x="453" 
d="M51 563l52 150l118 -28v-11l-67 -123h-103v12zM241 563l52 139l117 -34v-12l-66 -105h-103v12z" />
    <glyph glyph-name="uni0401" unicode="&#x401;" horiz-adv-x="484" 
d="M151 756q-30 0 -51 19.5t-21 52.5q0 32 20.5 52t51.5 20q30 0 51 -19t21 -53q0 -32 -21.5 -52t-50.5 -20zM354 756q-30 0 -51 19.5t-21 52.5q0 32 20.5 52t51.5 20q30 0 51 -19.5t21 -52.5q0 -32 -21 -52t-51 -20zM208 569v-142h210v-131h-210v-160h233v-136h-375v700
h368v-131h-226z" />
    <glyph glyph-name="uni0402" unicode="&#x402;" horiz-adv-x="646" 
d="M615 248v-160q0 -242 -212 -194l4 103q46 -6 61 13t15 79v159q0 48 -24 75t-59 28q-37 0 -66.5 -33.5t-31.5 -79.5v-238h-137v570h-150v130h475v-130h-188v-180q19 41 60 60t81 16q79 -2 125.5 -61t46.5 -157z" />
    <glyph glyph-name="uni0403" unicode="&#x403;" horiz-adv-x="442" 
d="M188 777l76 160l119 -46v-13l-90 -114h-105v13zM207 569v-569h-141v700h366v-131h-225z" />
    <glyph glyph-name="uni0404" unicode="&#x404;" horiz-adv-x="645" 
d="M338 709q104 0 182 -63t95 -186h-134q-27 114 -143 114q-60 0 -102 -44t-55 -119h208v-120h-209q13 -76 54.5 -120t103.5 -44q53 0 91 32t52 94h136q-17 -133 -96 -197.5t-183 -64.5q-136 0 -220 98.5t-84 259.5q0 162 84 261t220 99z" />
    <glyph glyph-name="uni0405" unicode="&#x405;" horiz-adv-x="548" 
d="M34 212h135q2 -45 33 -68t74 -23q102 0 102 85q0 23 -8.5 39.5t-18 25t-29.5 14.5t-30.5 7.5t-32.5 3.5q-106 9 -161.5 63t-55.5 137q0 98 62.5 156t165.5 58q96 0 162 -51t66 -160h-132q-3 40 -30 61t-65 21q-37 0 -63.5 -22t-26.5 -60q0 -42 25.5 -60t76.5 -25
q235 -27 235 -208q0 -114 -68.5 -165t-172.5 -51q-100 0 -171.5 57t-71.5 165z" />
    <glyph glyph-name="uni0406" unicode="&#x406;" horiz-adv-x="374" 
d="M337 0h-301v119h80v465h-73v116h288v-116h-73v-465h79v-119z" />
    <glyph glyph-name="uni0407" unicode="&#x407;" horiz-adv-x="373" 
d="M87 748q-31 0 -52.5 19.5t-21.5 52.5q0 32 21 52t53 20q31 0 52.5 -19t21.5 -53q0 -33 -21.5 -52.5t-52.5 -19.5zM288 748q-31 0 -52.5 19.5t-21.5 52.5q0 32 21 52t53 20q30 0 51.5 -19.5t21.5 -52.5q0 -32 -21 -52t-52 -20zM337 0h-301v119h80v465h-73v116h287v-116
h-73v-465h80v-119z" />
    <glyph glyph-name="uni0408" unicode="&#x408;" horiz-adv-x="533" 
d="M472 700v-468q0 -111 -62.5 -176.5t-165.5 -65.5q-101 0 -162.5 66.5t-61.5 175.5v85h132v-82q0 -51 24.5 -81.5t66.5 -30.5q40 0 63.5 29.5t23.5 82.5v336h-96v129h238z" />
    <glyph glyph-name="uni0409" unicode="&#x409;" horiz-adv-x="870" 
d="M519 477h105q102 0 164 -65t62 -172q0 -109 -62 -174.5t-164 -65.5h-239v566h-117l-25 -347q-12 -144 -63 -190t-177 -26l3 108q52 -8 71 18t25 96l42 475h375v-223zM519 132h105q42 0 66.5 29.5t23.5 78.5q-1 48 -25.5 76.5t-64.5 28.5h-105v-213z" />
    <glyph glyph-name="uni040A" unicode="&#x40a;" horiz-adv-x="848" 
d="M521 457h86q100 0 161 -62.5t61 -164.5q0 -104 -62 -167t-162 -63h-222v315h-176v-315h-141v700h141v-248h176v248h138v-243zM521 132h84q39 2 62.5 28.5t23.5 69.5t-23.5 69t-62.5 26h-84v-193z" />
    <glyph glyph-name="uni040B" unicode="&#x40b;" horiz-adv-x="648" 
d="M483 0v248q0 48 -24 75t-59 28q-37 0 -66.5 -34t-31.5 -80v-237h-137v570h-150v130h475v-130h-188v-185q15 42 56.5 64t83.5 22q84 0 128.5 -62.5t44.5 -160.5v-248h-132z" />
    <glyph glyph-name="uni040C" unicode="&#x40c;" horiz-adv-x="603" 
d="M245 763l77 160l118 -46v-13l-89 -114h-106v13zM431 0l-140 288q-20 -7 -84 -7v-281h-141v700h141v-289q77 0 95 13q11 7 19 18t15 37.5t10 39.5t12 57q36 164 210 123v-102q-33 4 -52 -11t-27 -54q-32 -134 -74 -186q20 -36 81 -149t95 -175v-22h-160z" />
    <glyph glyph-name="uni040E" unicode="&#x40e;" horiz-adv-x="542" 
d="M131 902l85 8q2 -26 18 -42.5t41 -16.5q26 0 43 16t21 43l84 -8q-3 -69 -43 -110.5t-104 -41.5q-63 0 -103 42t-42 110zM2 692v8h154l124 -309h4l111 309h152v-8l-214 -521q-35 -88 -74.5 -131t-103.5 -43q-47 0 -103 24l19 122q30 -15 52 -15q26 0 41.5 16t27.5 52
l15 43z" />
    <glyph glyph-name="uni040F" unicode="&#x40f;" horiz-adv-x="618" 
d="M64 0v700h142v-564h205v564h141v-700h-174v-135h-136v135h-178z" />
    <glyph glyph-name="uni0410" unicode="&#x410;" horiz-adv-x="618" 
d="M614 0h-147l-43 116h-230l-42 -116h-148v20l270 687h71l269 -687v-20zM347 326l-38 131l-40 -132l-30 -83h139z" />
    <glyph glyph-name="uni0411" unicode="&#x411;" horiz-adv-x="562" 
d="M205 440h109q100 0 161 -59t61 -156q0 -102 -61 -163.5t-161 -61.5h-248v700h420v-131h-281v-129zM205 131h108q38 0 61.5 25.5t23.5 67.5t-23.5 66.5t-61.5 24.5h-108v-184z" />
    <glyph glyph-name="uni0412" unicode="&#x412;" horiz-adv-x="570" 
d="M511 492q0 -39 -17 -74t-46 -55q88 -40 88 -156q0 -93 -58 -150t-152 -57h-260v700h238q93 0 150 -57t57 -151zM207 412h96q30 0 49.5 21.5t19.5 56.5q0 37 -18.5 59.5t-50.5 22.5h-96v-160zM207 130h121q31 0 49.5 21t18.5 56q0 38 -20 60.5t-52 22.5h-117v-160z" />
    <glyph glyph-name="uni0413" unicode="&#x413;" horiz-adv-x="443" 
d="M207 565v-565h-141v700h366v-135h-225z" />
    <glyph glyph-name="uni0414" unicode="&#x414;" horiz-adv-x="640" 
d="M15 127h27q34 0 46.5 21.5t18.5 76.5l49 475h390v-573h62v-226h-123v99h-346v-99h-124v226zM279 571l-32 -352q-7 -71 -34 -95h193v447h-127z" />
    <glyph glyph-name="uni0415" unicode="&#x415;" horiz-adv-x="484" 
d="M208 569v-142h210v-131h-210v-160h233v-136h-375v700h368v-131h-226z" />
    <glyph glyph-name="uni0416" unicode="&#x416;" horiz-adv-x="881" 
d="M707 0l-140 287q-26 -9 -57 -9v-278h-140v278q-31 0 -57 9l-139 -287h-160v22l176 324q-40 50 -70 189q-15 76 -83 62v101q82 20 138 -7.5t71 -115.5q20 -120 60 -147q20 -16 64 -16v288h140v-288q45 0 65 16q40 29 60 147q28 167 209 123v-101q-68 14 -84 -62
q-13 -54 -19.5 -78t-20 -57.5t-29.5 -53.5l176 -324v-22h-160z" />
    <glyph glyph-name="uni0417" unicode="&#x417;" horiz-adv-x="502" 
d="M171 524h-125q-4 91 51.5 138.5t140.5 47.5q90 0 144 -53.5t54 -140.5q0 -43 -18 -79.5t-49 -56.5q100 -52 100 -177q0 -96 -63 -154.5t-167 -58.5q-97 0 -156 64t-59 169h125q0 -49 24.5 -79t65.5 -30q40 0 64.5 26.5t24.5 71.5q0 43 -24 71.5t-65 28.5h-52v120h50
q31 0 50 23t19 58t-18.5 56.5t-49.5 21.5q-27 0 -47 -17t-20 -50z" />
    <glyph glyph-name="uni0418" unicode="&#x418;" horiz-adv-x="640" 
d="M66 -7v707h142v-390l322 397h44v-707h-141v393l-325 -400h-42z" />
    <glyph glyph-name="uni0419" unicode="&#x419;" horiz-adv-x="640" 
d="M199 897l85 8q2 -26 18 -42.5t41 -16.5q26 0 43 16t21 43l84 -8q-3 -69 -43 -110.5t-104 -41.5q-63 0 -103 42t-42 110zM66 -7v707h142v-390l322 397h44v-707h-141v393l-325 -400h-42z" />
    <glyph glyph-name="uni041A" unicode="&#x41a;" horiz-adv-x="603" 
d="M431 0l-140 288q-20 -7 -84 -7v-281h-141v700h141v-289q77 0 95 13q11 7 19 18t15 37.5t10 39.5t12 57q36 164 210 123v-102q-33 4 -52 -11t-27 -54q-32 -134 -74 -186q20 -36 81 -149t95 -175v-22h-160z" />
    <glyph glyph-name="uni041B" unicode="&#x41b;" horiz-adv-x="615" 
d="M263 566l-26 -365q-10 -136 -59.5 -177t-173.5 -21l3 108q50 -6 66.5 14t22.5 81l43 494h410v-700h-141v566h-145z" />
    <glyph glyph-name="uni041C" unicode="&#x41c;" horiz-adv-x="708" 
d="M642 708v-708h-141v360l-138 -201h-17l-138 201v-360h-142v708h51l238 -339l237 339h50z" />
    <glyph glyph-name="uni041D" unicode="&#x41d;" horiz-adv-x="621" 
d="M413 298h-206v-298h-141v700h141v-267h206v267h142v-700h-142v298z" />
    <glyph glyph-name="uni041E" unicode="&#x41e;" horiz-adv-x="677" 
d="M643 350q0 -162 -84 -261t-220 -99q-137 0 -221 99t-84 261t84 261t221 99q136 0 220 -99t84 -261zM176 350q0 -102 44.5 -163.5t118.5 -61.5t118.5 61.5t44.5 163.5q0 101 -44.5 162.5t-118.5 61.5t-118.5 -61.5t-44.5 -162.5z" />
    <glyph glyph-name="uni041F" unicode="&#x41f;" horiz-adv-x="620" 
d="M554 0h-141v570h-205v-570h-142v700h488v-700z" />
    <glyph glyph-name="uni0420" unicode="&#x420;" horiz-adv-x="558" 
d="M66 700h239q104 0 168.5 -70t64.5 -184q0 -111 -63 -179t-164 -68h-103v-198h-142v699zM205 327h106q40 0 65.5 33.5t25.5 89.5q0 54 -25.5 87t-65.5 33h-106v-243z" />
    <glyph glyph-name="uni0421" unicode="&#x421;" horiz-adv-x="645" 
d="M34 349q0 162 84 261t220 99q104 0 182 -63t95 -186h-134q-27 114 -143 114q-73 0 -117.5 -61.5t-44.5 -163.5q0 -100 44.5 -161t117.5 -61q53 0 91 32t52 94h136q-17 -133 -96 -197.5t-183 -64.5q-136 0 -220 98.5t-84 259.5z" />
    <glyph glyph-name="uni0422" unicode="&#x422;" horiz-adv-x="471" 
d="M15 700h441v-130h-151v-570h-138v570h-152v130z" />
    <glyph glyph-name="uni0423" unicode="&#x423;" horiz-adv-x="542" 
d="M2 692v8h154l124 -309h4l111 309h152v-8l-214 -521q-35 -88 -74.5 -131t-103.5 -43q-47 0 -103 24l19 122q30 -15 52 -15q26 0 41.5 16t27.5 52l15 43z" />
    <glyph glyph-name="uni0424" unicode="&#x424;" horiz-adv-x="738" 
d="M304 -2v74q-135 5 -209 78t-74 201t74.5 201.5t207.5 79.5v70h132v-70q133 -6 207.5 -79.5t74.5 -201.5t-74 -201t-209 -78v-74h-130zM163 351q0 -70 37.5 -111t104.5 -45v311q-67 -2 -104.5 -42.5t-37.5 -112.5zM575 351q0 72 -37.5 112.5t-104.5 42.5v-311
q67 4 104.5 45t37.5 111z" />
    <glyph glyph-name="uni0425" unicode="&#x425;" horiz-adv-x="577" 
d="M289 470h1q22 62 38 94l70 136h151v-22l-175 -308l196 -349v-21h-152l-87 161q-29 57 -42 97h-1q-16 -47 -42 -95l-86 -163h-153v21l197 349l-177 308v22h153l70 -137q22 -47 39 -93z" />
    <glyph glyph-name="uni0426" unicode="&#x426;" horiz-adv-x="638" 
d="M64 700h142v-564h192v564h143v-573h66v-217h-119v90h-424v700z" />
    <glyph glyph-name="uni0427" unicode="&#x427;" horiz-adv-x="554" 
d="M348 0v250q-172 -25 -245.5 47.5t-73.5 282.5v120h143v-120q0 -139 33 -179t143 -22v321h140v-700h-140z" />
    <glyph glyph-name="uni0428" unicode="&#x428;" horiz-adv-x="880" 
d="M207 700v-564h162v564h141v-564h162v564h142v-700h-748v700h141z" />
    <glyph glyph-name="uni0429" unicode="&#x429;" horiz-adv-x="907" 
d="M207 700v-564h160v564h140v-564h161v564h141v-573h67v-217h-119v90h-693v700h143z" />
    <glyph glyph-name="uni042A" unicode="&#x42a;" horiz-adv-x="598" 
d="M247 700v-219h108q100 0 161.5 -65.5t61.5 -173.5q0 -109 -61.5 -175.5t-161.5 -66.5h-247v574h-93v126h232zM247 132h107q40 0 64 30t23 80q0 48 -24 77.5t-63 29.5h-107v-217z" />
    <glyph glyph-name="uni042B" unicode="&#x42b;" horiz-adv-x="824" 
d="M204 477h105q102 0 164 -65t62 -172q0 -109 -62 -174.5t-164 -65.5h-243v700h138v-223zM617 0v700h141v-700h-141zM204 132h105q42 0 66.5 29.5t23.5 78.5q-1 48 -25.5 76.5t-64.5 28.5h-105v-213z" />
    <glyph glyph-name="uni042C" unicode="&#x42c;" horiz-adv-x="555" 
d="M204 477h105q102 0 164 -65t62 -172q0 -109 -62 -174.5t-164 -65.5h-243v700h138v-223zM204 132h105q42 0 66.5 29.5t23.5 78.5q-1 48 -25.5 76.5t-64.5 28.5h-105v-213z" />
    <glyph glyph-name="uni042D" unicode="&#x42d;" horiz-adv-x="645" 
d="M307 709q136 0 220 -99t84 -261q0 -161 -84 -259.5t-220 -98.5q-105 0 -183.5 64.5t-95.5 197.5h136q14 -62 52 -94t91 -32q62 0 103.5 44t54.5 120h-209v120h208q-13 75 -55 119t-102 44q-116 0 -143 -114h-134q17 123 95 186t182 63z" />
    <glyph glyph-name="uni042E" unicode="&#x42e;" horiz-adv-x="926" 
d="M590 712q136 0 219 -100t83 -262q0 -165 -84 -264.5t-221 -99.5q-117 0 -198.5 81.5t-96.5 225.5h-86v-293h-142v700h142v-271h89q24 137 101.5 210t193.5 73zM589 128q73 0 117.5 61t44.5 161q0 98 -45 158.5t-119 60.5q-73 0 -117 -60.5t-44 -158.5q0 -100 44.5 -161
t118.5 -61z" />
    <glyph glyph-name="uni042F" unicode="&#x42f;" horiz-adv-x="587" 
d="M521 1h-142v218h-96l-106 -219h-150v6l123 245q-106 64 -106 206q0 112 66.5 177.5t171.5 65.5h239v-699zM382 570h-106q-42 0 -69 -29t-27 -81q0 -54 27 -83.5t69 -29.5h106v223z" />
    <glyph glyph-name="uni0430" unicode="&#x430;" horiz-adv-x="469" 
d="M309 74q-17 -42 -56 -63t-81 -21q-67 0 -108 42.5t-41 113.5t43.5 114t115.5 43q55 0 100 -25v38q0 35 -27.5 53t-67.5 18q-66 2 -111 -27l-24 91q73 41 158 41q200 0 200 -180v-172q0 -35 8.5 -49.5t35.5 -12.5l1 -78q-33 -6 -64.5 -7t-55.5 20t-26 61zM281 191
q-36 22 -75 22q-23 0 -38.5 -16.5t-15.5 -42.5q0 -25 14 -40t40 -15q32 0 52.5 23t22.5 69z" />
    <glyph glyph-name="uni0431" unicode="&#x431;" horiz-adv-x="511" 
d="M289 478q90 0 143 -67.5t49 -178.5q-4 -109 -63.5 -175.5t-153.5 -66.5q-98 0 -151.5 59t-66.5 158q-47 342 190 449q28 12 43.5 29t15.5 50h119q17 -112 -109 -175q-62 -30 -90.5 -60t-39.5 -90q21 34 52 51t62 17zM170 234q1 -56 26 -89.5t67 -33.5t66.5 33.5
t23.5 89.5t-26 89.5t-67 33.5t-66.5 -33.5t-23.5 -89.5z" />
    <glyph glyph-name="uni0432" unicode="&#x432;" horiz-adv-x="455" 
d="M406 354q0 -33 -18 -59t-47 -35q39 -13 62 -45.5t23 -75.5q0 -140 -182 -140h-192v483h163q191 0 191 -128zM179 297h43q55 0 55 42q0 21 -15 33.5t-40 12.5h-43v-88zM179 104h51q68 0 68 50q0 51 -69 51h-50v-101z" />
    <glyph glyph-name="uni0433" unicode="&#x433;" horiz-adv-x="376" 
d="M52 482h307v-122h-178v-360h-129v482z" />
    <glyph glyph-name="uni0434" unicode="&#x434;" horiz-adv-x="522" 
d="M19 -104l-4 212q16 0 27.5 2.5t19.5 10.5t12.5 13.5t8.5 21t5 23.5t4 30t4 31l31 242h314v-374h54l-5 -212h-113v104h-245v-104h-113zM231 367l-15 -156l-5 -37q-5 -44 -24 -66h128v259h-84z" />
    <glyph glyph-name="uni0435" unicode="&#x435;" horiz-adv-x="467" 
d="M246 492q112 0 160.5 -77.5t21.5 -202.5h-266q6 -108 119 -108q70 0 132 31l14 -102q-78 -43 -161 -43q-105 0 -170.5 69t-65.5 188q0 118 63.5 181.5t152.5 63.5zM163 302h156q2 43 -19.5 63t-53.5 20q-31 0 -54 -21.5t-29 -61.5z" />
    <glyph glyph-name="uni0436" unicode="&#x436;" horiz-adv-x="682" 
d="M660 0h-134l-82 196q-26 -2 -41 -2v-194h-125v194q-14 0 -40 2l-84 -196h-132v15l103 216q-46 31 -62.5 92.5t-10.5 158.5h124q-3 -53 2 -89t27.5 -63t64.5 -27h8v180h125v-180h10q41 0 63 27t27 63t2 89h125q13 -185 -76 -248l106 -219v-15z" />
    <glyph glyph-name="uni0437" unicode="&#x437;" horiz-adv-x="424" 
d="M46 355l-6 100q62 39 157 37q175 0 175 -133q0 -36 -17 -62.5t-44 -36.5q38 -13 61 -45t23 -78q0 -147 -189 -147q-102 0 -178 44l6 111q19 -14 66 -29t85 -15q70 0 70 51q0 50 -70 50h-68v94h62q54 0 54 46q0 45 -60 45q-28 0 -65.5 -9t-61.5 -23z" />
    <glyph glyph-name="uni0438" unicode="&#x438;" horiz-adv-x="504" 
d="M52 -1v483h127v-233l234 235h39v-484h-128v249l-238 -250h-34z" />
    <glyph glyph-name="uni0439" unicode="&#x439;" horiz-adv-x="504" 
d="M130 691l78 9q3 -50 58 -51q56 0 62 51q69 -8 77 -9q-6 -135 -138 -135q-131 0 -137 135zM452 0h-128v249l-238 -250h-34v483h127v-233l234 235h39v-484z" />
    <glyph glyph-name="uni043A" unicode="&#x43a;" horiz-adv-x="482" 
d="M460 1h-136l-88 196q-21 -4 -53 -2v-194h-131v481h131v-177h23q116 0 107 177h125q7 -172 -90 -244l112 -223v-14z" />
    <glyph glyph-name="uni043B" unicode="&#x43b;" horiz-adv-x="511" 
d="M229 359l-12 -176q-10 -126 -52.5 -163.5t-155.5 -19.5l3 101q45 -6 58.5 12.5t17.5 74.5l27 294h344v-482h-129v359h-101z" />
    <glyph glyph-name="uni043C" unicode="&#x43c;" horiz-adv-x="558" 
d="M178 216v-214h-126v485h39l188 -221l188 221h39v-485h-126v214l-97 -111h-10z" />
    <glyph glyph-name="uni043D" unicode="&#x43d;" horiz-adv-x="505" 
d="M453 0h-128v190h-146v-190h-127v482h127v-172h146v172h128v-482z" />
    <glyph glyph-name="uni043E" unicode="&#x43e;" horiz-adv-x="499" 
d="M470 243q0 -114 -60.5 -183.5t-158.5 -69.5q-100 0 -161 69.5t-61 183.5q0 112 61 180.5t161 68.5q98 0 158.5 -68.5t60.5 -180.5zM161 243q0 -60 24.5 -95.5t65.5 -35.5q40 0 64 35.5t24 95.5q0 57 -24 91.5t-64 34.5q-41 0 -65.5 -34.5t-24.5 -91.5z" />
    <glyph glyph-name="uni043F" unicode="&#x43f;" horiz-adv-x="504" 
d="M452 0h-131v359h-136v-359h-133v482h400v-482z" />
    <glyph glyph-name="uni0440" unicode="&#x440;" 
d="M177 408q41 84 128 84q85 0 133.5 -65t48.5 -182q0 -114 -52.5 -184.5t-136.5 -70.5q-49 0 -96 25v-262h-131v566q0 21 -1 32.5t-5.5 22.5t-14.5 15t-26 3v93q23 6 46 7t48 -4.5t41 -25.5t18 -54zM199 256v-125q28 -23 67 -23q42 0 65 37t23 100q0 58 -22 90.5t-60 32.5
q-32 0 -52.5 -34t-20.5 -78z" />
    <glyph glyph-name="uni0441" unicode="&#x441;" horiz-adv-x="480" 
d="M454 308h-125q-8 31 -30.5 46t-49.5 15q-39 0 -63 -34.5t-24 -91.5q0 -60 24.5 -96.5t65.5 -36.5q26 0 47.5 19t30.5 56h125q-11 -97 -67.5 -146t-135.5 -49q-100 0 -161 69.5t-61 183.5q0 112 60.5 180.5t159.5 68.5q76 0 134.5 -47.5t69.5 -136.5z" />
    <glyph glyph-name="uni0442" unicode="&#x442;" horiz-adv-x="392" 
d="M132 360h-115v122h358v-122h-115v-358h-128v358z" />
    <glyph glyph-name="uni0443" unicode="&#x443;" horiz-adv-x="485" 
d="M471 466l-170 -513q-35 -104 -71.5 -153.5t-101.5 -49.5q-39 0 -88 26l12 98q26 -14 48 -14q29 0 45 21.5t29 67.5l14 50l-177 467v16h141l58 -179l40 -141h3l36 143l51 177h131v-16z" />
    <glyph glyph-name="uni0444" unicode="&#x444;" horiz-adv-x="711" 
d="M517 492q72 0 117 -70t45 -181q0 -113 -46 -182t-122 -69q-49 0 -90 22v-257h-130v257q-41 -22 -94 -22q-74 0 -119.5 69t-45.5 182q0 112 44 181t118 69q60 0 97 -16v253h130v-255q49 19 96 19zM478 108q31 0 50 36.5t19 96.5t-19 95.5t-50 35.5q-29 2 -60 -14v-231
q21 -19 60 -19zM232 108q38 -2 63 19v229q-30 16 -61 16q-32 0 -51 -35.5t-19 -95.5t18.5 -96t49.5 -37z" />
    <glyph glyph-name="uni0445" unicode="&#x445;" horiz-adv-x="467" 
d="M457 0h-144l-54 90q-9 16 -27 58q-18 -42 -27 -58l-54 -90h-145v7l153 247l-134 221v7h144l41 -67q11 -20 29 -60q13 34 28 60l41 67h140v-7l-137 -227l146 -241v-7z" />
    <glyph glyph-name="uni0446" unicode="&#x446;" horiz-adv-x="512" 
d="M51 482h126v-359h128v359h126v-374h53l-7 -210h-109v102h-317v482z" />
    <glyph glyph-name="uni0447" unicode="&#x447;" horiz-adv-x="474" 
d="M159 482v-135q0 -47 16.5 -69t57.5 -22q33 0 60 22v204h129v-482h-132v157q-51 -21 -97 -21q-166 0 -166 211v135h132z" />
    <glyph glyph-name="uni0448" unicode="&#x448;" horiz-adv-x="704" 
d="M288 482h128v-359h110v359h126v-482h-600v482h126v-359h110v359z" />
    <glyph glyph-name="uni0449" unicode="&#x449;" horiz-adv-x="733" 
d="M289 482h126v-359h110v359h127v-374h53l-6 -211h-110v103h-538v482h127v-359h111v359z" />
    <glyph glyph-name="uni044A" unicode="&#x44a;" horiz-adv-x="486" 
d="M99 368h-85v114h211v-141h61q82 0 132 -46.5t50 -124.5q0 -77 -50.5 -123.5t-132.5 -46.5h-186v368zM225 104h58q26 0 42 18t16 48t-16 48t-42 18h-58v-132z" />
    <glyph glyph-name="uni044B" unicode="&#x44b;" horiz-adv-x="663" 
d="M52 0v482h126v-141h62q82 0 132 -46.5t50 -124.5q0 -77 -50.5 -123.5t-132.5 -46.5h-187zM612 481v-481h-122v481h122zM178 104h59q26 0 42 18t16 48t-16 48t-42 18h-59v-132z" />
    <glyph glyph-name="uni044C" unicode="&#x44c;" horiz-adv-x="440" 
d="M52 0v482h126v-141h62q82 0 132 -46.5t50 -124.5q0 -77 -50.5 -123.5t-132.5 -46.5h-187zM178 104h59q26 0 42 18t16 48t-16 48t-42 18h-59v-132z" />
    <glyph glyph-name="uni044D" unicode="&#x44d;" horiz-adv-x="484" 
d="M203 289h114q-8 41 -29.5 62t-51.5 21q-29 -1 -52.5 -18t-32.5 -49l-125 1q11 90 71 139t139 49q89 0 153.5 -67t64.5 -186t-65 -186t-155 -67q-79 0 -139 51.5t-71 145.5h126q9 -37 32.5 -56.5t51.5 -19.5q67 0 83 83h-114v97z" />
    <glyph glyph-name="uni044E" unicode="&#x44e;" horiz-adv-x="703" 
d="M673 241q0 -114 -59.5 -183.5t-158.5 -69.5q-76 0 -134 52t-75 149h-67v-189h-128v482h128v-172h72q19 89 76 137t130 48q97 0 156.5 -70t59.5 -184zM369 241q0 -60 24 -95.5t63 -34.5q38 0 61.5 35.5t23.5 94.5t-23.5 94.5t-61.5 35.5q-39 1 -63 -34.5t-24 -95.5z" />
    <glyph glyph-name="uni044F" unicode="&#x44f;" horiz-adv-x="477" 
d="M23 15l92 158q-33 19 -53 58t-20 84q0 69 40 118t109 49h234v-482h-133v146h-47l-82 -146h-140v15zM292 376h-61q-27 0 -41.5 -18t-14.5 -45t14.5 -43t41.5 -16h61v122z" />
    <glyph glyph-name="uni0451" unicode="&#x451;" horiz-adv-x="467" 
d="M158 549q-29 0 -48.5 17.5t-19.5 48.5q0 30 19 48.5t49 18.5q28 0 48 -18.5t20 -48.5q0 -31 -19.5 -48.5t-48.5 -17.5zM349 549q-29 0 -48.5 17.5t-19.5 48.5q0 30 19 48.5t49 18.5t49 -18.5t19 -48.5t-19.5 -48t-48.5 -18zM246 492q112 0 160.5 -77.5t21.5 -202.5h-266
q6 -108 119 -108q70 0 132 31l14 -102q-78 -43 -161 -43q-105 0 -170.5 69t-65.5 188q0 118 63.5 181.5t152.5 63.5zM163 302h156q2 43 -19.5 63t-53.5 20q-31 0 -54 -21.5t-29 -61.5z" />
    <glyph glyph-name="uni0452" unicode="&#x452;" horiz-adv-x="509" 
d="M260 -111v105q44 -6 57.5 14t13.5 79v192q-2 50 -20 76.5t-48 26.5q-31 0 -54.5 -36.5t-23.5 -85.5v-260h-133v581h-61v84h61v65h133v-65h111v-84h-111v-155q28 71 117 71q45 0 77 -18t49.5 -49.5t25.5 -68.5t8 -82v-193q0 -121 -53 -168.5t-149 -28.5z" />
    <glyph glyph-name="uni0453" unicode="&#x453;" horiz-adv-x="378" 
d="M146 569l67 159l113 -43v-11l-80 -118h-100v13zM52 482h310v-122h-181v-360h-129v482z" />
    <glyph glyph-name="uni0454" unicode="&#x454;" horiz-adv-x="484" 
d="M281 288v-94h-114q17 -85 80 -85q29 0 54 19.5t33 56.5h126q-11 -94 -71 -145.5t-138 -51.5q-88 0 -154.5 67t-66.5 186t65 186t153 67q77 0 138 -49t72 -139l-125 -1q-8 32 -32 49t-53 18q-30 0 -51.5 -21.5t-29.5 -62.5h114z" />
    <glyph glyph-name="uni0455" unicode="&#x455;" horiz-adv-x="434" 
d="M28 150h130q1 -26 16.5 -42.5t40.5 -16.5q27 0 43 13t16 37q0 44 -51 52q-37 6 -64 14t-58 23.5t-48 43.5t-17 67q0 69 49 110t130 41q77 0 129.5 -40t48.5 -112h-117q-2 21 -18 34t-40 13t-38.5 -11.5t-14.5 -32.5q0 -40 53 -47q45 -6 70 -12.5t57 -22t47 -45t15 -73.5
q0 -69 -51 -111t-135 -42q-92 0 -141.5 43t-51.5 117z" />
    <glyph glyph-name="uni0456" unicode="&#x456;" horiz-adv-x="238" 
d="M42 621q0 39 23 60t55 20q31 -1 53.5 -22t22.5 -58q0 -38 -22 -59t-53 -22q-32 0 -55.5 21t-23.5 60zM53 0v476h132v-476h-132z" />
    <glyph glyph-name="uni0457" unicode="&#x457;" horiz-adv-x="238" 
d="M32 560q-28 0 -48.5 19t-20.5 51q0 31 20 50.5t49 19.5q30 0 50.5 -18.5t20.5 -51.5q0 -32 -20.5 -51t-50.5 -19zM201 560q-30 0 -49.5 19t-19.5 51t19.5 51t49.5 19t50 -19t20 -51t-20 -51t-50 -19zM53 0v482h132v-482h-132z" />
    <glyph glyph-name="uni0458" unicode="&#x458;" horiz-adv-x="236" 
d="M40 621q0 39 23 59.5t54 20.5q32 -1 54 -21.5t22 -58.5q0 -37 -22 -58t-52 -23q-32 -2 -55.5 19.5t-23.5 61.5zM183 480l-1 -537q0 -238 -211 -195l4 104q46 -8 62 13t16 80v535h130z" />
    <glyph glyph-name="uni0459" unicode="&#x459;" horiz-adv-x="671" 
d="M228 359l-12 -176q-10 -126 -52 -163.5t-155 -19.5l3 101q45 -6 58 12t17 75l28 294h317v-141h41q81 0 130.5 -46.5t49.5 -124.5q0 -77 -49.5 -123.5t-131.5 -46.5h-166v359h-78zM432 104h39q26 0 41 18t15 48t-15 48t-41 18h-39v-132z" />
    <glyph glyph-name="uni045A" unicode="&#x45a;" horiz-adv-x="663" 
d="M298 207h-119v-207h-127v482h127v-155h119v155h127v-150h40q82 0 131.5 -45.5t49.5 -119.5q0 -75 -49.5 -121t-131.5 -46h-167v207zM425 104h38q26 0 41.5 17t15.5 46q0 27 -15.5 43.5t-41.5 16.5h-38v-123z" />
    <glyph glyph-name="uni045B" unicode="&#x45b;" horiz-adv-x="512" 
d="M333 0v279q-2 49 -20.5 76t-48.5 27q-31 0 -54.5 -34.5t-23.5 -82.5v-265h-133v581h-59v84h59v65h133v-65h111v-84h-111v-161q27 73 120 73q45 0 77 -18t49 -50t24.5 -67.5t7.5 -78.5v-279h-131z" />
    <glyph glyph-name="uni045C" unicode="&#x45c;" horiz-adv-x="482" 
d="M185 560l64 156l112 -42v-11l-78 -115h-98v12zM460 1h-136l-88 196q-21 -4 -53 -2v-194h-131v481h131v-177h23q116 0 107 177h125q7 -172 -90 -244l112 -223v-14z" />
    <glyph glyph-name="uni045E" unicode="&#x45e;" horiz-adv-x="485" 
d="M104 700l79 9q4 -61 60 -61t65 61q24 -1 79 -9q-3 -77 -39.5 -116t-102.5 -39q-65 0 -101.5 39.5t-39.5 115.5zM471 466l-170 -513q-35 -104 -71.5 -153.5t-101.5 -49.5q-39 0 -88 26l12 98q26 -14 48 -14q29 0 45 21.5t29 67.5l14 50l-177 467v16h141l58 -179l40 -141h3
l36 143l51 177h131v-16z" />
    <glyph glyph-name="uni045F" unicode="&#x45f;" horiz-adv-x="504" 
d="M52 482h132v-359h135v359h133v-482h-139v-96h-122v96h-139v482z" />
    <glyph glyph-name="uni0490" unicode="&#x490;" horiz-adv-x="442" 
d="M207 0h-141v700h256v100h110v-231h-225v-569z" />
    <glyph glyph-name="uni0491" unicode="&#x491;" horiz-adv-x="378" 
d="M52 482h210v92h100v-214h-181v-360h-129v482z" />
    <glyph glyph-name="Wgrave" unicode="&#x1e80;" horiz-adv-x="859" 
d="M300 871v12l121 47l68 -166v-13h-108zM594 254h1q12 105 36 205l67 241h147v-22l-203 -685h-95l-116 394h-2l-113 -394h-99l-203 685v22h147l70 -241q28 -123 38 -205h1l114 429h91z" />
    <glyph glyph-name="wgrave" unicode="&#x1e81;" horiz-adv-x="669" 
d="M219 668v12l117 45l64 -150v-12h-103zM12 466v16h142l44 -141q15 -54 23 -110h2l84 240h57l83 -240h3q17 90 23 110l43 141h142v-16l-170 -473h-54l-99 245l-96 -245h-58z" />
    <glyph glyph-name="Wacute" unicode="&#x1e82;" horiz-adv-x="859" 
d="M368 761l67 166l121 -47v-12l-81 -120h-107v13zM594 254h1q12 105 36 205l67 241h147v-22l-203 -685h-95l-116 394h-2l-113 -394h-99l-203 685v22h147l70 -241q28 -123 38 -205h1l114 429h91z" />
    <glyph glyph-name="wacute" unicode="&#x1e83;" horiz-adv-x="669" 
d="M270 572l64 151l118 -46v-11l-78 -107h-104v13zM12 466v16h142l44 -141q15 -54 23 -110h2l84 240h57l83 -240h3q17 90 23 110l43 141h142v-16l-170 -473h-54l-99 245l-96 -245h-58z" />
    <glyph glyph-name="Wdieresis" unicode="&#x1e84;" horiz-adv-x="859" 
d="M316 757q-31 0 -52.5 19.5t-21.5 52.5q0 32 21 52t53 20q31 0 52.5 -19t21.5 -53q0 -33 -21.5 -52.5t-52.5 -19.5zM544 757q-31 0 -52 19.5t-21 52.5q0 32 21 52t52 20t52.5 -19.5t21.5 -52.5q0 -32 -21.5 -52t-52.5 -20zM594 254h1q12 105 36 205l67 241h147v-22
l-203 -685h-95l-116 394h-2l-113 -394h-99l-203 685v22h147l70 -241q28 -123 38 -205h1l114 429h91z" />
    <glyph glyph-name="wdieresis" unicode="&#x1e85;" horiz-adv-x="669" 
d="M220 568q-31 0 -52.5 19.5t-21.5 52.5q0 32 21 52t53 20q31 0 52.5 -19t21.5 -53q0 -33 -21.5 -52.5t-52.5 -19.5zM448 568q-31 0 -52 19.5t-21 52.5q0 32 21 52t52 20t52.5 -19.5t21.5 -52.5q0 -32 -21.5 -52t-52.5 -20zM12 466v16h142l44 -141q15 -54 23 -110h2l84 240
h57l83 -240h3q17 90 23 110l43 141h142v-16l-170 -473h-54l-99 245l-96 -245h-58z" />
    <glyph glyph-name="Ygrave" unicode="&#x1ef2;" horiz-adv-x="563" 
d="M246 752l-81 120v12l121 47l67 -166v-13h-107zM281 414h3q20 71 53 142l67 144h150v-22l-201 -398v-280h-142v280l-202 398v22h152l68 -149q29 -65 52 -137z" />
    <glyph glyph-name="ygrave" unicode="&#x1ef3;" horiz-adv-x="486" 
d="M129 667v12l117 45l64 -150v-12h-103zM470 466l-160 -533q-28 -94 -71.5 -142t-110.5 -48q-43 0 -97 23l20 106q21 -12 57 -12q25 0 37.5 19.5t29.5 69.5l11 36l-176 487v10h142l61 -196q19 -64 33 -149q16 98 32 148l60 197h132v-16z" />
    <glyph glyph-name="endash" unicode="&#x2013;" horiz-adv-x="463" 
d="M413 393v-120h-363v120h363z" />
    <glyph glyph-name="emdash" unicode="&#x2014;" horiz-adv-x="538" 
d="M488 393v-120h-438v120h438z" />
    <glyph glyph-name="quoteleft" unicode="&#x2018;" horiz-adv-x="227" 
d="M40 520q-2 16 -2 27q0 12 8 44l35 112h77l-21 -84q55 -19 55 -74q0 -34 -22 -55t-55 -21q-31 0 -51.5 13.5t-23.5 37.5z" />
    <glyph glyph-name="quoteright" unicode="&#x2019;" horiz-adv-x="227" 
d="M189 655q2 -16 2 -26l-3 -21l-5 -23q-5 -23 -19 -63.5t-17 -49.5h-77l21 85q-24 6 -39 26t-15 47q0 34 21.5 55.5t55.5 21.5q30 0 50.5 -14t24.5 -38z" />
    <glyph glyph-name="quotesinglbase" unicode="&#x201a;" horiz-adv-x="237" 
d="M195 59q0 -12 -5 -32l-3 -13q-9 -33 -36 -113h-77l21 85q-54 19 -54 74q0 35 21.5 56t55.5 21t55.5 -20.5t21.5 -57.5z" />
    <glyph glyph-name="quotedblleft" unicode="&#x201c;" horiz-adv-x="426" 
d="M40 520q-2 5 -2 26q0 17 7 45l36 112h77l-21 -85q55 -19 55 -73q0 -34 -22.5 -55.5t-55.5 -21.5q-30 0 -50.5 14t-23.5 38zM238 520q-1 7 -1 26t7 45l36 112h77l-21 -85q54 -19 54 -73q0 -34 -22 -55.5t-55 -21.5q-30 0 -50.5 14t-24.5 38z" />
    <glyph glyph-name="quotedblright" unicode="&#x201d;" horiz-adv-x="429" 
d="M189 655q2 -16 2 -26l-3 -21l-5 -23q-5 -23 -19 -63.5t-17 -49.5h-77l21 85q-24 6 -39 26t-15 47q0 34 21.5 55.5t55.5 21.5q30 0 50.5 -14t24.5 -38zM391 655q1 -7 1 -26q0 -20 -4 -31l-39 -126h-77l21 85q-24 6 -39 26t-15 47q0 34 21.5 55.5t55.5 21.5
q29 0 49.5 -13.5t25.5 -38.5z" />
    <glyph glyph-name="quotedblbase" unicode="&#x201e;" horiz-adv-x="437" 
d="M195 59q0 -8 -2 -22l-2 -10l-4 -13l-35 -112h-78l22 84q-55 19 -55 74q0 35 22 56t55 21t55 -21t22 -57zM392 85q2 -16 2 -26q0 -1 -3 -22l-2 -10q-8 -20 -19.5 -62.5t-19.5 -62.5h-77l22 84q-55 19 -55 74q0 34 21.5 55.5t55.5 21.5q30 0 50.5 -14t24.5 -38z" />
    <glyph glyph-name="dagger" unicode="&#x2020;" horiz-adv-x="404" 
d="M142 479v230h119v-230h115v-118h-115v-448h-119v448h-114v118h114z" />
    <glyph glyph-name="daggerdbl" unicode="&#x2021;" horiz-adv-x="442" 
d="M160 241v152h-119v115h119v201h120v-201h121v-115h-121v-152h121v-116h-121v-212h-120v212h-119v116h119z" />
    <glyph glyph-name="bullet" unicode="&#x2022;" horiz-adv-x="395" 
d="M197 220q-56 0 -96.5 37t-40.5 101q0 60 39 100.5t98 40.5q58 0 98 -38.5t40 -102.5q0 -58 -39.5 -98t-98.5 -40z" />
    <glyph glyph-name="ellipsis" unicode="&#x2026;" horiz-adv-x="695" 
d="M117 -15q-33 0 -55 21t-22 55q0 35 22 56.5t55 21.5t55.5 -21.5t22.5 -56.5q0 -34 -22.5 -55t-55.5 -21zM346 -15q-33 0 -55.5 21t-22.5 55t22.5 56t55.5 22q34 0 55.5 -20.5t21.5 -57.5q0 -34 -22 -55t-55 -21zM577 -15q-33 0 -55.5 21t-22.5 55q0 35 22 56.5t56 21.5
t55.5 -20.5t21.5 -57.5q0 -34 -22 -55t-55 -21z" />
    <glyph glyph-name="perthousand" unicode="&#x2030;" horiz-adv-x="1130" 
d="M329 536q0 -78 -41.5 -126t-108.5 -48q-68 0 -109.5 48t-41.5 126t41.5 126t109.5 48q67 0 108.5 -48t41.5 -126zM594 699l-293 -699h-117l292 699h118zM130 536q0 -35 13.5 -56.5t35.5 -21.5t35.5 21.5t13.5 56.5t-13.5 57t-35.5 22t-35.5 -22t-13.5 -57zM757 164
q0 -78 -41.5 -126t-108.5 -48q-68 0 -109.5 48t-41.5 126t41.5 126t109.5 48q67 0 108.5 -48t41.5 -126zM1102 164q0 -78 -41.5 -126t-108.5 -48q-68 0 -109.5 48t-41.5 126t41.5 126t109.5 48q67 0 108.5 -48t41.5 -126zM558 164q0 -35 13.5 -56.5t35.5 -21.5t35.5 21.5
t13.5 56.5t-13.5 57t-35.5 22t-35.5 -22t-13.5 -57zM903 164q0 -35 13.5 -56.5t35.5 -21.5t35.5 21.5t13.5 56.5t-13.5 57t-35.5 22t-35.5 -22t-13.5 -57z" />
    <glyph glyph-name="guilsinglleft" unicode="&#x2039;" horiz-adv-x="273" 
d="M230 137l-66 -33l-131 242l131 244l66 -32l-82 -212z" />
    <glyph glyph-name="guilsinglright" unicode="&#x203a;" horiz-adv-x="272" 
d="M107 590l132 -244l-132 -242l-65 33l82 209l-82 212z" />
    <glyph glyph-name="fraction" unicode="&#x2044;" horiz-adv-x="437" 
d="M446 729l-325 -789h-128l325 789h128z" />
    <glyph glyph-name="Euro" unicode="&#x20ac;" horiz-adv-x="553" 
d="M34 327h56q-2 39 1 55h-57v77h67q26 118 103 183t183 65q67 0 120 -25l-42 -117q-32 17 -73 17q-56 0 -94.5 -32.5t-51.5 -90.5h169l-21 -77h-166q-5 -31 -1 -55h150l-23 -79h-112q12 -58 52.5 -93.5t96.5 -35.5q48 0 88 27l46 -121q-65 -35 -138 -35q-117 0 -191 66
t-97 192h-65v79z" />
    <glyph glyph-name="uni2116" unicode="&#x2116;" horiz-adv-x="1139" 
d="M212 0h-141v703h44l322 -400v397h142v-702h-42l-325 402v-400zM1110 243q0 -119 -64.5 -186t-152.5 -67t-153 67t-65 186q0 118 64 185.5t151 67.5q89 0 154.5 -66t65.5 -187zM806 243q0 -62 25.5 -96.5t60.5 -34.5t61 34.5t26 96.5t-25 96t-61 34q-35 0 -61 -34.5
t-26 -95.5z" />
    <glyph glyph-name="trademark" unicode="&#x2122;" horiz-adv-x="648" 
d="M56 701h219v-83h-65v-196h-88v196h-66v83zM543 701h43v-279h-87v119l-47 -68h-4l-48 68v-119h-87v279h43l94 -118z" />
    <glyph glyph-name="arrowleft" unicode="&#x2190;" horiz-adv-x="662" 
d="M49 355l261 277l84 -84l-130 -135l330 6v-148l-328 6l127 -136l-83 -85l-261 279v20z" />
    <glyph glyph-name="arrowup" unicode="&#x2191;" horiz-adv-x="627" 
d="M483 267l-108 159l5 -402h-140l6 404l-108 -161l-79 88l242 302h19l243 -301z" />
    <glyph glyph-name="arrowright" unicode="&#x2192;" horiz-adv-x="668" 
d="M263 141l127 136l-327 -6v148l330 -6l-130 135l83 84l262 -277v-20l-261 -279z" />
    <glyph glyph-name="arrowdown" unicode="&#x2193;" horiz-adv-x="612" 
d="M133 421l108 -159l-5 402h139l-5 -404l108 161l79 -88l-242 -302h-19l-243 301z" />
    <glyph glyph-name="arrowboth" unicode="&#x2194;" horiz-adv-x="852" 
d="M471 148l123 131h-340l124 -131l-82 -82l-251 269v20l252 268l81 -82l-125 -130h343l-126 130l81 82l252 -268v-20l-251 -269z" />
    <glyph glyph-name="arrowupdn" unicode="&#x2195;" horiz-adv-x="602" 
d="M139 319l105 -147v385l-105 -147l-76 83l233 279h19l232 -280l-76 -83l-104 150v-389l104 150l76 -83l-232 -280h-19l-233 279z" />
    <glyph glyph-name="uni2196" unicode="&#x2196;" horiz-adv-x="637" 
d="M110 585l356 -17l3 -122l-168 18l237 -282l-98 -104l-228 288l13 -208l-115 4l-13 409z" />
    <glyph glyph-name="uni2197" unicode="&#x2197;" horiz-adv-x="614" 
d="M380 158l13 208l-228 -288l-98 104l237 282l-169 -18l3 122l357 17l13 -14l-13 -409z" />
    <glyph glyph-name="uni2198" unicode="&#x2198;" horiz-adv-x="637" 
d="M504 116l-357 17l-3 122l169 -18l-237 282l98 104l228 -288l-13 208l115 -4l13 -409z" />
    <glyph glyph-name="uni2199" unicode="&#x2199;" horiz-adv-x="637" 
d="M248 543l-13 -208l228 288l98 -104l-237 -282l168 18l-3 -122l-356 -17l-13 14l13 409z" />
    <glyph glyph-name="minus" unicode="&#x2212;" horiz-adv-x="470" 
d="M415 413v-120h-360v120h360z" />
    <glyph glyph-name="NULL" horiz-adv-x="0" 
 />
    <glyph glyph-name="CR" horiz-adv-x="186" 
 />
    <glyph glyph-name="_468" horiz-adv-x="0" 
 />
    </font>
</defs>
</svg>
